<?xml version="1.0" encoding="UTF-8"?><svg id="_レイヤー_2" xmlns="http://www.w3.org/2000/svg" viewBox="0 0 241.05 119.32"><g id="_レイヤー_1-2"><path d="m6.56,100.97c3.43-.55,6.23-4.02,5.75-8.3-.49-4.39-4.64-7.77-7.49-7.14-2.92.65-3.36,3.28-3.11,4.99.36,2.51-1.87,3.51-1.69,6.25.22,3.51,3.08,4.77,6.55,4.21" style="fill:#f39700;"/><path d="m33.56,75.63c6.01,1.38,11.99-2.37,13.38-8.37,1.36-5.9-.08-14.49-6.15-15.88-6.06-1.39-13.79,3.3-15.41,10.95-1.28,6.02,2.18,11.92,8.18,13.31" style="fill:#00a73b;"/><path d="m69.31,39.74c8.62,7.84,23.16,6.88,30.83-1.57,6.01-6.63,6.32-12.17,4.35-17.25-1.79-4.65-6.28-5.54-8.88-7.58-5.17-4.05-4.18-10.47-9.96-12.65-5-1.9-11.84,0-17.86,6.62-8.24,9.07-7.56,24.19,1.52,32.42" style="fill:#e60012;"/><path d="m40.63,69.43l-7.18-.05s-.13,0-.13-.22v-.15c.01-2.09.02-2.57.02-2.61v-.07s0-.06,0-.07c.02,0,5.1.01,5.1.01h2.32c.06,0,.16,0,.18.02,0,.01,0,.07.01.13v.05s0,.12,0,.23c0,.63-.02,2.26-.05,2.5v.1s-.02.1-.03.11c-.02.01-.13.01-.24.01m-1.23-7.03h1.48c.08,0,.1.01.11.01v.02c.01.13.01.82.01,1.52s0,1.41-.01,1.56c0,.03-.01.05-.02.05-.29,0-4.24-.02-6.37-.04,0,0-1.28,0-1.32-.01h0c0-.11,0-.53,0-1.02,0-.89,0-2.02,0-2.07v-.03c.28,0,4.07,0,6.12,0m-6.01-3.91h7.36c.14,0,.18,0,.19.19.01.21.05,1.9.05,2.62,0,.15,0,.25,0,.31v.04s0,.03,0,.05h-.1c-.41,0-7.47-.05-7.56-.05-.02,0-.03,0-.03-.05,0-.03.04-2.65.07-3.1h0s.04-.01.04-.01m2.1-3.87l-.1.07s-.03.06-.03.09c0,.05.02.1.06.17.02.03.02.1.02.15v.07c.01.15.01.3.01.45,0,.86-.15,1.61-.23,1.92-.05.19-.1.21-.32.21h-.26s-.86,0-.86,0h-.02c-.18,0-.3,0-.54-.14-.37-.2-1.28-.61-1.74-.67-.1-.02-.19.02-.26.08-.05.06-.08.14-.06.23v.07c.06.21.17.77.2,1.4.03.39.03,2.03.03,3.47,0,1.04,0,2.02.01,2.38.02.97-.04,4.98-.17,6-.02.19.04.6.19.8.13.17.35.27.57.27.53,0,1-.33,1.22-.63.12-.17.17-.51.19-.82v-.07s0-.02,0-.02c0,0,.03,0,.03,0h.02c.17-.02,7.19.04,7.26.04h.02v.03s.03.16.03.27c.01.15.02.33.05.49.06.33.36.49.62.46.25-.03.51-.06.93-.22.47-.17.67-.59.63-1.33-.02-.57-.19-7.66-.19-8.08s.06-1.73.09-2.1c.03-.32.19-.52.46-.77.13-.11.19-.26.2-.42,0-.19-.08-.39-.23-.53-.15-.14-.7-.46-1.25-.77l-.29-.17c-.15-.1-.32-.09-.41.03l-.11.15-.26.34c-.13.16-.27.24-.44.25-.14,0-2.67-.02-3.89-.04h-.68s-.02,0-.03,0c.04-.07.85-1.15,1.13-1.39.21-.18.44-.32.6-.38.29-.11.37-.29.39-.45,0,0,.01-.02.01-.03,0-.14-.17-.34-.43-.43-.2-.07-.88-.24-1.3-.34l-.25-.06c-.28-.07-.42-.08-.68-.05" style="fill:#fff;"/><path d="m54.56,54.69c-.06.03-.13.11-.13.28,0,.1-.05.34-.12.64l-.02.08c-.23,1.03-1.6,4.37-3.43,6.17-.17.17-.23.29-.17.37.07.08.2.06.4-.08,1.29-.79,2.98-2.42,3.67-3.57.11-.17.13-.18.31-.18.27,0,2.16-.02,2.32,0,.05,0,.13.01.15.04,0,0,0,.01,0,.04s0,.06-.02.12c0,.01-.39,1.34-.9,2.32,0,0,0,0,0-.01-.1-.46-.26-.77-.79-1.11-.29-.18-.99-.38-1.31-.4-.12,0-.26,0-.31.11-.02.04-.03.12.06.2.16.17.54.86.77,1.27l.14.25c.21.38.51.53.87.46.08-.02.15-.05.2-.08-.1.16-.23.37-.23.37-.34.55-.71,1.17-1.21,1.76-.98,1.18-2.17,2.24-3.36,3-.05.03-.19.12-.19.23,0,0,0,.02,0,.04.01.04.06.1.21.08l.14-.04c3.4-1.19,5.67-3.25,7.16-6.5.05-.11.08-.11.18-.11h.39l1.92.02s.08.01.1.02c.01.02.01.05,0,.09-.29,1.76-.74,2.77-1.13,3.52-.5.94-1.81,2.15-3.18,2.92-.05.03-.12.16-.08.25.02.05.07.09.17.07l.21-.05.25-.05c1.62-.44,2.45-.95,3.58-2.21.88-.97,1.47-2.21,1.82-3.79.01-.06.02-.09.03-.12,0,.02,0,.03.02.06.37,1.21.72,2.2,1.26,3.13.35.58,1.42,1.81,2.12,2.35.43.33.61.46.87.26.45-.35,1.67-1.03,2.19-1.19.14-.04.21-.11.21-.2h0c0-.07-.05-.16-.27-.21l-.26-.06c-.38-.09-.85-.19-1.19-.35-1.58-.71-3.1-1.96-3.96-3.25l-.03-.05c-.26-.4-.49-.73-.55-1.08,0,0,0-.02,0-.04h.01c.13,0,3.06,0,4.47,0h.84c.29,0,.36-.14.41-.23.07-.15.04-.25-.1-.42-.37-.4-.99-.89-1.3-1.11-.21-.15-.44-.32-.72.04l-.29.38c-.16.23-.31.42-.42.53l-.09.09c-.06.06-.08.09-.18.09h-2.72c-.06,0-.1-.01-.11-.03-.04-.04-.04-.13-.03-.2.01-.23.24-2.82.27-3.05.05-.25.27-.4.41-.5l.05-.04c.08-.06.13-.18.14-.31,0-.16-.06-.26-.18-.32-.14-.07-.69-.18-1.26-.31l-.77-.17c-.12-.03-.21-.07-.26-.09-.15-.07-.25-.01-.32.04-.04.03-.1.08-.1.15,0,.02,0,.05.02.08.08.13.2.39.34.95.05.22.07.65.07,1.14,0,1.04-.09,2.35-.11,2.46-.02.11-.03.14-.03.15-.04,0-1.11-.02-1.11-.02h-.8c-.09-.01-.17-.02-.19-.03-.05-.01-.11-.04-.13-.09,0,0,0-.02,0-.04,0-.03,0-.06.03-.11.05-.12.2-.46.33-.62.05-.05.15-.1.24-.15.19-.11.38-.22.38-.4h0c0-.19-.04-.24-.12-.31l-.04-.04c-.16-.15-1.14-.81-1.36-.91-.26-.13-.42.02-.57.19l-.2.27-.1.16c-.08.09-.1.1-.24.09-.2,0-1.38,0-1.88,0h-.21s-.04,0-.05,0c0-.02.01-.06.06-.13l.21-.35.32-.54c.08-.11.46-.32.7-.42.14-.05.22-.16.23-.28v-.02c0-.14-.09-.27-.26-.37-.16-.11-.64-.33-1.05-.54-.34-.16-.66-.31-.73-.36-.13-.08-.25-.1-.34-.05" style="fill:#e60012;"/><path d="m64.27,56.27c-.13.01-.21.05-.24.13-.02.06,0,.12.06.17.52.41,1.12,1.54,1.29,1.94.09.23.31.4.57.45.25.05.5-.04.71-.25.19-.2.3-.54.29-.86-.01-.25-.11-.62-.47-.93-.7-.61-1.58-.69-2.21-.65" style="fill:#e60012;"/><path d="m54.28,67.11c-.12.02-.14.18-.16.33h0c-.13.81-.72,1.52-1.74,2.09-.33.18-.55.47-.62.78-.09.39.11.73.54.96.36.19,1.1.12,1.49-.24.37-.35.74-.72.94-1.2.16-.41.23-.9.19-1.5-.02-.3-.13-.62-.32-.95-.12-.21-.22-.29-.31-.27" style="fill:#e60012;"/><path d="m57.22,67.38s-.12.09-.09.28h0c.12.73.18,1.52-.18,2.4-.09.23-.13.8.13,1.05.18.18.45.21.65.21.49.02,1.22-.34,1.26-1.37.05-1.12-1.14-2.21-1.5-2.52-.09-.08-.19-.1-.26-.06" style="fill:#e60012;"/><path d="m89.17,68.06s-.01.03-.01.05c0,.06.05.13.13.21.39.35.98.97,1.49,1.68l.36.56c.28.46.6.97.94,1.28.25.22.54.28.89.19.63-.17.87-.68.68-1.4-.18-.67-.88-1.31-1.41-1.66-.78-.49-1.81-.86-2.76-.99-.07-.01-.25-.03-.3.08" style="fill:#e60012;"/><path d="m170.91,68.06c-.03.07,0,.16.12.26.38.35.98.97,1.48,1.68l.36.56c.28.46.59.97.94,1.28.24.22.54.28.89.19.62-.17.87-.68.68-1.4-.19-.67-.87-1.31-1.41-1.66-.78-.49-1.81-.86-2.76-.99-.06-.01-.25-.03-.3.08" style="fill:#e60012;"/><path d="m115.71,59.8c-.92.25-1.79,1.03-2.18,1.66-.04.05-.05.11-.05.15,0,.05.02.09.04.12.08.08.15.06.23.02.64-.26,1.61-.5,2.24-.33.54.15.54.19.51.3-.09.38-.5,1.03-.64,1.24-.08.12-.08.22-.03.28.02.04.08.08.2.04.15-.04.33-.13.56-.25l.23-.11c.23-.11.54-.14.85-.16h.14s.27-.03.27-.03c.15-.03.43-.15.61-.53.12-.25.16-.46.16-.72-.02-.42-.23-.83-.63-1.21-.56-.52-1.63-.73-2.5-.48" style="fill:#e60012;"/><path d="m123.37,57.59s-.02.05-.02.07c0,.05.02.1.03.12l.16.28c.08.12.16.25.22.39.07.18.15.59.18.78.03.17.04.37.04.6,0,.44-.04.98-.08,1.58-.06.73-.12,1.56-.12,2.36v.03c0,3.06,1.88,5.15,3.63,5.8.33.13.82.02,1.11-.24.3-.27.4-.74.23-1.05l-.08-.15c-.22-.4-.42-.78-.34-1.32.05-.32.42-1.55.61-2.21l.12-.4c.03-.09.07-.31-.05-.36-.12-.06-.23.09-.28.15-.06.1-.28.42-.54.83-.48.74-1.13,1.75-1.31,1.92-.06.06-.14.11-.29-.03-.58-.54-.85-1.23-1.03-1.78-.29-.89-.11-1.83.04-2.65l.1-.52c.04-.29.13-.58.21-.87.18-.6.37-1.21.2-1.86-.31-1.23-1.95-1.48-2.46-1.52h-.03c-.11-.01-.2-.02-.25.05" style="fill:#e60012;"/><path d="m132,60.7h0c-.16.03-.34.07-.34.2.01.14.27.16.34.16.82.02,1.53.19,2.32.97.56.56.94,1.67,1.01,2.48.09.98.95.93,1.33.9.23-.01.49-.2.66-.49.16-.28.47-1.07-.16-2.37-.59-1.21-2.46-2.3-5.16-1.85" style="fill:#e60012;"/><path d="m206.92,55.81h0c-.15.02-.29.05-.31.16-.03.11.1.21.23.29.22.14.59.55.53,1.69-.05.85-.17,3-.27,4.62-.14,2.02-.21,3.68.11,5.27.44,2.12,2.24,3.43,4.71,3.43,3.25,0,5.99-2.6,7.03-5.18l.02-.07.05-.13c.11-.22.07-.3.01-.34-.09-.06-.21.03-.38.25-.58.78-2.17,2.65-4.49,3.24-1.46.37-2.7.34-3.82-.08-2.47-.92-1.86-5.48-1.29-8.11l.25-1.06c.3-1.22.51-2.1.27-2.71-.49-1.28-1.72-1.39-2.66-1.26" style="fill:#e60012;"/><path d="m227.04,55.29h0c-.12.03-.25.07-.27.19-.02.11.09.21.13.24.6.47.6.8.49,1.4-.13.66-1.23,2.18-2.18,3.51l-.99,1.39c-.53.78-.63,1.49-.28,2.05l.81,1.28c1.04,1.6,2.22,3.43,2.85,5.29.16.46.42.78.75.93.28.12.59.12.87.01.39-.16.64-.38.75-.67.16-.4.06-.93-.29-1.7-.29-.64-1.88-2.39-3.05-3.66l-1.07-1.21c-.34-.39-.62-1.06-.27-1.63.73-1.21,2.15-2.58,3.09-3.49.32-.31.57-.55.72-.72l.03-.03c.51-.56,1.09-1.19.69-2.13-.38-.88-2.08-1.24-2.78-1.05" style="fill:#e60012;"/><path d="m142.95,55.81h0c-.15.02-.29.05-.31.16-.03.11.1.21.23.29.23.14.59.55.53,1.69-.04.85-.16,3-.27,4.62-.14,2.02-.21,3.68.11,5.27.44,2.12,2.24,3.43,4.71,3.43,3.25,0,6-2.6,7.03-5.18l.02-.07.05-.13c.11-.22.06-.3,0-.34-.09-.06-.22.03-.38.25-.58.78-2.17,2.65-4.5,3.24-1.45.37-2.7.34-3.82-.08-2.46-.92-1.86-5.48-1.28-8.11l.25-1.06c.29-1.22.51-2.1.27-2.71-.49-1.28-1.72-1.39-2.66-1.26" style="fill:#e60012;"/><path d="m163.07,55.29h0c-.12.03-.25.07-.27.19-.02.11.09.21.14.24.6.47.61.8.49,1.4-.13.66-1.22,2.18-2.18,3.51l-.99,1.39c-.53.78-.62,1.49-.29,2.05l.82,1.28c1.04,1.6,2.21,3.43,2.85,5.29.16.46.42.78.75.93.27.12.59.12.87.01.39-.16.63-.38.74-.67.16-.4.08-.93-.28-1.7-.3-.64-1.89-2.39-3.05-3.66l-1.08-1.21c-.34-.39-.61-1.06-.26-1.63.73-1.21,2.15-2.58,3.09-3.49.32-.31.58-.55.73-.72l.03-.03c.51-.56,1.09-1.19.69-2.13-.38-.88-2.08-1.24-2.79-1.05" style="fill:#e60012;"/><path d="m185.37,56.61s-.05.13.05.25c.2.25.55.88.85,1.43.19.35.37.67.48.85.2.3.56.49.95.25.35-.21.76-.93.34-1.6-.48-.78-1.99-1.2-2.45-1.26-.1,0-.17.03-.21.1" style="fill:#e60012;"/><path d="m191.33,61.64c0-.26-.02-1.57.01-1.67t.11-.05c.17,0,3.04,0,3.17,0,.11,0,.12.11.12.16h0c0,.15-.02,1.5-.04,1.65,0,.03,0,.08-.01.09,0,0-.02,0-.09,0-.15,0-2.96,0-3.15,0-.08,0-.12,0-.13-.18m.03-4.11h1.08c.85.02,2.14.03,2.24.04h.07s0,.03,0,.03v.04c.01.1.02.64.02,1.03,0,.21,0,.39,0,.44v.06s-.01.09-.02.1c0,0-.01,0-.05,0h-.71c-.87-.02-2.46-.04-2.58-.06-.07-.02-.07-.03-.07-.16v-.67s0-.84,0-.84h0s.02-.01.02-.01Zm.47-2.8c-.07.07-.09.18-.05.34.09.36.06,1.24-.05,1.54-.06.16-.11.25-.18.28-.09.04-.25.01-.52-.1l-.13-.05c-.29-.12-.79-.32-1.09-.38-.1-.02-.19-.04-.25.02-.04.03-.05.08-.03.15.03.18.15,2.06.15,2.4,0,.31-.05.4-.39.57l-.47.26c-.84.46-2.41,1.3-3.03,1.58-.43.19-.71.19-.88.19h-.11c-.1,0-.23.01-.27.1-.05.08,0,.17.02.2.16.28.95,1.41,1.17,1.67.08.09.17.13.26.11.14-.03.25-.17.29-.28.02-.06.08-.22.23-.43.14-.2.79-.79,1.41-1.37.7-.64,1.44-1.31,1.67-1.61.02-.02.03-.02.03-.04v.02s0,.19,0,.3c0,.76,0,2.25-.08,2.66v.04c-.02.08-.04.17-.04.26,0,.03,0,.07.01.1.03.17.16.55.78.52.99-.05,1.08-.81,1.12-1.17v-.07c.02-.1.1-.1.12-.1.16,0,1.17.02,1.97.03l1.12.02c.06,0,.07.06.08.09v.13s.06.63.06.63c0,.1.2.39.49.42h.08c.14.03.28.05.48-.02.28-.09.73-.39.8-.66.02-.07.08-.34.07-.74l-.07-2.36c-.02-.98-.05-1.9-.05-1.94,0-.24.01-.25.03-.26,0,0,.07-.05.07-.05l.29-.23c.14-.12.21-.24.21-.36,0-.1-.06-.2-.17-.29-.26-.21-1.08-.64-1.5-.81-.11-.04-.24-.06-.44.12-.09.08-.14.17-.17.25l-.03.06-.07.13c-.08.17-.12.25-.26.26-.18,0-1.83,0-1.95,0-.04,0-.05-.01-.06-.02h0s0-.02,0-.03c.04-.06.47-.48.74-.74.07-.07.12-.09.21-.13l.12-.06c.19-.09.31-.26.31-.43h0c0-.15-.09-.26-.23-.32-.25-.1-1.26-.43-1.47-.48-.18-.04-.3-.03-.38.05" style="fill:#e60012;"/><path d="m192.18,62.99c-.06.04-.07.09-.08.13v.02s-.01.06-.01.1c0,.17.05.48.1.73.04.17.04.34.04.51,0,.14,0,.27-.01.38v.19s0,.02,0,.02c-.02,0-.07,0-.07,0-1.67-.03-5.62-.12-6.05-.12-.29,0-.57-.05-.82-.1-.19-.03-.35-.06-.48-.07h-.1c-.09-.02-.17-.02-.21.04-.03.04-.02.08,0,.13l.3.63c.11.26.38.2.59.17l.1-.02c.2-.03,4.68-.04,5.01-.04-.06.11-.11.22-.2.32-1.11,1.35-3.89,3.47-6.43,4.54-.25.1-.28.18-.28.23,0,0,.01.02.01.02.02.1.17.09.25.08,2.34-.25,6.72-2.53,8.36-4.35.01-.02.03-.03.03-.04,0,.01,0,.03,0,.04,0,.04,0,.22-.02.61-.02.97-.07,2.78-.18,3.58-.02.14-.03.27-.03.39,0,.3.07.53.19.69.11.14.27.21.45.23.34.02.76-.14.96-.23.5-.24.55-.61.55-1.4,0-.37-.07-1.98-.11-3.15-.02-.63-.04-1.18-.04-1.28,0,.01.02.03.03.06.88,1.44,2.22,3.16,5.46,4.96.11.06.22.11.34.15.25.07.41.03.55-.15.36-.47,1.38-1.05,1.96-1.36.11-.05.16-.12.16-.19v-.02s-.05-.13-.23-.15l-.23-.03-.37-.05c-1.58-.26-3.06-.73-4.19-1.33-1.19-.64-2.25-1.45-2.7-2.06-.03-.03-.04-.05-.04-.07.01,0,.03,0,.03,0h.05c.11-.01,3.43-.01,5.21,0h1.42c.07,0,.13-.06.16-.15.05-.13.02-.33-.2-.48-.24-.19-.73-.59-1.11-.9l-.51-.42c-.1-.07-.26-.15-.41.02l-.23.25c-.23.27-.51.6-.62.74-.15.21-.21.3-.45.29-.21-.01-1.96,0-3.24,0h-.26c-.15,0-.38-.02-.53-.04h-.06c0-.09-.01-.23-.01-.36,0-.11,0-.22.01-.28.01-.09.16-.2.32-.33l.08-.06c.08-.06.13-.16.13-.26,0-.02,0-.04-.01-.06-.02-.15-.14-.27-.3-.32-.33-.1-.93-.23-1.46-.34l-.33-.07c-.11-.03-.17-.02-.22.01" style="fill:#e60012;"/><path d="m199.1,55.97c-.07.03-.11.1-.13.2-.12.71-1.19,2.25-1.75,2.78-.12.11-.15.2-.11.27.05.08.16.09.24.06.4-.13,1.84-.95,2.1-1.14.17-.12.7-.28,1.05-.39l.37-.12c.14-.06.19-.15.2-.21.03-.12-.04-.25-.17-.38-.15-.14-.68-.48-1.11-.74l-.41-.27c-.11-.07-.19-.09-.27-.06" style="fill:#e60012;"/><path d="m196.75,59.86c-.04.09.06.2.11.24l.1.09c.77.48,2.05,1.94,2.25,2.24l.07.1c.22.32.43.61.84.73.29.08.58,0,.8-.21.25-.24.32-.65.3-.81-.03-.26-.16-.64-.52-1-.59-.58-2.22-1.15-3.17-1.38-.07-.02-.21-.03-.44-.06h-.13s-.17-.03-.21.06" style="fill:#e60012;"/><path d="m52.45,61.28c-.04.08,0,.17.09.27.27.28.56,1.03.75,1.52l.2.48c.2.41.57.5.85.41.29-.1.56-.5.63-.77.1-.3,0-.57-.35-1.03-.4-.51-1.56-.9-1.93-.96-.16-.02-.21.04-.23.08" style="fill:#e60012;"/><path d="m60.76,67.45c-.05.06-.01.15.04.23.44.73.43,1.83.37,2.42-.03.36.15.93.58,1.06.41.13.9-.07,1.17-.3.19-.16.59-.64.25-1.59-.31-.82-1.79-1.78-2.18-1.86-.09-.02-.18-.02-.23.04" style="fill:#e60012;"/><path d="m236.67,69.42c0-.94.76-1.69,1.68-1.69s1.69.75,1.69,1.69-.75,1.69-1.69,1.69-1.68-.76-1.68-1.69m-1,0c0,1.48,1.21,2.69,2.68,2.69s2.7-1.21,2.7-2.69-1.21-2.69-2.7-2.69-2.68,1.21-2.68,2.69" style="fill:#e60012;"/><path d="m64.39,67.28h0c-.05.06-.05.18.09.31.63.55.93,1.32,1.31,2.3l.3.73c.22.55.5.62.8.68.33.07.78-.17,1.04-.57.09-.12.33-.54.13-1.16-.08-.25-.25-.52-.49-.79-.77-.84-2.28-1.36-2.89-1.54-.12-.04-.22-.06-.29.04" style="fill:#e60012;"/><path d="m85.11,61.27c-.58.55-2.54,1.89-3.92,2.6-.02.01-.04.01-.05.02,0-.01,0-.02.01-.04.42-1.08,2.25-3.21,3.02-3.5.42-.16.97-.11,1.1.04.08.09.11.2.11.31,0,.21-.12.43-.27.58m-5.74-4.64c.02-.07.11-.35.14-.42.05-.08.11-.1.16-.08.06.02.15.04.19.08.04.05.09.12.02.19-.06.07-.22.34-.33.36-.1.02-.12.03-.17.01-.05-.02-.02-.08,0-.15m7.7,3.35c-.64-.74-1.95-1.08-3.24-.32-1.08.64-2.48,2.62-2.93,3.33,0,0,0,0,0,0-.14-.28-.42-.67-.79-.94-.3-.22-.68-.37-1.15-.44-.4-.06-.88-.02-1.24.12-.05.02-.41.16-.6.27.46-.83,1.48-2.83,1.64-3.33.02-.09.04-.12.2-.17l.15-.05c.31-.11.75-.26,1.3-.57.64-.36,1.04-.7,1.04-1.25,0-.05,0-.11,0-.17-.03-.19-.3-.51-.58-.54h-.09c-.31-.04-.64-.08-.81-.08-.24,0-.26-.02-.35-.28l-.05-.12c-.14-.37-.36-.47-.76-.54-.4-.07-.96.12-1.21.34-.07.06-.09.11-.09.17v.02c.01.11.14.19.27.26l.16.11c.13.09.15.46.15.74,0,.09,0,.16,0,.22v.12c0,.23-.02.31-.17.33-.49.07-1.76.11-2.48-.14-.21-.07-.41-.18-.62-.32-.1-.07-.2-.08-.25-.02-.11.08-.08.28.06.61.55,1.28,2.01,1.35,2.8,1.38,0,0,.14,0,.16,0,0,0,0,.02,0,.02-.01.13-.64,1.3-1.18,2.27-.26.46-.81,1.11-1.29,1.68-.4.48-.79.93-.95,1.2-.17.29-.26.55-.26.79,0,.26.11.49.33.69.48.43,1.06.39,1.58-.13.19-.19.36-.48.55-.82.26-.45.54-.95.97-1.39.55-.58,1.04-.68,1.35-.66.41.02.53.17.66.51.14.4.15,1.14.15,1.53v.18c0,.3,0,.34-.32.55l-.05.03c-1.84,1.17-2.72,2.56-2.48,3.91.55,3.11,6.4,2.12,6.46,2.12.66-.12,1.11-.35,1.32-.7.14-.23.16-.51.07-.79-.08-.23-.26-.42-.51-.55-.35-.17-.78-.19-1.17-.05-.25.09-1.22.28-2.17.32-.7.03-1.3,0-1.82-.09-.42-.07-1.06-.44-1.12-1.16,0-.05,0-.1,0-.14,0-1.03.98-1.64,1.52-1.97l.16-.1s.01,0,.03-.01v.07c0,.13-.03.6-.04.92v.05s-.02.16-.02.16c0,.1-.02.21-.02.32,0,.28.06.58.35.79.47.34,1.04.06,1.4-.38.38-.45.29-1.83.25-2.49l-.02-.24c0-.24,0-.25.29-.38.2-.09,1.16-.51,2.29-.92l.88-.32c.69-.24,1.35-.47,1.8-.7.53-.26.86-.68.97-1.2.13-.66-.12-1.31-.41-1.65" style="fill:#e60012;"/><path d="m107.33,67.8c-.06.25-.11.28-.37.27-.26-.02-.49-.16-.63-.31-.03-.03-.03-.05.05-.12.18-.19.6-.47.82-.58.05-.03.09-.02.12.11.04.14.04.46,0,.64m.97-8c.02-.08.07-.18.22-.11.13.07.26.15.31.21.08.1.09.19.05.3-.04.11-.35.25-.54.31-.05.01-.08.01-.08-.05-.02-.21,0-.46.04-.67m8.32,5.06c-.77-1.52-1.92-1.8-3.41-1.74-1.08.03-3.61.97-4.64,1.61-.14.09-.2.1-.23.11,0-.02-.02-.11-.02-.11-.05-.2-.07-1.81-.07-2.14v-.04c0-.24.03-.29.16-.35l.36-.17c.33-.14.73-.32.94-.45l.15-.1c.38-.23.8-.49.8-1.1v-.12c-.06-.65-1.07-.77-1.67-.85l-.22-.03c-.12-.02-.2-.06-.24-.1-.02-.04-.03-.08-.03-.12,0-.03,0-.07,0-.1.02-.09.07-.27.13-.45l.15-.45c.02-.09.04-.17.04-.24,0-.19-.08-.32-.26-.5-.22-.23-.92-.69-1.72-.64-.87.05-1.41.59-1.39,1.41,0,.26.13.32.18.34.09.03.2,0,.27-.11.07-.1.27-.21.51-.22.2-.01.4.07.49.19.1.17.12,1.37.13,1.82v.24s0,.14,0,.14c.02.25.02.34-.14.41-.25.1-1.51.36-2.02.35-.49,0-.99-.21-1.16-.39-.12-.13-.19-.2-.28-.18-.09.02-.12.12-.15.21-.15.5.15,1.15.77,1.66.25.2.65.33,1.03.33.49,0,1.12-.09,1.87-.27.07-.02.11-.03.12-.02.01,0,.02.02.03.06.03.23.13,2.22.1,2.44l-.02.15c-.02.12-.02.14-.08.18-.07.04-.43.22-.78.39l-.75.38c-.38.2-.78.27-.98.16-.2-.1-.66-.16-1.03-.01-.25.1-.43.29-.51.54-.11.33-.07.64.12.92.33.5,1.04.76,1.34.79.49.04.94-.29,1.24-.51.15-.11.16-.11.27-.02.07.05.2.37.33.64.14.3.29.63.44.88.13.23.6.28,1.01.12.28-.12.54-.36.62-.62.24-.68.11-2.1.06-2.57v-.04c-.02-.25.1-.38.38-.57.83-.55,2.77-1.84,4.16-1.9.46-.02,1,.17,1.36.48.4.34.63.92.61,1.53-.03.99-1.51,1.99-2.64,2.03-.28.02-.5-.05-.65-.19-.17-.16-.21-.4-.21-.57,0-.3.3-.89.4-1.07.08-.13.04-.21,0-.24-.05-.06-.14-.07-.23-.02-.24.1-.75.45-1.13,1.05-.57.95-.37,1.92.55,2.53,1.19.79,3.18.05,4.15-.6,1.52-1.03,2.09-2.74,1.37-4.17" style="fill:#e60012;"/><path d="m213.88,114.02c0-.26-.02-.5-.15-1.01l-6.48-27.59c-.36-1.44-.77-2.51-1.3-3.26-.53-.75-1.8-2.09-4.07-2.09-2.13,0-3.34,1.14-3.98,1.94-.64.8-1.22,1.88-1.57,3.05l-4.48,14.98-4.49-14.98c-.35-1.17-.94-2.25-1.57-3.05-.63-.8-1.83-1.94-3.97-1.94-2.28,0-3.54,1.34-4.07,2.09-.53.75-.93,1.81-1.3,3.26l-6.48,27.59c-.12.52-.14.75-.15,1.01-.07,1.56.9,3.97,3.39,4.56,2.5.59,4.17-1.13,4.68-1.99.31-.5.65-1.44.95-2.66l3.67-15.56,4.08,14.24c.35,1.24.85,2.12.99,2.33.77,1.08,2.14,2.29,4.27,2.29s3.49-1.21,4.26-2.29c.15-.21.64-1.09.99-2.33l4.08-14.24,3.66,15.56c.31,1.23.65,2.16.96,2.66.52.86,2.19,2.58,4.69,1.99,2.5-.58,3.45-2.99,3.39-4.56" style="fill:#e60012;"/><path d="m236.76,110.3c-.24-.04-.46-.07-.96-.07h-11.59v-7.14h10.47c.48,0,.69-.03.92-.08,1.38-.26,3.28-1.6,3.28-3.91s-1.9-3.64-3.28-3.91c-.23-.05-.44-.07-.92-.07h-10.47v-6.52h10.95c.5,0,.72-.03.97-.08,1.43-.28,3.43-1.67,3.43-4.09s-2-3.81-3.43-4.09c-.25-.05-.46-.08-.97-.08h-13.17c-1.06,0-1.62.03-2.15.12-2.41.38-4.01,2.1-4.33,4.43-.09.62-.1,1.13-.1,2.18v24.84c0,1.05.01,1.57.1,2.18.32,2.33,1.93,4.05,4.33,4.43.52.08,1.09.11,2.15.11h13.81c.5,0,.72-.03.96-.07,1.44-.28,3.43-1.68,3.43-4.09s-1.99-3.8-3.43-4.09" style="fill:#e60012;"/><path d="m39.65,83.81c-.31-1.57-1.83-3.74-4.46-3.74s-4.15,2.17-4.46,3.74c-.05.27-.08.5-.08,1.05v29.04c0,.54.03.79.08,1.05.31,1.57,1.82,3.74,4.46,3.74s4.15-2.17,4.46-3.74c.05-.26.08-.5.08-1.05v-29.04c0-.54-.04-.78-.08-1.05" style="fill:#e60012;"/><path d="m83.23,83.98l12.57,28.22c.21.49.29.72.34.98.35,1.53-.15,4.09-2.5,5.13-2.37,1.05-4.6-.3-5.49-1.59-.16-.21-.29-.42-.51-.91l-9.15-20.54-7.94,17.45c-1.2,2.3-1.43,2.69-2.14,3.44-1.12,1.18-2.96,2.53-5.74,2.52-4.33,0-6.83-2.48-8.38-3.86l-10.05-9.28c-1.62-1.49-2.35-2.43-2.65-2.9-1.18-1.76-1.62-4.45.03-6.97.37-.56.63-.98,1.61-1.98l10.24-10.65c.8-.81,1.57-1.54,2.59-2.26,1.41-.98,3.81-1.07,5.46.42,1.65,1.5,1.9,3.98.59,5.72-.29.39-.83,1-1.04,1.23l-10.71,11.12,10.75,9.96c.48.45,1.03.36,1.33-.26l11.37-24.99c.39-.79.6-1.12,1.14-1.88.58-.82,1.67-2.04,3.58-2.04s3.13,1.24,3.66,2.02c.51.79.7,1.14,1.03,1.89" style="fill:#e60012;"/><path d="m123.92,95.17h-10.02c-.45,0-.64,0-.83,0-2.22.11-3.75,2.3-3.75,4.19s1.53,4.08,3.75,4.18c.19,0,.38,0,.83,0h6.89v2.5c0,1.49-.64,2.47-2.5,3.37-1.41.68-2.99,1.03-4.65,1.03-6.03,0-10.91-4.89-10.91-10.92s4.88-10.92,10.91-10.92c2.62,0,3.96.72,4.63,1.03.94.44,1.75.99,2.73,1.59,1.24.76,3.89.81,5.31-1.38,1.04-1.61,1.22-3.46.08-5.15-.38-.57-1.38-1.42-2.74-2.26-2.89-1.79-6.35-2.71-10-2.71-10.93,0-19.79,8.86-19.79,19.79s8.86,19.8,19.79,19.8c3.9,0,7.53-1.21,9.86-2.63,4.2-2.55,6.11-4.96,6.11-9.33v-7.18c0-1.99-.92-4.48-4.16-4.92-.33-.04-1.16-.1-1.54-.1" style="fill:#e60012;"/><path d="m151.11,79.74c-10.93,0-19.79,8.86-19.79,19.79s8.86,19.79,19.79,19.79,19.79-8.86,19.79-19.79-8.86-19.79-19.79-19.79m0,30.71c-6.02,0-10.92-4.89-10.92-10.92s4.89-10.92,10.92-10.92,10.92,4.89,10.92,10.92-4.89,10.92-10.92,10.92" style="fill:#e60012;"/></g></svg>