<?xml version="1.0" encoding="UTF-8"?><svg id="_レイヤー_2" xmlns="http://www.w3.org/2000/svg" viewBox="0 0 253.24 25.99"><g id="_レイヤー_1-2"><path d="m120.91,6.83c1,0,1.46.43,1.46,1.39v1.65c0,.36-.24.53-.65.53s-.63-.17-.63-.51v-1.46c0-.34-.17-.44-.53-.44h-11.08c-.37,0-.54.1-.54.44v1.44c0,.32-.24.49-.63.49s-.65-.17-.65-.51v-1.63c0-.97.46-1.39,1.48-1.39h5.1v-1.1c0-.36.2-.56.65-.56s.64.2.64.56v1.1h5.37Zm-5.2,9.18c1.19,1.89,3.6,3.11,6.49,3.54.29.03.51.29.51.61,0,.05,0,.12-.02.17-.08.39-.37.56-.68.56-.05,0-.08,0-.12-.02-3.11-.53-5.74-1.92-7.27-4.32-.24.51-.54.98-.88,1.41-1.34,1.65-3.43,2.52-5.44,2.92-.09.02-.15.02-.22.02-.31,0-.54-.17-.63-.49-.04-.07-.04-.15-.04-.22,0-.31.17-.56.48-.61,1.87-.37,3.81-1.1,4.84-2.34.33-.41.6-.82.8-1.22h-5.61c-.29,0-.47-.2-.47-.56,0-.34.19-.54.47-.54h6.02c.14-.49.21-1,.26-1.51h-4.35c-.29,0-.46-.22-.46-.54,0-.34.17-.53.46-.53h4.44v-.36c.02-.34.03-.68.03-1.02h-4.62c-.31,0-.46-.22-.46-.54,0-.34.15-.53.46-.53h4.64c.02-.32.02-.66.02-1.02,0-.32.2-.51.58-.51.41,0,.6.15.6.48,0,.37,0,.73-.02,1.05h4.83c.29,0,.46.19.46.53,0,.32-.17.54-.46.54h-4.83v.22c-.02.37-.02.77-.05,1.16h4.66c.29,0,.46.19.46.53s-.17.54-.46.54h-4.73c-.03.51-.12,1-.22,1.51h7c.29,0,.48.2.48.54,0,.36-.19.56-.48.56h-6.46Z" style="fill:#db0a17;"/><path d="m137,7.37c-.31,0-.48-.27-.48-.63s.17-.59.48-.59h7.58c.31,0,.48.24.48.59s-.17.63-.48.63h-7.58Zm-.66,4.39c-.32,0-.49-.27-.49-.61,0-.36.17-.61.49-.61h9.03c.31,0,.48.25.48.61,0,.32-.17.61-.48.61h-2.47v7.26c0,1.21-.71,1.68-2.06,1.68-.65,0-1.39-.08-1.94-.2-.27-.07-.49-.29-.49-.61,0-.05,0-.08.02-.14.07-.32.29-.53.56-.53.05,0,.1,0,.15.02.44.1,1.14.2,1.63.2.6,0,.8-.17.8-.77v-6.92h-5.24Zm-1.94-6.51c.14,0,.29.03.41.12.21.12.32.31.32.51,0,.12-.04.22-.1.32-.73,1.16-2.19,2.65-3.47,3.6-.14.1-.29.15-.43.15-.17,0-.35-.08-.49-.27-.1-.14-.15-.29-.15-.44,0-.19.08-.36.27-.48,1.22-.88,2.4-2.02,3.18-3.28.1-.15.29-.24.46-.24m-1.72,10.01c0-.7.05-1.43.19-2.23-.49.56-1.05,1.09-1.58,1.5-.12.08-.24.13-.36.13-.19,0-.38-.1-.53-.29-.08-.14-.14-.27-.14-.41,0-.17.09-.34.27-.49,1.51-1.19,2.81-2.58,3.76-4.22.14-.19.29-.29.49-.29.12,0,.24.03.37.1.2.14.32.31.32.49,0,.1-.03.22-.1.32-.36.66-.85,1.36-1.38,1.97v8.55c0,.32-.27.49-.66.49s-.66-.17-.66-.49v-5.15Z" style="fill:#db0a17;"/><path d="m.38,25.62h252.49V7.48m0-7.11H.38v18.14" style="fill:none; stroke:#db0a17; stroke-linecap:round; stroke-linejoin:round; stroke-width:.75px;"/></g></svg>