<?xml version="1.0" encoding="UTF-8"?><svg id="_レイヤー_2" xmlns="http://www.w3.org/2000/svg" viewBox="0 0 253.24 25.99"><g id="_レイヤー_1-2"><path d="m122.62,8.59s-.02.1-.03.17c-.47,1.37-1.07,2.66-1.66,3.68-.12.2-.29.32-.51.32-.09,0-.19-.02-.29-.07-.24-.1-.37-.3-.37-.51,0-.09.02-.19.07-.27.59-1.05,1.15-2.37,1.56-3.54.07-.22.25-.34.49-.34.08,0,.19.02.29.05.29.1.46.27.46.51m-8.03-.56c.22,0,.41.12.51.32.46.92,1.02,2.54,1.26,3.58.02.05.02.12.02.17,0,.27-.17.44-.44.53-.08.02-.17.03-.24.03-.27,0-.46-.15-.51-.39-.22-1.03-.85-2.61-1.24-3.49-.02-.07-.03-.14-.03-.19,0-.22.15-.41.42-.51.09-.03.17-.05.26-.05m-.31-1c-.3,0-.49-.24-.49-.59s.19-.61.49-.61h7.97c.31,0,.49.24.49.59s-.19.61-.49.61h-3.49v6.53h3.78c.31,0,.49.24.49.59s-.19.63-.49.63h-3.78v5.65c0,.32-.22.51-.64.51-.37,0-.61-.19-.61-.51v-5.65h-3.54c-.32,0-.49-.25-.49-.61s.17-.61.49-.61h3.54v-6.53h-3.22Zm-4.9,9.43c-.31,0-.46.1-.46.41v2.17c0,.32.15.41.46.41h1.86c.31,0,.46-.08.46-.41v-2.17c0-.31-.15-.41-.46-.41h-1.86Zm3.51,2.83c0,.86-.41,1.22-1.31,1.22h-2.56c-.88,0-1.29-.36-1.29-1.22v-2.63c0-.86.41-1.22,1.29-1.22h2.56c.9,0,1.31.36,1.31,1.22v2.63Zm-4.73-5.14c-.29,0-.42-.25-.42-.56s.13-.56.42-.56h4.36c.29,0,.44.25.44.56,0,.29-.15.56-.44.56h-4.36Zm0-2.44c-.29,0-.42-.25-.42-.56s.13-.56.42-.56h4.36c.27,0,.42.25.42.56,0,.29-.15.56-.42.56h-4.36Zm4.39-6.05c.29,0,.44.22.44.56s-.15.56-.44.56h-4.37c-.27,0-.44-.24-.44-.56,0-.34.17-.56.44-.56h4.37Zm.17,2.46c.29,0,.46.24.46.58s-.17.58-.46.58h-5.14c-.3,0-.46-.24-.46-.58s.15-.58.46-.58h5.14Z" style="fill:#db0a17;"/><path d="m143.56,19.12c.39,0,.56-.1.56-.49v-6.75c0-.39-.17-.49-.56-.49h-1.48v7.73h1.48Zm-2.68-7.73h-1.95v7.73h1.95v-7.73Zm0-3.97h-1.95v2.8h1.95v-2.8Zm-4.56,3.97c-.37,0-.54.1-.54.49v6.75c0,.39.17.49.54.49h1.41v-7.73h-1.41Zm-1.24-3.97c-.32,0-.49-.24-.49-.61s.17-.59.49-.59h10.36c.31,0,.48.22.48.58,0,.39-.17.63-.48.63h-3.36v2.8h1.8c1,0,1.49.41,1.49,1.42v7.24c0,1-.49,1.42-1.49,1.42h-7.87c-1,0-1.49-.42-1.49-1.42v-7.24c0-1.02.49-1.42,1.49-1.42h1.71v-2.8h-2.64Zm-3.43,6.1c0-.66.05-1.37.15-2.05-.29.61-.59,1.15-.95,1.59-.15.19-.32.29-.49.29-.14,0-.27-.05-.41-.15-.19-.12-.27-.29-.27-.46,0-.14.05-.27.14-.41,1.37-1.76,2.51-4.22,3.15-6.68.07-.29.25-.44.56-.44.07,0,.15.02.24.03.31.08.49.27.49.52,0,.05-.02.12-.03.19-.32,1.15-.76,2.31-1.29,3.46v11.05c0,.32-.26.47-.66.47-.37,0-.63-.15-.63-.47v-6.95Z" style="fill:#db0a17;"/><path d="m.38,25.62h252.49V7.48m0-7.11H.38v18.14" style="fill:none; stroke:#db0a17; stroke-linecap:round; stroke-linejoin:round; stroke-width:.75px;"/></g></svg>