<?xml version="1.0" encoding="UTF-8"?><svg id="_レイヤー_2" xmlns="http://www.w3.org/2000/svg" viewBox="0 0 253.03 25.99"><g id="_レイヤー_1-2"><path d="m110.97,10.45c.26,0,.46.13.56.39.71,1.79,1.24,3.84,1.61,5.85.02.05.02.12.02.17,0,.32-.22.56-.58.65-.07.02-.15.02-.22.02-.29,0-.53-.15-.6-.51-.37-1.97-.92-4.03-1.55-5.7-.03-.08-.05-.17-.05-.25,0-.25.17-.46.46-.54.12-.05.24-.07.34-.07m10.59-2.33c.3,0,.47.31.47.65s-.17.65-.47.65h-13.36c-.31,0-.48-.29-.48-.65s.17-.65.48-.65h5.86v-2.21c0-.32.31-.51.7-.51s.68.19.68.51v2.21h6.12Zm.58,10.61c.32,0,.49.31.49.66s-.17.65-.49.65h-14.48c-.31,0-.49-.29-.49-.65s.19-.66.49-.66h7.77c1.22-2.5,2.21-5.41,2.75-7.82.09-.31.34-.46.65-.46.08,0,.17.02.25.03.36.08.56.32.56.61,0,.07-.02.14-.03.19-.65,2.38-1.63,5.13-2.75,7.44h5.29Z" style="fill:#db0a17;"/><path d="m136.04,10.39c-.26.27-.51.53-.75.75-.09.07-.12.12-.12.17,0,.05.07.08.2.1.97.15,2.12.36,3.16.6.78-.39,1.48-.94,2.04-1.62h-4.54Zm7.72-4.08c.99,0,1.44.39,1.44,1.38v.71c0,.34-.27.51-.64.51s-.68-.17-.68-.51v-.56c0-.36-.17-.46-.53-.46h-10.88c-.36,0-.53.1-.53.46v.56c0,.34-.29.51-.68.51s-.65-.17-.65-.51v-.71c0-.99.48-1.38,1.45-1.38h5.12v-.82c0-.32.24-.51.66-.51s.63.19.63.51v.82h5.29Zm-1.77,4.08c-.53.78-1.21,1.43-1.99,1.96,1.38.34,2.74.75,4.06,1.22.22.07.36.29.36.54,0,.08-.02.17-.05.26-.1.26-.34.37-.58.37-.1,0-.19-.02-.29-.05-1.49-.61-3.13-1.14-4.84-1.58-.48.22-1,.43-1.55.6-1.65.51-3.66.83-5.83.93-.32,0-.6-.22-.61-.59v-.04c0-.36.24-.54.54-.56,2.06-.05,3.93-.27,5.39-.7.09-.04.19-.05.27-.08-.9-.19-1.82-.36-2.68-.49-.44-.08-.65-.27-.65-.53,0-.2.12-.43.36-.65.2-.19.41-.39.63-.61h-3.62c-.29,0-.46-.25-.46-.58s.17-.53.46-.53h4.62c.34-.41.64-.83.88-1.21.15-.27.31-.37.54-.37.08,0,.19.02.31.05.27.07.44.22.44.41,0,.07-.03.15-.08.24-.2.29-.42.58-.65.88h7.99c.29,0,.44.22.44.53,0,.32-.15.58-.44.58h-2.97Zm-11.27,6.22c-.29,0-.48-.22-.48-.56s.19-.56.48-.56h6.41v-.9c0-.29.25-.46.61-.46.39,0,.65.17.65.46v.9h6.75c.29,0,.48.22.48.56s-.19.56-.48.56h-5.76c1.72,1.26,3.91,2.21,5.91,2.74.27.07.43.29.43.54,0,.09-.02.19-.05.27-.08.3-.34.46-.61.46-.08,0-.15-.02-.24-.03-2.6-.7-4.86-2.11-6.53-3.64.07.31.1.68.1,1.05v2.58c0,.29-.26.48-.65.48-.36,0-.61-.19-.61-.48v-2.55c0-.36.03-.73.12-1.09-1.6,1.63-3.99,2.89-6.26,3.62-.1.03-.19.05-.27.05-.26,0-.46-.14-.56-.44-.03-.08-.05-.19-.05-.25,0-.27.17-.48.44-.56,2.02-.51,3.99-1.53,5.54-2.75h-5.37Z" style="fill:#db0a17;"/><path d="m.38,25.62h252.28V7.48m0-7.11H.38v18.14" style="fill:none; stroke:#db0a17; stroke-linecap:round; stroke-linejoin:round; stroke-width:.75px;"/></g></svg>