<?xml version="1.0" encoding="UTF-8"?><svg id="_レイヤー_2" xmlns="http://www.w3.org/2000/svg" viewBox="0 0 81.36 15.39"><g id="_レイヤー_1-2"><path d="m46.74,11.98c-2.36,0-4.29-1.93-4.29-4.29s1.81-4.29,4.29-4.29,4.29,1.99,4.29,4.29-1.86,4.29-4.29,4.29M46.74,0C42.5,0,39.05,3.45,39.05,7.7s3.45,7.69,7.69,7.69,7.69-3.45,7.69-7.69S50.99,0,46.74,0" style="fill:#e02625;"/><path d="m36.3,6.02h-3.56c-1.16,0-1.77.79-1.77,1.64s.61,1.65,1.77,1.65h2.55v.93c0,.38-.16.69-.47.92-.74.55-1.59.84-2.52.84-2.39,0-4.3-1.94-4.3-4.29s1.95-4.29,4.28-4.29c1.02,0,1.9.33,2.67.9.92.67,1.94.41,2.46-.3.5-.69.49-1.7-.43-2.41-1.29-1-2.93-1.59-4.69-1.59-4.25,0-7.7,3.45-7.7,7.69s3.44,7.69,7.7,7.69c2.02,0,3.79-.77,5.1-1.94.56-.5,1.03-1.26,1.03-2.33v-3.22c0-1.12-.69-1.88-2.1-1.88" style="fill:#e02625;"/><path d="m68.46,1.71c-.21-.86-.82-1.57-1.81-1.57-.89,0-1.55.63-1.83,1.48l-2.24,6.87-2.24-6.86c-.29-.86-.94-1.48-1.84-1.48-.99,0-1.6.7-1.81,1.56l-2.62,11.21c-.28,1.22.3,2.05,1.18,2.25.88.21,1.82-.24,2.1-1.46l1.45-6.73,1.98,6.26c.3.86.92,1.4,1.79,1.4s1.46-.51,1.79-1.4l1.98-6.28,1.47,6.75c.28,1.22,1.21,1.67,2.1,1.46.88-.21,1.46-1.03,1.18-2.25l-2.64-11.21Z" style="fill:#e02625;"/><path d="m1.75.14C.82.14,0,.88,0,2.13v11.1c0,1.26.82,2,1.75,2s1.75-.74,1.75-2V2.13C3.5.88,2.68.14,1.75.14" style="fill:#e02625;"/><path d="m20.21,1.36c-.38-.84-1-1.22-1.64-1.22-.64,0-1.28.37-1.66,1.22l-4.68,10.19s-.09.15-.18.15c-.08,0-.16-.05-.23-.11l-4-4,4.06-4.32c.92-.94.76-2.02.05-2.66-.7-.63-1.7-.68-2.53.2l-4.86,5.27c-.4.41-.68.9-.68,1.53s.31,1.2.72,1.59l5.21,5.17c.57.53,1.38.86,2.26.86,1.38,0,2.61-.8,3.13-1.91l3.37-7.5,3.61,8.17c.53,1.14,1.59,1.47,2.43,1.09.85-.39,1.29-1.31.77-2.45L20.21,1.36Z" style="fill:#e02625;"/><path d="m79.52,11.87h-4.37v-2.65h3.88c1.15,0,1.8-.72,1.8-1.58s-.65-1.58-1.8-1.58h-3.88v-2.56h4.09c1.17,0,1.83-.74,1.83-1.61s-.66-1.61-1.83-1.61h-5.71c-.15,0-.29.02-.43.05-.22.04-.44.12-.63.25-.41.26-.65.67-.72,1.09-.04.19-.08.39-.08.62v10.79c0,.24.04.46.1.67,0,.04.01.07.03.1.01.03.02.07.03.1.03.09.07.18.13.27,0,.02.02.04.04.06.03.05.07.1.11.14.27.35.64.57,1.07.63.13.03.27.04.41.04h5.95c1.18,0,1.84-.74,1.84-1.61s-.66-1.61-1.84-1.61" style="fill:#e02625;"/></g></svg>