<?xml version="1.0" encoding="UTF-8"?><svg id="_レイヤー_2" xmlns="http://www.w3.org/2000/svg" viewBox="0 0 252.75 25.99"><g id="_レイヤー_1-2"><path d="m121.93,15.51h-2.55v1.31h2.55v-1.31Zm0-.9v-.95c0-.29-.15-.37-.44-.37h-2.11v1.32h2.55Zm-1.82-5.37h-2.58v1.14h2.58v-1.14Zm0-2.01h-2.58v1.04h2.58v-1.04Zm-1.84,8.28h-2.41v1.31h2.41v-1.31Zm0-2.23h-1.97c-.29,0-.44.08-.44.37v.95h2.41v-1.32Zm3.4-.95c.93,0,1.36.36,1.36,1.16v3.33h.6c.29,0,.44.2.44.51s-.15.53-.44.53h-.6v1.43c0,.95-.53,1.33-1.75,1.33-.53,0-1.09-.02-1.55-.1-.25-.05-.43-.24-.43-.53,0-.03,0-.08.02-.12.05-.31.25-.44.48-.44.03,0,.07,0,.1.02.37.07.83.12,1.22.12.66,0,.8-.1.8-.51v-1.19h-6.07v2.48c0,.29-.2.44-.56.44s-.58-.15-.58-.44v-2.48h-.51c-.29,0-.46-.22-.46-.53s.17-.51.46-.51h.51v-3.33c0-.8.42-1.16,1.36-1.16h2.19v-.97h-3.99c-.27,0-.43-.22-.43-.49,0-.31.15-.49.43-.49h2.12v-1.14h-1.6c-.24,0-.39-.22-.39-.46,0-.27.15-.51.39-.51h1.6v-1.04h-1.97c-.25,0-.39-.24-.39-.51s.14-.48.39-.48h1.97v-.8c0-.3.22-.44.56-.44.37,0,.56.14.56.44v.8h2.58v-.82c0-.29.2-.44.56-.44s.56.15.56.44v.82h2.14c.24,0,.41.2.41.48,0,.29-.17.51-.41.51h-2.14v1.04h1.72c.24,0,.39.24.39.51,0,.26-.15.46-.39.46h-1.72v1.14h2.4c.27,0,.43.19.43.49,0,.27-.15.49-.43.49h-4.25v.97h2.29Zm-11.71,6.6c0,.31.17.42.46.42h1.36c.29,0,.46-.12.46-.42v-2.28c0-.31-.17-.39-.46-.39h-1.36c-.29,0-.46.09-.46.39v2.28Zm3.43.22c0,.9-.41,1.26-1.31,1.26h-1.97c-.9,0-1.31-.36-1.31-1.26v-2.69c0-.87.41-1.21,1.31-1.21h1.97c.9,0,1.31.34,1.31,1.21v2.69Zm-.48-13.72c.27,0,.44.24.44.58s-.17.54-.44.54h-3.71c-.27,0-.44-.22-.44-.54s.17-.58.44-.58h3.71Zm-3.72,6.1c-.29,0-.44-.26-.44-.56s.15-.56.44-.56h3.71c.27,0,.43.25.43.56,0,.29-.15.56-.43.56h-3.71Zm-.02,2.45c-.29,0-.44-.27-.44-.56,0-.3.15-.56.44-.56h3.72c.29,0,.44.26.44.54,0,.31-.15.58-.44.58h-3.72Zm4.06-6.08c.31,0,.46.22.46.58,0,.32-.15.58-.46.58h-4.47c-.31,0-.46-.25-.46-.58,0-.34.15-.58.46-.58h4.47Z" style="fill:#db0a17;"/><path d="m144.79,13.08c.17.14.26.29.26.44,0,.1-.03.22-.14.32-.12.15-.27.22-.44.22-.12,0-.26-.05-.37-.14-.43-.34-1.12-.83-1.58-1.09-.17-.1-.27-.25-.27-.42,0-.1.03-.22.12-.32.12-.15.27-.22.43-.22.1,0,.2.03.32.09.51.25,1.27.78,1.68,1.12m-12.24-5.58c-.27,0-.42-.24-.42-.51,0-.29.15-.51.42-.51h3.54c-.22-.34-.49-.71-.68-.9-.07-.08-.1-.17-.1-.27,0-.17.12-.32.31-.41.12-.05.24-.08.36-.08.2,0,.39.08.53.25.29.32.65.83,1,1.41h3.04c.36-.44.73-.97.9-1.33.12-.24.31-.34.53-.34.1,0,.19.02.29.05.27.07.44.24.44.44,0,.07-.02.15-.07.22-.14.26-.43.63-.7.95h3.65c.27,0,.44.2.44.51,0,.27-.17.51-.44.51h-6.05v1.02h5.13c.24,0,.39.22.39.51,0,.24-.15.51-.39.51h-5.13v1.07h6.87c.27,0,.42.19.42.49,0,.27-.15.53-.42.53h-14.62c-.27,0-.43-.25-.43-.53s.15-.49.43-.49h6.6v-1.07h-4.91c-.25,0-.39-.27-.39-.51,0-.27.14-.51.39-.51h4.91v-1.02h-5.83Zm7.46,6.83c-.12-.6-.19-1.22-.24-1.87v-.03c0-.31.24-.48.6-.49h.05c.34,0,.56.2.58.49.03.66.12,1.29.26,1.89l5.2-.03c.27.02.44.2.44.51s-.17.49-.44.54l-4.93.03c.19.56.41,1.09.7,1.58.05.08.08.15.14.22.56-.42,1.07-.88,1.48-1.38.1-.12.27-.19.43-.19.14,0,.27.05.39.14.13.1.2.25.2.41,0,.14-.05.26-.14.36-.46.54-1.04,1.07-1.68,1.56.53.61,1.16,1.07,1.82,1.34.1.05.2.07.29.07.17,0,.32-.08.44-.27.17-.27.29-.8.34-1.24.03-.32.22-.46.48-.46.03,0,.07,0,.12.02.32.03.47.24.47.53v.08c-.08.75-.34,1.51-.64,1.96-.27.39-.68.59-1.16.59-.31,0-.63-.07-.97-.24-.76-.34-1.53-.92-2.18-1.7-1.16.73-2.46,1.34-3.69,1.68-.07.02-.15.03-.22.03-.27,0-.48-.14-.56-.39-.02-.08-.03-.15-.03-.22,0-.27.17-.46.46-.54,1.17-.32,2.33-.83,3.37-1.46-.09-.14-.15-.27-.24-.41-.36-.63-.65-1.33-.87-2.06l-3.99.03v1.21c.87-.12,1.66-.27,2.29-.41.07-.02.12-.02.19-.02.24,0,.37.15.43.39.02.05.02.12.02.17,0,.24-.14.42-.39.48-.7.17-1.58.34-2.53.49v1.7c0,.92-.6,1.31-1.85,1.31-.46,0-.95-.05-1.36-.15-.27-.07-.43-.25-.43-.51,0-.07.02-.14.02-.2.09-.29.29-.42.51-.42.05,0,.1,0,.14.02.31.09.68.14,1.12.14.49,0,.7-.08.7-.48v-1.22c-1.05.14-2.12.24-3.08.31h-.03c-.26,0-.48-.24-.49-.54v-.03c0-.31.19-.53.46-.54.97-.05,2.07-.15,3.14-.29v-1.38l-3.47.03c-.29-.05-.44-.24-.44-.54s.15-.49.44-.51l3.47-.03v-.87c-.83.12-1.7.2-2.5.25h-.05c-.32,0-.46-.17-.49-.42v-.08c0-.24.15-.49.44-.51,1.87-.1,3.94-.41,5.25-.82.09-.03.17-.05.24-.05.2,0,.37.1.48.34.02.07.03.14.03.2,0,.2-.12.39-.41.48-.54.17-1.17.31-1.84.42v1.05l3.74-.03Z" style="fill:#db0a17;"/><path d="m.38,25.62h252V7.48m0-7.11H.38v18.14" style="fill:none; stroke:#db0a17; stroke-linecap:round; stroke-linejoin:round; stroke-width:.75px;"/></g></svg>