<?xml version="1.0" encoding="UTF-8"?><svg id="_レイヤー_2" xmlns="http://www.w3.org/2000/svg" viewBox="0 0 251.82 43.59"><g id="_レイヤー_1-2"><path d="m22.92,39.93c.04.6.06,1.17.06,1.7,0,.08-.02.13-.06.17h.34c.19-.04.32-.07.4-.11.08-.19.09-.51.06-.96,0-.11-.02-.36-.06-.74v-.11c-.23.04-.47.06-.74.06m-.06-1.65c0,.27.02.51.06.74.23,0,.45-.02.68-.06.04-.08.06-.21.06-.4.08-.49.11-.79.11-.91.04-.34.04-.62,0-.85v-.34h-.06c-.08,0-.23-.02-.45-.06-.15-.04-.32-.06-.51-.06l.06,1.02h.11c.3,0,.45.15.45.45s-.15.45-.45.45h-.06Zm-.91,0h-.62v.23l.06.62c.23,0,.43-.02.62-.06-.04-.23-.06-.49-.06-.79m-.06-.91l-.06-1.08c-.08,0-.17-.02-.28-.06h-.45c.04.34.08.72.11,1.14h.68Zm-1.59,0c-.04-.45-.08-.83-.11-1.14-.23-.04-.47-.06-.74-.06v1.13c.26,0,.55.02.85.06m1.7,2.61c-.15.04-.32.06-.51.06.04.45.1.87.17,1.25.04.3-.1.47-.4.51-.3.04-.47-.09-.51-.4-.08-.38-.13-.79-.17-1.25l-1.19.11c.04.6.08,1.15.11,1.65v.11c.87-.04,1.61-.08,2.21-.11h.45c-.08-.08-.11-.17-.11-.28,0-.49-.02-1.04-.06-1.65m-1.59-1.7c-.34-.04-.68-.06-1.02-.06v1.13l1.08-.11-.06-.62v-.34Zm-1.87,2.1c-.3.04-.59.06-.85.06.04.57.1,1.12.17,1.65.26,0,.51-.02.74-.06-.04-.53-.06-1.08-.06-1.65m-.06-2.15c-.3,0-.6-.02-.91-.06,0,.49.02.94.06,1.36.26,0,.55-.02.85-.06v-1.25Zm.06-.91v-1.13l-.96-.06v1.13c.3.04.62.06.96.06m-1.76,3.23h-.91v1.53h1.08c-.08-.49-.13-1-.17-1.53m-.11-2.38c-.3,0-.59-.02-.85-.06v1.53h.91c-.04-.45-.06-.95-.06-1.47m0-.91v-1.13h-.96c0,.34.02.7.06,1.08.3.04.6.06.91.06m-1.76.85l-.62-.06v1.59h.62v-1.53Zm.06,2.44c-.26,0-.53-.02-.79-.06v.11c-.04.68-.06,1.17-.06,1.47h.85v-1.53Zm-.11-3.34c-.04-.38-.06-.76-.06-1.14h-.68c.08.34.13.7.17,1.08l.57.06Zm-1.53,3.23c-.38,0-.76-.02-1.13-.06.04.6.11,1.14.23,1.59v.11h.79c0-.34.02-.85.06-1.53l.06-.11Zm.06-2.44c-.45,0-.91-.02-1.36-.06,0,.15.02.32.06.51v.34c0,.11,0,.24.03.37.02.13.03.22.03.25.45.08.87.11,1.25.11v-1.53Zm0-.91c-.04-.42-.1-.77-.17-1.08-.57,0-1.06-.02-1.47-.06.07.34.15.7.23,1.08.45,0,.93.02,1.42.06m-2.16,3.18l-1.42-.17v1.93h1.7c-.11-.49-.21-1.08-.28-1.76m-.11-2.38l-1.42-.11c.04.42.07.89.11,1.42l1.42.17c-.04-.45-.06-.74-.06-.85-.04-.23-.06-.43-.06-.62m-.11-.91c-.04-.42-.11-.77-.23-1.08-.6-.08-1.1-.15-1.47-.23.08.34.15.72.23,1.14.49.08.98.13,1.47.17m-2.1,3c-.61-.04-1.13-.08-1.59-.11.04.79.06,1.51.06,2.15h1.53v-2.04Zm-.17-2.33c-.57-.04-1.12-.09-1.64-.17v.06c.04.53.07,1,.11,1.42l1.64.11c0-.49-.04-.96-.11-1.42m-.11-.91c-.11-.64-.28-1.21-.51-1.7-.08-.11-.09-.23-.06-.34v-.06c-.08.11-.19.17-.34.17h-.96l.23,1.76c.49.04,1.04.09,1.65.17m-2.04-9.41v1.08h1.08c.11,0,.21.04.28.11l-.06-.96h-.06c-.38-.08-.79-.15-1.25-.23m0-.91c.45.08.85.13,1.19.17l-.06-1.36c-.11.11-.25.17-.4.17h-.74v1.02Zm.06,7.49h1.08c.08,0,.13.02.17.06-.04-.45-.04-1.02,0-1.7-.08.04-.15.06-.23.06h-1.13c0,.26.02.53.06.79.04.26.06.53.06.79m-.11-2.5h1.13c.11,0,.21.02.28.06.08-1.14.09-1.87.06-2.21v-.11c-.08.11-.19.17-.34.17h-1.13c-.04.87-.04,1.57,0,2.1m-.06-8.56c.04.57.06,1.12.06,1.65h.79c.11,0,.23.06.34.17l-.11-1.87s-.1.06-.17.06h-.91Zm-.11-2.33l.06,1.42h1.08c-.04-.49-.06-.98-.06-1.47-.08.04-.15.06-.23.06h-.85Zm-.11-1.81l.06.91h.91c.08,0,.13.02.17.06l-.11-2.83c-.3-.11-.68-.21-1.13-.28l.06.85h.06c.34.11.58.23.74.34.08.08.11.15.11.23.07.15.06.3-.06.45-.08.11-.19.19-.34.23-.11.04-.26.06-.45.06m-.23-5.22c0,.64.02,1.36.06,2.15.45.04.85.11,1.19.23,0-.75-.02-1.53-.06-2.33l-1.19-.06Zm-.11-2.04c0,.38.02.76.06,1.13l1.25.06v-1.13c-.42,0-.85-.02-1.31-.06m0-2.61v1.7c.42.04.85.06,1.31.06,0-.23.02-.7.06-1.42h-.17l-1.19-.34Zm-.11-2.84c.04.57.06,1.21.06,1.93l1.47.34v-1.36c.04-.3.06-.58.06-.85-.57,0-1.1-.02-1.59-.06m-.11-.91c.53.04,1.1.06,1.7.06.04-.19.06-.36.06-.51v-.74c-.19,0-.42-.02-.68-.06-.38-.04-.83-.08-1.36-.11.11.42.21.87.28,1.36m.45,32.27c-.72-.11-1.36-.23-1.93-.34v1.93h2.1c-.04-.38-.08-.81-.11-1.3l-.06-.28Zm-.28-2.55c-.53-.04-.95-.06-1.25-.06h-.4v1.36c.53.11,1.13.23,1.81.34l-.17-1.64Zm-.23-2.55h-1.48c0,.53.02,1.06.06,1.59h.45c.26,0,.62.02,1.08.06,0-.26-.02-.49-.06-.68-.04-.3-.06-.62-.06-.96m0-3.01c-.15,0-.4,0-.74-.03-.34-.02-.59-.03-.74-.03v2.15h1.48c-.04-.53-.04-1.21,0-2.04v-.06Zm.06-1.99c-.19,0-.42-.02-.68-.06l-.91-.06.06,1.13c.15,0,.4.01.74.03.34.02.6.03.79.03v-1.08Zm0-1.93c-.45-.04-.98-.09-1.59-.17v1.08l.96.06c.23.04.43.06.62.06v-1.02Zm-.11-2.55c-.19,0-.45,0-.79-.03-.34-.02-.59-.03-.74-.03l.06,1.53c.6.08,1.11.13,1.53.17,0-.53-.02-1.08-.06-1.65m.79,17.07h-2.15v1.76c0,.15-.08.28-.23.4h.79c.53.04,1.1.06,1.7.06,0-.68-.04-1.42-.11-2.21m-.91-19.34h-1.47l.06,1.31c.15,0,.39,0,.71.03.32.02.58.03.77.03l-.06-1.36Zm-.11-1.76h-.17c-.26,0-.66-.02-1.19-.06v.91h1.42l-.06-.85Zm-.11-2.33c-.15-.04-.32-.06-.51-.06h-.79v1.42c.57.04.98.06,1.25.06h.11l-.06-1.42Zm-.17-3.01l-1.25-.11.06,2.15h.91c.15,0,.28.02.4.06-.04-.76-.08-1.45-.11-2.1m-.06-2.04c-.26-.04-.53-.06-.79-.06l-.45-.11.06,1.19,1.25.06c-.04-.38-.06-.74-.06-1.08m0-2.72c-.53-.15-1.02-.26-1.48-.34.11.76.19,1.42.23,1.98.19.04.39.07.6.08.21.02.42.05.65.09v-1.82Zm-.11-2.67c-.61-.04-1.17-.09-1.7-.17.04.23.07.53.11.91l.11.62,1.53.34c0-.64-.02-1.21-.06-1.7m-.11-.91c-.08-.53-.17-1-.28-1.42l-1.53-.06c.04.38.08.79.11,1.25.53.08,1.1.15,1.7.23m-1.59,22c-.27-.04-.51-.06-.74-.06v1.19h.79l-.06-1.13Zm0-2.04l-.74-.06v1.14c.23,0,.47.02.74.06v-1.13Zm-.06-2.38h-.74c.04.49.06.96.06,1.42l.74.06-.06-1.48Zm-.06-2.16c-.26.04-.53.06-.79.06.04.42.06.81.06,1.19h.79l-.06-1.25Zm.17,8.62h-.85l-.11,1.81c0,.08-.02.19-.06.34h1.02v-2.16Zm-.17-10.44h-.91l.06.96c.26,0,.55-.02.85-.06v-.91Zm-.06-2.32h-1.08l.06.4.06,1.02h.96v-1.42Zm.23,15.82h-1.14l-.23,1.76c.41-.04.89-.07,1.42-.11-.04-.53-.06-1.08-.06-1.64m-.34-18.94l-1.25-.11.23,2.33h1.08l-.06-2.21Zm-.06-2.16c-.57-.15-1.02-.3-1.36-.45l.11,1.59,1.3.11-.06-1.25Zm.45,23.65c-.57.04-1.08.08-1.53.11-.11.64-.21,1.23-.28,1.76-.08.87-.15,1.63-.23,2.27.57.08,1.25.1,2.04.06v-2.1c-.34-.07-.64-.15-.91-.23-.3-.11-.41-.31-.31-.59.09-.28.27-.39.54-.31l.68.23v-1.19Zm-.68-26.66c-.49-.07-.94-.15-1.36-.23.04.53.08,1.1.11,1.7.04,0,.08.02.11.06.27.19.72.36,1.36.51-.04-.57-.11-1.25-.23-2.04m.68,31.76c-.79.04-1.49.02-2.1-.06v.17c-.04.49-.04.87,0,1.14l.06.4c.11.11.49.23,1.13.34.3.04.66.08,1.08.11-.11-.07-.17-.19-.17-.34v-1.76ZM2.28,5.67c-.42-.08-.79-.15-1.13-.23,0,.49.02,1,.06,1.53.42.04.83.11,1.25.23v-.34c-.08-.49-.13-.89-.17-1.19m-.11-.96l-.11-1.13c-.38-.04-.7-.06-.96-.06v.96h.11c.3.11.62.19.96.23M.29,6.92c-.08-1.36-.11-2.65-.11-3.86v-.28c0-.3.15-.45.45-.45.23,0,.36.1.4.28.3,0,.7.02,1.19.06.07-.08.17-.11.28-.11.15,0,.26.06.34.17l1.3.06c-.11-.26-.04-.45.23-.57.26-.15.45-.08.57.23.08.11.13.25.17.4.68.04,1.25.08,1.7.11.34.04.6.06.79.06.08,0,.15.02.23.06h.17c.08.04.15.11.23.23.04.04.06.09.06.17v.11c0,.08.02.17.06.28v.79c-.04.53-.08,1.31-.11,2.33,0,.42,0,.94-.03,1.59-.02.64-.04,1.14-.06,1.5-.02.36-.03.6-.03.71v1.93c.23.08.34.23.34.45s-.11.38-.34.45c.04.91.06,1.8.06,2.67.07.04.15.1.23.17.23.15.25.36.06.62-.04.08-.11.13-.23.17.11,3.97.34,7.94.68,11.91.04.27,0,1.27-.11,3.01-.08,1.17,0,2.01.23,2.5h.06c.11.04.26.08.45.11.26.08.59.13.96.17.04-.19.13-.3.28-.34.26-.15.45-.07.57.23l.11.23c.42,0,.91.02,1.47.06.04-.11.11-.21.23-.28.3-.15.51-.09.62.17.04.08.06.13.06.17h.91c.08-.19.21-.28.4-.28.26,0,.43.11.51.34h.74l2.15.06c.08-.23.23-.34.45-.34s.38.11.45.34c.87.04,1.57.06,2.1.06.79.04,1.4.09,1.82.17.26.04.47.08.62.11.23.08.4.19.51.34.11.19.17.47.17.85.04.23.04.53,0,.91-.04.15-.08.47-.11.96,0,.11-.02.21-.06.28.3,0,.45.15.45.45,0,.27-.13.42-.4.45.04.38.06.64.06.79.04.72-.02,1.23-.17,1.53-.08.15-.23.27-.45.34-.15.04-.34.08-.57.11-.38.08-.93.13-1.65.17-1.13.08-2.7.13-4.71.17h-3.46c-.95,0-1.9,0-2.86-.03-.96-.02-1.52-.03-1.67-.03-.11,0-.46,0-1.05.03-.59.02-1.1.03-1.53.03s-1.01-.02-1.73-.06c-1.02-.04-1.85-.1-2.5-.17-.87-.15-1.44-.38-1.7-.68-.15-.15-.25-.43-.28-.85-.04-.34-.04-.77,0-1.3v-.68s.02-.09.06-.17c.04-.72.13-1.57.28-2.55.04-.57.25-2.1.62-4.59-.04-.04-.06-.09-.06-.17,0-.11.04-.21.11-.28.04-.27.06-.47.06-.62.3-3.25.25-7.39-.17-12.42v-.11l-.11-1.42-.06-.51c-.26-.04-.4-.19-.4-.45,0-.23.11-.38.34-.46l-.23-2.5c-.11-.07-.17-.21-.17-.4,0-.07.04-.15.11-.23-.15-1.81-.26-3.34-.34-4.59-.26-.08-.38-.25-.34-.51.04-.19.13-.3.28-.34" style="fill:#db0a17;"/><path d="m57.52,39.81c.15.53.28,1.04.4,1.53h.06c.04-.15.04-.36,0-.62,0-.27-.02-.57-.06-.91h-.4Zm-.17-1.02h.34c-.15-.53-.3-1-.45-1.42-.11-.26-.21-.47-.28-.62.11.72.25,1.4.4,2.04m-.96-33.35v.51c.04.76.07,1.3.11,1.64.26-.42.47-.89.62-1.42.08-.3.11-.58.11-.85-.3.04-.59.08-.85.11m-.11-1.02c.26-.04.51-.08.74-.11h.17c-.04-.26-.13-.47-.29-.62-.15-.19-.4-.3-.74-.34.04.34.08.7.11,1.08m-.74,16.79c.04.64.06,1.23.06,1.76.19-.15.34-.32.45-.51.45-.76.64-1.38.57-1.87v.11c-.08.27-.23.44-.45.51-.11.04-.25.04-.4,0h-.23Zm.96,18.66h-1.13c.07.3.13.55.17.74.15.11.23.27.23.45v.28s-.02.08-.06.11h.4c.3,0,.57-.02.79-.06-.15-.49-.28-1-.4-1.53m-.85-20.08h.11l.23.06c.15.08.28.14.37.2.09.06.16.14.2.25-.11-.26-.32-.49-.62-.68-.15-.11-.34-.21-.57-.28l.06.4c.08,0,.15.02.23.06m.23,16.96l-1.02.23.34,1.93c.38-.04.74-.06,1.08-.06-.11-.68-.25-1.38-.4-2.1m-.51-31.13c-.34.04-.7.08-1.08.11.04.6.06,1.44.06,2.5,0,.08-.02.15-.06.23.23,0,.38.02.45.06.38.04.66.02.85-.06-.08-.53-.15-1.34-.23-2.44v-.4Zm-.06-1.02c-.08-.49-.15-.95-.23-1.36-.26-.04-.47-.06-.62-.06-.23-.04-.43-.06-.62-.06.15.45.26,1,.34,1.65.38-.08.76-.13,1.13-.17m-.96,35.33h-.74c.08.57.17,1.06.28,1.47v.11h.85s-.06-.08-.06-.11c-.04-.08-.06-.15-.06-.23-.08-.26-.17-.68-.28-1.25m-.96-18.43c.11.91.17,1.65.17,2.21v.06c.42-.08.77-.17,1.08-.28-.04-.07-.06-.17-.06-.28,0-.57-.02-1.17-.06-1.81l-1.13.11Zm.45,15.71c-.23.08-.45.13-.68.17.08.3.15.66.23,1.08l.06.45h.68l-.28-1.7Zm-.57-16.73l1.13-.11c0-.38-.04-.81-.11-1.31-.34-.08-.74-.13-1.19-.17.04.42.09.95.17,1.59m-.29,15.88l.51-.11h-.57l.06.11Zm.29-30.51c-.61.08-1.25.13-1.93.17.04.94.09,1.68.17,2.21v.17c.87-.04,1.44-.06,1.7-.06h.11v-.11c0-1.02-.02-1.81-.06-2.38m-.68,34.08h-1.59c.08.64.17,1.19.28,1.64h1.59l-.28-1.64Zm.57-35.1c-.08-.72-.23-1.32-.45-1.81h-1.7c.11.57.19,1.23.23,1.98.68-.04,1.32-.09,1.93-.17m-2.27,16.84c.04.68.09,1.32.17,1.93,0,.11-.04.23-.11.34.6,0,1.13-.02,1.59-.06v-.17c0-.53-.06-1.23-.17-2.1-.45.04-.94.06-1.47.06m1.3,15.88c-.45.04-.91.1-1.36.17.04.23.08.59.11,1.08v.11h1.47l-.06-.28c-.08-.42-.13-.77-.17-1.08m-1.36-16.9c.49,0,.96-.02,1.42-.06-.08-.72-.13-1.31-.17-1.76h-1.31c0,.64.02,1.25.06,1.81m1.13,15.88l-.06-.23h-1.25c.04.11.06.25.06.4.42-.04.83-.09,1.25-.17m-2.78-14.8c.08.76.11,1.42.11,1.98,0,.08-.02.15-.06.23h.91c-.08-.08-.11-.15-.11-.23-.08-.64-.13-1.3-.17-1.98h-.68Zm1.13-15.65c-.38.04-.76.06-1.13.06.08.76.13,1.44.17,2.04v.23h1.13v-.06c-.08-.53-.13-1.29-.17-2.27m-.34,33.86c-.3,0-.62-.02-.96-.06.08.68.15,1.27.23,1.76l1.02-.06c-.11-.45-.21-1-.28-1.64m-.91-19.23h.74c-.04-.57-.06-1.19-.06-1.87-.26.04-.55.06-.85.06,0,.42.06,1.02.17,1.81m1.19-15.65c-.08-.79-.17-1.46-.28-1.99-.34,0-.72.02-1.13.06l.23,1.98c.42,0,.81-.02,1.19-.06m-.45,32.78c-.34.04-.68.06-1.02.06l.06.85.06.11c.38.04.72.06,1.02.06-.04-.49-.08-.85-.11-1.08m-.11-1.02c0-.15-.02-.3-.06-.45h-1.08c0,.19.02.38.06.57.38-.04.74-.08,1.08-.11m-2.1-15.08c.08.6.11,1.17.11,1.7,0,.19-.1.34-.28.45h.4c.15,0,.32.02.51.06-.04-.08-.06-.15-.06-.23,0-.53-.04-1.19-.11-1.98h-.57Zm-.17-1.02h.62c-.11-.72-.17-1.29-.17-1.7-.27,0-.55.02-.85.06.15.53.28,1.08.4,1.65m.74-14.52c-.38,0-.79.02-1.25.06.15.83.23,1.55.23,2.15h1.25s-.06-.07-.06-.11c-.04-.64-.1-1.34-.17-2.1m-.11-1.02l-.23-1.98c-.3.04-.77.08-1.42.11.04.3.15.95.34,1.93.49,0,.93-.02,1.31-.06m-.06,34.71l-1.76-.06c.08.79.11,1.42.11,1.87.64-.04,1.26-.06,1.87-.06-.08-.45-.15-1.04-.23-1.76m-.23-1.87c-.53,0-1.08.02-1.65.06.04.23.06.47.06.74l1.7.06-.11-.85Zm-.17-1.02c-.04-.23-.08-.43-.11-.62h-1.3c-.04.23-.06.45-.06.68.49,0,.98-.02,1.47-.06m-.68-13.16c-.15-.08-.23-.21-.23-.4,0-.53-.04-1.1-.11-1.7-.3.04-.62.06-.96.06.08.57.15,1.02.23,1.36.08.34-.06.55-.4.62h-.06c.42,0,.93.02,1.53.06m-1.42-3.01c.3-.04.6-.06.91-.06-.11-.57-.25-1.1-.4-1.59l-.57.06h-.23l.28,1.59Zm-.28,19h-.79c.04.64.06,1.25.06,1.81v.06h.85c0-.45-.04-1.08-.11-1.87m.68-33.52h-1.48c.04.34.08.66.11.96.19.08.32.19.4.34.07.3-.02.51-.28.62v.28c.45-.04.95-.06,1.47-.06,0-.6-.08-1.32-.23-2.15m-1.59,15.6l.28,1.42c.04.15,0,.3-.11.45h.68c-.19-.04-.3-.17-.34-.4-.08-.42-.15-.91-.23-1.48h-.28Zm.79,16.16c-.26.04-.55.06-.85.06.04.23.06.45.06.68h.85c0-.26-.02-.51-.06-.74m0-1.02c0-.23.02-.45.06-.68-.38-.04-.74-.06-1.08-.06l.06.79c.34,0,.66-.02.96-.06m-.96-16.16h.34c-.08-.6-.15-1.11-.23-1.53l-.34.06.23,1.48Zm1.59-15.6c-.15-.87-.26-1.49-.34-1.87-.57.04-1.08.08-1.53.11.04.04.1.28.2.74.09.45.16.79.2,1.02h1.47Zm-2.04,12.99v.06l.28-.06h-.28Zm-.06-9.75l-.17.06h.17v-.06Zm-.23,31.3h-1.13c.08.6.13,1.15.17,1.65,0,.08-.02.15-.06.23h1.08v-.06c0-.57-.02-1.17-.06-1.81m-.17-1.7c-.38,0-.78-.02-1.19-.06l.11.74h1.14c0-.23-.02-.45-.06-.68m-.57-19.74l-.68.06c.08.04.32.04.74,0l-.06-.06Zm-.85,3.8c.08.6.11,1.13.11,1.59h.51c.34-.04.75-.06,1.25-.06-.04-.04-.08-.09-.11-.17l-.28-1.53-1.47.17Zm1.3,14.92l-.11-.91h-.11c-.42-.08-.79-.15-1.13-.23l.17,1.08c.42.04.81.06,1.19.06m-1.47-15.94l1.47-.17-.23-1.48c-.57.08-.95.09-1.13.06-.15-.04-.27-.06-.34-.06l.17,1.36.06.28Zm1.76-14.8c-.72.04-1.38.06-1.99.06.04.94.06,1.44.06,1.47.72-.08,1.42-.21,2.1-.4-.04-.34-.09-.72-.17-1.13m-.17-1.02l-.4-1.76c-.45,0-.93.02-1.42.06v1.76c.53,0,1.14-.02,1.82-.06m-2.21,32.72c-.61,0-1.31-.02-2.1-.06v.79h2.21l-.11-.74Zm-.11-1.02c-.08-.53-.15-.98-.23-1.36-.72-.3-1.25-.68-1.59-1.13-.04-.07-.08-.13-.11-.17h-.11c.04.94.06,1.81.06,2.61.76.04,1.42.06,1.99.06m-2.04-25.63v.68l.11-.68h-.11Zm1.59-2.32c-.49.04-1.02.06-1.59.06v1.25c.19,0,.38.02.57.06.26-.49.64-.89,1.13-1.19-.04-.08-.08-.13-.11-.17m-1.64,15.43v.4l.34-.34c-.11-.04-.23-.06-.34-.06m1.98-2.21h-.23c-.57.04-1.17.08-1.81.11v1.08c.53.04,1.02.1,1.47.17.15.04.26.13.34.28.11,0,.23-.02.34-.06v-.06c0-.45-.04-.96-.11-1.53m-.17-1.02v-.28c-.15-.76-.25-1.34-.28-1.76-.42-.11-.76-.26-1.02-.45l-.57.06v2.55c.6-.04,1.17-.08,1.7-.11h.17Zm-.23-14.8c-.19.04-.36.06-.51.06-.34.04-.72.06-1.13.06.04.49.06,1,.06,1.53.57,0,1.11-.02,1.64-.06,0-.15-.02-.68-.06-1.59m0-1.02v-1.81c-.61,0-1.27-.02-1.99-.06.11.64.19,1.3.23,1.98.42,0,.79-.02,1.13-.06.23,0,.43-.02.62-.06m-2.61,8.28c-.3.08-.64.13-1.02.17v1.48c.38-.08.72-.13,1.02-.17v-1.48Zm-.06,2.5c-.26.08-.59.15-.96.23-.04.49-.06,1.04-.06,1.64l1.02-.17v-1.7Zm.11-4.82c-.34.04-.72.06-1.14.06.04.45.06.93.06,1.42.38-.08.72-.13,1.02-.17.04-.49.06-.92.06-1.3m0-2.21h-1.25c.04.42.06.85.06,1.31.45-.04.85-.08,1.19-.11v-1.19Zm.06,28.81l-1.36-.06v.96c.45-.04.91-.06,1.36-.06v-.85Zm-.17-19.05l-1.08.17c0,.6-.04,1.34-.11,2.21.45,0,.85.02,1.19.06v-2.44Zm.11,15.65c-.45.08-.93.13-1.42.17.04,1.02.07,1.74.11,2.16l1.36.06c0-.75-.02-1.55-.06-2.38m-.11-12.19c-.34-.04-.76-.06-1.25-.06l-.06,1.25c.45-.08.89-.11,1.3-.11v-1.08Zm3.52,17.41h-2.33v.85c0,.34-.17.51-.51.51s-.51-.17-.51-.51v-.79c-.45,0-.89.02-1.3.06v1.59c0,.19-.08.32-.23.4,1.89-.08,3.59-.13,5.1-.17-.04-.08-.06-.13-.06-.17-.04-.53-.1-1.12-.17-1.76m-3.4-8.28c-.49.19-.99.34-1.47.45,0,.42.02.87.06,1.36v.4c.45-.04.93-.11,1.42-.23v-1.98Zm-.06-6.18v-.85c-.45,0-.93.04-1.42.11v.79c.53-.04,1-.06,1.42-.06m0,3.63c-.45.08-.95.15-1.47.23v1.7c.53-.11,1.02-.25,1.47-.4,0-.04.02-.06.06-.06l-.06-1.47Zm0-2.61c-.45,0-.95.02-1.47.06v1.76c.53-.07,1.02-.15,1.47-.23v-1.59Zm-.06-19.79h-1.53l.28,1.59h1.31c0-.57-.02-1.1-.06-1.59m-.11-1.02c-.04-.72-.11-1.4-.23-2.04h-.4c-.34,0-.74-.02-1.19-.06.04.57.13,1.27.28,2.1h1.53Zm-2.27,26.6l-.28.06c.04.53.04,1.1,0,1.7h.34v-.51c-.04-.45-.06-.87-.06-1.25m-.06-2.89h-.23v1.87h.23v-1.87Zm.23,8.68h-.51v1.08c.19,0,.36-.02.51-.06v-1.02Zm-.11-3.01h-.34c0,.49-.02,1.15-.06,1.99h.51c-.04-.42-.08-1.08-.11-1.99m.17,5.05c-.19.04-.4.06-.62.06v1.98l.91-.06c-.19-.11-.28-.26-.28-.45v-1.53Zm-.28-13.44h-.34l-.06.06.11,1.65h.28v-1.7Zm.06-1.81l-.57.11.06.74.51-.06v-.79Zm.11-2.44h-.96l.17,1.53c.26-.04.51-.08.74-.11l.06-1.42Zm.17-3.06l-1.42.11.06.62.11,1.3h1.13c.04-.83.08-1.51.11-2.04m.11-2.61l-.68.17c-.38.08-.72.15-1.02.23l.11,1.3c.45-.04.96-.08,1.53-.11,0-.57.02-1.1.06-1.59m-.23-7.49c-.38,0-.89-.02-1.53-.06v1.7c.68-.08,1.23-.15,1.64-.23,0-.49-.04-.97-.11-1.42m.23,4.88s-.64.06-1.81.17c0,.57.02,1.15.06,1.76.23-.04.51-.09.85-.17l.91-.17v-1.59Zm-.57-7.43h-1.25c.04.45.06.95.06,1.48.6.04,1.08.06,1.42.06-.04-.38-.11-.89-.23-1.53m.51,4.99c-.34.04-.93.11-1.76.23,0,.45-.02.91-.06,1.36.04,0,.3-.02.79-.06.49-.04.85-.07,1.08-.11,0-.49-.02-.96-.06-1.42m-.68-6.01c-.11-.83-.19-1.55-.23-2.15-.45,0-.83-.02-1.13-.06-.08.04-.17.08-.28.11,0,.04.02.11.06.23,0,.15.04.36.11.62l.34,1.25h1.13Zm-1.13,21.1c-.3.04-.59.06-.85.06v1.65c.23-.04.55-.06.96-.06l-.11-1.65Zm-.06-1.02l-.06-.62c-.26.08-.51.13-.74.17v.51c.23,0,.49-.02.79-.06m.23,3.69c-.49,0-.83.02-1.02.06,0,.68-.02,1.34-.06,1.99.38,0,.74-.02,1.08-.06v-1.98Zm.06,3.01c-.38.04-.76.06-1.13.06l-.11,1.59v.11c.38-.04.77-.06,1.19-.06.04-.6.06-1.17.06-1.7m-.62-10.04h-.62l.11,1.87.68-.17-.17-1.7Zm-.28-2.89c-.15.04-.32.06-.51.06l.11,1.81h.57l-.11-1.19-.06-.68Zm.85,15.65c-.45,0-.89.02-1.31.06l-.17,1.76h1.42c.04-.76.06-1.36.06-1.81m-1.02-17.92c-.19.04-.36.06-.51.06l.11,1.25c.15,0,.32-.02.51-.06l-.11-1.25Zm.96,20.76h-1.47l-.11.68-.06.74c.53-.08,1.08-.13,1.64-.17v-1.25Zm-1.08-23.59c-.23.04-.43.06-.62.06l.17,1.81c.15,0,.32-.02.51-.06-.04-.6-.06-1.21-.06-1.81m1.02,25.86c-.57.04-1.12.09-1.65.17-.04.42-.06.77-.06,1.08-.04.42-.06.74-.06.96v.06c.15.08.38.08.68,0,.08-.04.24-.09.48-.17.25-.07.44-.11.6-.11v-1.99Zm-1.02-28.24c-.3.04-.57.08-.79.11l.11,1.3c.19,0,.4-.02.62-.06,0-.45.02-.91.06-1.36m.06-2.89h-1.08l.17,1.98c.23-.04.53-.07.91-.11v-1.87Zm-.06-2.38c-.42.04-.81.09-1.19.17l.11,1.19h1.13c0-.45-.02-.91-.06-1.36m-2.32-3.91c0-.38.19-.57.57-.57s2.33.08,5.84.23l.23.06-.06-.17c-.08-.34.06-.55.4-.62.34-.07.55.06.62.4l.06.4c.87.04,1.66.06,2.38.06.11-.07.25-.11.4-.11.08,0,.17.04.28.11.45,0,.91-.02,1.36-.06.04-.23.17-.36.4-.4.3-.04.51.08.62.34.42-.04.94-.08,1.59-.11v-.06c-.04-.34.11-.53.45-.57.34-.04.53.11.57.45v.06c.6-.04,1.08-.08,1.42-.11v-.06c-.04-.34.11-.53.45-.57.34-.04.53.11.57.45v.11c2.34-.15,4.29-.13,5.84.06.15.04.4.06.74.06.38.04.66.08.85.11.72.08,1.27.34,1.65.79.64.76.77,1.91.4,3.46-.3,1.13-.78,2-1.42,2.61.07.34-.06.55-.4.62-.19.04-.36-.02-.51-.17-.3.11-.72.13-1.25.06-.91-.07-1.38-.11-1.42-.11-.23,0-1.08,0-2.55.03-1.47.02-2.7.03-3.69.03-1.47.04-2.67.09-3.57.17-.53.04-.96.08-1.3.11-.3.08-.49.13-.57.17-.53.27-.93.62-1.19,1.08,0,.11-.02.23-.06.34-.04.04-.09.08-.17.11-.11.38-.23,1.46-.34,3.23-.04.23-.08.51-.11.85-.11.45-.17.72-.17.79-.08.49-.06.85.06,1.08l.23.23.79-.11c.08-.04.15-.06.23-.06h.51c4.2-.49,7.33-.49,9.41,0,.11.04.21.1.28.17h.34c1.1,0,2.04.06,2.84.17,0-.3.15-.47.45-.51.34-.04.53.11.57.45l.06.28c.49.15.93.34,1.31.57.72.45,1.12,1.05,1.22,1.79.1.74-.14,1.6-.71,2.58-.61.98-1.87,1.61-3.8,1.87-1.17.19-3.01.23-5.5.11-2.84-.11-4.61-.17-5.33-.17-.76.04-1.38.11-1.87.23-.38.11-.64.25-.79.4,0,.04-.02.09-.06.17v.68c0,.45.02,1.1.06,1.93,0,.23.06,1.25.17,3.06,0,.04-.04.57-.11,1.59-.04.45.02.77.17.96.15.23.42.44.79.62.08-.07.17-.11.28-.11.3-.04.49.1.57.4.38.11.83.21,1.36.28h.06c.11-.11.23-.17.34-.17.23-.04.4.06.51.28.95.08,2.16.11,3.63.11.07-.08.15-.13.23-.17.19-.04.34,0,.45.11h.23c.45,0,1.09-.01,1.9-.03.81-.02,1.39-.03,1.73-.03v-.06c.11,0,.23.02.34.06.57-.04,1.06-.06,1.47-.06.87.04,1.59.1,2.16.17.68.08,1.17.23,1.47.45.26.19.51.6.74,1.25.23.53.42,1.14.57,1.81l.06.06c.11.08.17.19.17.34,0,.11-.02.21-.06.28.07.45.11.85.11,1.19.04.72-.09,1.25-.4,1.59-.04.04-.11.08-.23.11-.04.04-.08.06-.11.06s-.1.02-.17.06h-.45c-.38.04-.91.08-1.59.11-1.13.04-2.68.08-4.65.11l-7.77.11c-2.49.04-5.56.15-9.19.34-.15,0-.28.02-.4.06l-.51.17c-.19.04-.38.07-.57.11-.79.19-1.4.08-1.81-.34-.08-.08-.13-.17-.17-.28v-.17c-.04-.11-.06-.23-.06-.34,0-.26.02-.6.06-1.02.04-.53.11-1.49.23-2.89l.28-3.4c-.19-.08-.28-.23-.28-.45,0-.27.13-.44.4-.51v-.23c.11-1.4.19-2.87.23-4.42h-.11c-.34.04-.53-.11-.57-.45-.04-.34.11-.53.45-.57h.23v-1.65h-.45c-.34,0-.51-.17-.51-.51s.17-.51.51-.51h.4v-.28l-.57.17c-.3.08-.5-.05-.6-.37-.1-.32.03-.54.37-.65l.74-.17c0-.68-.02-1.4-.06-2.16-.15.04-.28.06-.4.06-.34.04-.53-.11-.57-.45-.04-.34.11-.53.45-.57.15,0,.3-.02.45-.06-.04-.6-.1-1.23-.17-1.87-.15-.11-.23-.26-.23-.45,0-.15.06-.28.17-.4l-.11-1.36c-.15-.11-.23-.26-.23-.45,0-.15.06-.28.17-.4l-.34-4.25c-.23-.07-.34-.25-.34-.51,0-.23.09-.38.28-.45-.08-.79-.13-1.51-.17-2.16h-.85c-.34,0-.51-.17-.51-.51s.17-.51.51-.51h.79l-.06-.85-.11.06c-.34.08-.56-.05-.65-.37-.1-.32,0-.54.31-.65.11-.04.25-.07.4-.11l-.11-2.04c0-.34.18-.52.54-.54.36-.02.56.16.6.54.04.57.06,1.17.06,1.81.38-.08.77-.13,1.19-.17-.04-.08-.08-.24-.14-.48-.06-.25-.1-.43-.14-.54-.08-.34-.13-.6-.17-.79-.04-.19-.06-.36-.06-.51h-1.19c-.38,0-.57-.19-.57-.57" style="fill:#db0a17;"/><path d="m98.77,7.66c.08.04.12.13.12.28l.17-.17-.28-.11Zm-1.81-.17c.72.04,1.23.06,1.53.06h.17c-.53-.26-1.12-.62-1.76-1.08.04.3.06.64.06,1.02m.96,27.73c-.34.04-.7.06-1.08.06v.68c.53-.08,1-.15,1.42-.23-.23-.04-.34-.17-.34-.4v-.11Zm.62.45c.34-.08.64-.17.91-.28.23-.08.39,0,.48.25.09.25,0,.43-.26.54-.68.23-1.63.42-2.84.57v1.36h.11c.15.04.26.13.34.28l.45-.34c.83-.68,1.47-1.25,1.93-1.7.26-.26.43-.49.51-.68.07-.08.11-.13.11-.17-.08-.04-.17-.09-.28-.17-.08-.04-.19-.07-.34-.11l-.11-.06h-.85v.17c0,.15-.06.27-.17.34m-.4-1.25l-1.47-.96c.07.34.11.68.11,1.02.49-.04.94-.06,1.36-.06m-2.1,3.57v-1.13c-.3.04-.64.08-1.02.11,0,.11,0,.27.03.48.02.21.03.37.03.48.34,0,.66.02.96.06m0-1.93v-.74l-1.02.11v.74c.38-.04.72-.08,1.02-.11m-.06-1.53c0-.38-.04-.75-.11-1.13-.04-.19.04-.32.23-.4l-.74-.51c-.08-.04-.13-.09-.17-.17-.11.68-.17,1.46-.17,2.32l.96-.11Zm.17-25.75v-.57l-.34-.06-1.02-.06v.74c.49,0,.94-.02,1.36-.06m0,.79c-.42.04-.87.06-1.36.06v1.13c0,.08-.02.13-.06.17.19.11.34.21.45.28.15.08.24.11.28.11s.07-.02.11-.06c.11-.11.26-.25.46-.4.34-.3.75-.7,1.25-1.19l1.25-1.36h-.06c-.3,0-.81-.02-1.53-.06v.4h.06c.26-.04.42.08.46.34.04.27-.08.42-.34.45h-.17c0,.26-.13.4-.4.4-.23,0-.36-.1-.4-.28m0-2.15c0-.42-.02-.79-.06-1.14h-1.36v1.02l1.14.06.28.06Zm-1.42-1.93h.91l-.91-.68v.68Zm-.74,4.14h-1.36l.68.34c.15.04.38.17.68.4v-.74Zm.23,25.07c0-.72.04-1.36.11-1.93-.15.15-.3.32-.45.51-.11.11-.26.28-.45.51l-.51.62c-.15.19-.26.32-.34.4.45,0,1-.04,1.65-.11m-.23-25.86v-.79c-.53-.04-1.02-.08-1.47-.11v.91h1.47Zm-.06-1.59v-.97c-.42,0-.89.02-1.42.06v.79l1.42.11Zm0-1.76v-1.3c-.45-.34-.93-.64-1.42-.91v2.27c.53-.04,1-.06,1.42-.06m-1.7,35.33v.57c.42-.15.79-.3,1.13-.45-.34-.04-.72-.08-1.13-.11m0-.79l1.36.11c.26.04.38.19.34.45v.06l.23-.11c.53-.34,1.32-.89,2.38-1.65h-.11c-.11,0-.21-.04-.28-.11-.34-.04-.7-.06-1.08-.06v.85c0,.27-.13.4-.4.4s-.4-.13-.4-.4v-.85c-.61,0-1.29.04-2.04.11v1.19Zm0-1.98c.72-.08,1.4-.11,2.04-.11,0-.04,0-.17-.03-.4s-.03-.4-.03-.51c-.38,0-.78.02-1.19.06-.26,0-.55.02-.85.06.04.27.06.57.06.91m-.11-1.7c.3-.04.59-.06.85-.06.42-.04.83-.06,1.25-.06v-.74c-.87.08-1.61.13-2.21.17l.11.68Zm-.4-28.41c-.53-.04-1-.06-1.42-.06v.91c.45.11.93.27,1.42.45v-1.31Zm0-.79v-.79h-1.53c.04.27.06.51.06.74.46,0,.95.02,1.48.06m-.4,29.21l-.11-.57c-.38.23-.76.44-1.14.62.42-.04.83-.06,1.25-.06m.4-33.06h-1.76c.04.42.07,1.04.11,1.87l.06.4h1.59v-2.27Zm-1.81-.79h.85c-.26-.11-.55-.21-.85-.28v.28Zm-1.02,37.6c.91-.08,1.76-.09,2.55-.06v-1.08c-.38.04-1.25.15-2.61.34v.11c0,.3.02.53.06.68m-.06-1.59l2.61-.4c0-.34-.02-.66-.06-.96-.79.04-1.66.06-2.61.06v.28c0,.26.02.61.06,1.02m.34-35.22c-.45,0-.93.02-1.42.06.04.57.04,1.32,0,2.27h1.59v-.4c-.08-.83-.13-1.47-.17-1.93m.28,3.86c0-.23-.02-.47-.06-.74h-1.7v.91c.26-.07.57-.11.91-.11.26-.04.55-.06.85-.06m-.34-4.65v-.51c-.49-.11-.98-.21-1.48-.28.04.27.06.55.06.85.53-.04,1-.06,1.42-.06m.4,5.44c-.3,0-.57.02-.79.06-.45.04-.83.1-1.13.17.64.08,1.29.21,1.93.4v-.62Zm-2.95,33.18v1.25c1.81-.08,3.44-.32,4.88-.74v-.79c-.72-.04-1.51-.02-2.38.06v.06c-.04.11-.06.21-.06.28-.04.04-.06.08-.06.11-.11.15-.25.23-.4.23s-.26-.08-.34-.23c-.04-.04-.06-.08-.06-.14s-.02-.14-.06-.25c-.45.04-.96.09-1.53.17m0-.79c.57-.08,1.08-.13,1.53-.17-.04-.19-.06-.42-.06-.68v-.06c-.57.08-1.06.13-1.47.17v.74Zm-.06-1.53c.41-.04.93-.09,1.53-.17-.04-.45-.06-.81-.06-1.08v-.34h-1.7c.11.49.19,1.02.23,1.59m.4-31.25v-1.13c-.83.04-1.63.04-2.38,0,.04.57.09,1.12.17,1.65.49-.04.98-.04,1.47,0,0-.04.02-.08.06-.11.15-.15.38-.28.68-.4m.06-4.2c-.53,0-1.38.02-2.55.06,0,.76.02,1.49.06,2.21.76.04,1.59.04,2.49,0,.04-.98.04-1.74,0-2.27m-.06-.79c0-.34-.04-.66-.11-.97-.79-.07-1.61-.09-2.44-.06v1.08c1.17-.04,2.02-.06,2.55-.06m-2.66,38.79v.62c0,.15-.06.26-.17.34.57.04,1.14.06,1.7.06v-1.19l-1.53.17Zm-.06-.79l1.59-.17v-.74c-.57.08-1.14.13-1.7.17.04.27.08.51.11.74m-.23-1.53c.57-.04,1.15-.09,1.76-.17-.04-.64-.13-1.25-.28-1.81-.53-.04-1.06-.11-1.59-.23l-.17.06c.04.45.11,1.1.23,1.93l.06.23Zm-.23-32.61c-.64,0-1.27-.02-1.87-.06v1.7c.26.04.51.08.74.11.11.04.21.1.28.17.34-.07.68-.13,1.02-.17-.08-.57-.13-1.15-.17-1.76m-.11-3.01h-1.82v2.16c.6.04,1.23.06,1.87.06-.04-.72-.06-1.46-.06-2.21m-.06-.79v-1.02c-.57.04-1.13.1-1.7.17,0,.3-.02.59-.06.85h1.76Zm-.11,38.85c-.91.08-1.7.15-2.38.23,0,.08.02.17.06.28.64.11,1.3.19,1.98.23.15.04.3.06.45.06-.08-.07-.11-.17-.11-.28v-.51Zm-.06-.79c-.04-.23-.08-.49-.11-.79-.79.04-1.55.08-2.27.11v.91c.68-.08,1.47-.15,2.38-.23m-.51-3.74s-.06-.07-.06-.11c-.04-.08-.06-.17-.06-.28l-.34-.06c-.72.04-1.21.06-1.47.06v2.67l2.21-.11v-.11c-.15-.91-.25-1.59-.28-2.04m-2.61,4.76c-.11,0-.23.02-.34.06l.34.06v-.11Zm-1.08-33.06v1.08l.68-.34c.46-.23.91-.42,1.36-.57-.64-.07-1.32-.13-2.04-.17m1.87-2.27c-.68-.04-1.32-.08-1.93-.11,0,.49.02,1.02.06,1.59l1.87.11v-1.59Zm-.06-2.89h-2.15c.07.6.15,1.27.23,1.99.6.04,1.25.08,1.93.11v-2.1Zm0-.79c.04-.26.06-.51.06-.74-.6.15-1.21.34-1.82.57-.15.04-.3.1-.45.17h2.21Zm-.79,38.22v-.91c-.53.04-1.02.06-1.47.06v.91h.06c.45,0,.93-.02,1.42-.06m-.06-4.31h-1.65c.11.79.17,1.68.17,2.67.49,0,.98-.02,1.48-.06v-2.61Zm0-.79v-.28c-.45-.23-.87-.47-1.25-.74l-.74-.51c.11.45.21.96.28,1.53h1.7Zm-1.76-27.17h-1.65c.08.76.17,1.44.28,2.04h.57c.26-.19.53-.36.79-.51v-1.53Zm-.34-5.16h-.79l-.4.23c-.08.45-.13.96-.17,1.53.53.04,1.06.09,1.59.17-.08-.68-.15-1.32-.23-1.93m.28,2.72c-.57-.08-1.11-.13-1.64-.17-.04.57-.04,1.17,0,1.81h1.7c-.04-.6-.06-1.15-.06-1.65m-.4,33.86c-.64,0-1.25-.02-1.81-.06v.62c.57.23,1.17.44,1.81.62v-1.19Zm-.23-3.4c-.49,0-1.1.02-1.81.06.11,1.1.17,1.93.17,2.5.6.04,1.21.06,1.81.06,0-.98-.06-1.85-.17-2.61m-.51-2.95c-.45-.08-.96-.11-1.53-.11.04.57.1,1.29.17,2.15v.17c.68-.04,1.28-.06,1.82-.06-.11-.79-.26-1.51-.46-2.16m-1.53-.91c.3,0,.6.02.91.06-.34-.3-.64-.62-.91-.96v.91Zm.23-27.68c.04-.26.06-.51.06-.74l-.74.62.68.11Zm-1.19,6.47c.04.72.06,1.32.06,1.81.53-.68,1.12-1.32,1.76-1.93-.19.04-.5.06-.94.06s-.73.02-.88.06m1.25-2.95c-.34.04-.79.06-1.36.06,0,.53.02,1.23.06,2.1.15-.04.42-.06.79-.06h.79c-.11-.64-.21-1.34-.28-2.1m-.06-2.72c-.38-.04-.76-.09-1.13-.17-.08.64-.13,1.36-.17,2.16.53,0,.96-.02,1.3-.06-.04-.68-.04-1.32,0-1.93m-.57,34.08c-.3-.04-.59-.06-.85-.06.26.11.55.25.85.4v-.34Zm-.45-6.41c-.53,0-1.19.04-1.98.11.04.83.09,1.63.17,2.38.34,0,.85-.02,1.53-.06l.45-.06v-.17c-.08-.87-.13-1.61-.17-2.21m-1.98-4.31l.91-.23c-.3-.6-.57-1.21-.79-1.81-.04.76-.08,1.29-.11,1.59v.45Zm1.98,3.52c0-.68.02-1.3.06-1.87-.27-.38-.51-.76-.74-1.14-.42.11-.85.21-1.31.28-.04,1.06-.06,2-.06,2.84.79-.08,1.47-.11,2.04-.11m-1.08-24.84c0-.64.04-1.23.11-1.76l-.96.91-.23.23v.11c-.08.19-.13.36-.17.51h1.25Zm-1.36,6.75c.07.45.17,1.17.28,2.16h.11c.3-.72.64-1.42,1.02-2.1-.3,0-.78-.02-1.42-.06m1.47-3.12h-1.64c0,.57.04,1.21.11,1.93v.4c.76.04,1.31.06,1.65.06-.04-.04-.06-.09-.06-.17,0-.53-.02-1.27-.06-2.21m-.11-2.84c-.57,0-1.02.02-1.36.06-.11.6-.17,1.27-.17,1.98h1.59c-.04-.83-.06-1.51-.06-2.04m-1.59,17.58c.04-.45.06-.85.06-1.19-.42-.04-.87-.07-1.36-.11v1.3h1.3Zm-1.3-2.04c.45,0,.89.02,1.3.06-.15-1.02-.23-2.04-.23-3.06h-1.08v3.01Zm1.3,2.84h-1.3c0,.64-.02,1.44-.06,2.38.45-.04.87-.08,1.25-.11v-.62c.04-.3.07-.85.11-1.65m-.11,6.64l-1.31.11v2.33c.45,0,.95-.02,1.48-.06-.08-.75-.13-1.55-.17-2.38m0-3.57l-1.25.11c0,1.29-.02,2.21-.06,2.78l1.25-.11c0-.83.02-1.76.06-2.78m-.11-12.53h-1.36c.15.79.23,1.49.23,2.1v.74h1.19l.11-1.02c-.04-.45-.1-1.06-.17-1.81m3.12,19.11h-.45c-.64.08-1.13.11-1.47.11l.11.79c.04.26-.08.42-.34.45-.26.04-.42-.07-.46-.34-.04-.26-.08-.55-.11-.85-.72.04-1.36.06-1.93.06h-.11c.6.6,1.28,1.17,2.04,1.7.19.15.38.28.57.4.07-.04.15-.06.23-.06.68.08,1.38.13,2.1.17,0-.57-.06-1.38-.17-2.44m-3.46-22.12c-.34-.04-.64-.06-.91-.06h-.57l.06.51.28,1.76h1.42c-.11-.98-.21-1.72-.28-2.21m-.17-3.06c-.57-.04-1.08-.09-1.53-.17-.04.68,0,1.47.11,2.38h.74c.23,0,.49.02.79.06v-.28c-.08-.72-.11-1.38-.11-1.98m.11-2.78h-.4c-.49.49-.95.98-1.36,1.48.15.08.23.19.23.34.42.08.89.13,1.42.17,0-.72.04-1.38.11-1.98m-1.47,18.32h-1.42v2.44h1.36c.04-.98.06-1.8.06-2.44m-.11,6.86c-.45.04-.87.06-1.25.06.04.15.06.31.06.48s-.06.29-.17.37c.3.45.64.89,1.02,1.3h.34v-2.21Zm.06-3.63h-1.42c0,1.13.02,2.1.06,2.89.42,0,.85-.02,1.3-.06.04-.6.06-1.55.06-2.83m.06-4.03v-1.3c-.42.04-.91.08-1.48.11v1.19h1.48Zm0-2.04v-2.95c-.68,0-1.27-.02-1.76-.06l.23,3.06c.61-.04,1.12-.06,1.53-.06m-.28-6.63h-1.7c.04.83.09,1.78.17,2.84.49.04,1.08.06,1.76.06v-.79c0-.57-.08-1.27-.23-2.1m-.45-3.06c-.53.04-.98.11-1.36.23,0,.64.02,1.32.06,2.04h1.64l-.28-1.64c-.04-.23-.06-.44-.06-.62m-.23-3.29l-.11-.06-1.08,1.53v1.19c.38-.08.81-.11,1.3-.11-.11-.98-.15-1.83-.11-2.55m-1.31,19.06h-1.08c-.11,0-.21-.04-.28-.11.34,1.17.77,2.27,1.3,3.29.04-.08.08-.13.11-.17-.04-.83-.06-1.83-.06-3.01m-.62-15.37c-.11-.04-.21-.09-.28-.17-.19.6-.36,1.28-.51,2.04h.85c-.04-.64-.06-1.27-.06-1.87m.68,12.19c-.76.08-1.42.17-1.99.28.11.83.26,1.63.45,2.38.08-.19.21-.28.4-.28h1.13v-2.38Zm-.57-9.53h-1.08c-.11.64-.23,1.44-.34,2.38h.11c.42.19.91.32,1.47.4-.08-1.02-.13-1.95-.17-2.78m.51,8.73v-1.25c-.87.08-1.57.11-2.1.11,0,.49.04.96.11,1.42.57-.11,1.23-.21,1.98-.28m-.06-2.04l-.23-3.12c-.64-.07-1.21-.21-1.7-.4-.11,1.29-.17,2.5-.17,3.63.49,0,1.19-.04,2.1-.11m15.77,11.23h.74c.11-.04.19-.06.23-.06h.34s.08.02.11.06c.11.08.19.19.23.34,0,.11-.04.21-.11.28.94.11,1.87.11,2.78,0,0-.23.09-.36.28-.4.23-.04.38.04.45.23.42-.11.81-.25,1.19-.4-.08-.08-.11-.17-.11-.28,0-.26.13-.4.4-.4h.91c0-.08-.02-.15-.06-.23-.08-.23,0-.39.26-.48.24-.09.42,0,.54.26v.06l.17-.11s.45-.59,1.36-1.65c.34-.42.64-.72.91-.91.38-.34.7-.51.96-.51.19,0,.38.09.57.28.04.04.06.1.06.17h.06c1.89,1.36,3.19,2.21,3.91,2.55h.17c.15,0,.26.08.34.23l.11.06c.15.04.28.1.4.17.19.11.3.25.34.4.08.26,0,.55-.23.85-.11.26-.32.55-.62.85-.49.49-1.17,1.08-2.04,1.76-1.44,1.1-2.67,1.95-3.69,2.55-2.87,1.66-6.69,2.25-11.46,1.76-.64-.04-1.29-.11-1.93-.23-.04.11-.13.19-.29.23-.26.04-.42-.08-.45-.34v-.06c-3.48-.64-6.3-1.72-8.45-3.23-3.78-2.68-6.03-6.58-6.75-11.68l-.11.06c-.23.08-.39,0-.48-.26-.09-.25,0-.42.25-.54.08,0,.15-.02.23-.06-.23-2.04-.21-4.27.06-6.69.38-3.52,1.06-6.07,2.04-7.66v-.51c0-.26.13-.4.4-.4.07,0,.13.02.17.06l.68-.91v-.11c.04-.15.13-.25.28-.28.49-.64,1.04-1.27,1.64-1.87v-.11c0-.26.13-.4.4-.4h.11l1.53-1.48,1.42-1.3v-.06c.04-.19.15-.3.34-.34.04-.15.15-.23.34-.23.6-.57,1.17-1.02,1.7-1.36v-.17c.07-.23.25-.32.51-.28l.06.06c.72-.45,1.48-.83,2.27-1.13.68-.23,1.4-.42,2.15-.57v-.17c.04-.26.19-.38.45-.34.19.04.3.15.34.34.53-.08,1.06-.13,1.59-.17v-.4c0-.26.13-.4.4-.4s.4.13.4.4v.34c.79-.04,1.57-.02,2.32.06.04-.19.13-.3.28-.34.27-.04.44.06.51.28v.17c.57.08,1.11.17,1.65.28.07-.19.21-.28.4-.28.26,0,.4.13.4.4v.06c.64.19,1.25.42,1.81.68.04-.23.17-.34.4-.34.26,0,.4.13.4.4v.28c.68.34,1.3.72,1.87,1.13l1.25.96,1.36,1.02c.3.27.7.56,1.19.88.49.32.96.58,1.42.77.15.04.23.15.23.34.15.15.17.32.06.51-.3.42-.98,1.17-2.04,2.27-.49.49-.91.89-1.25,1.19-.23.19-.4.34-.51.45l-.23.11c-.08.08-.15.11-.23.11-.23.04-.49-.02-.79-.17-.19-.11-.43-.28-.74-.51-.72-.49-1.1-.75-1.13-.79-.3-.15-.62-.28-.96-.4-.04,0-.08-.02-.11-.06-4.2-1.78-8.09-1.83-11.68-.17l-1.02.57v.06c0,.26-.13.4-.4.4-.08,0-.15-.04-.23-.11-3.1,2-4.95,4.86-5.56,8.56v.23c.11,1.36.13,3.01.06,4.93.79,4.01,2.89,7.15,6.29,9.42l.91.57c.08-.04.15-.06.23-.06.23,0,.36.13.4.4.53.27,1.08.47,1.65.62h.34c.04-.15.15-.23.34-.23.15,0,.26.06.34.17" style="fill:#db0a17;"/><path d="m134.98,7.66c.26-.04.55-.06.85-.06-.04-.34-.06-.55-.06-.62,0-.15.02-.43.06-.85.04-.42.06-.74.06-.96-.34-.04-.7-.08-1.08-.11v.51h.06c.3-.08.49.04.57.34.07.3-.04.49-.34.57l-.23.06.11,1.13Zm-.28-3.52c.42,0,.81.04,1.19.11v-.11c-.04-.15-.08-.26-.11-.34h-.11c-.19-.04-.47-.06-.85-.06h-.11v.4Zm-.51,4.42c-.45.04-.91.06-1.36.06l.11.85h1.08c.61.04,1.08.04,1.42,0h.34c.04-.08.06-.15.06-.23.04-.19.06-.43.06-.74-.26,0-.53.02-.79.06v.06c.04.3-.1.47-.4.51-.3.04-.47-.09-.51-.4v-.17Zm-.11-.91c-.04-.3-.06-.62-.06-.96l-1.42.23.11.79c.45,0,.91-.02,1.36-.06m-.17-1.87l-.06-.74c-.34,0-.76.02-1.25.06h-.17c0,.3.02.6.06.91l1.42-.23Zm-.11-1.65v-.4c-.42.04-.91.06-1.47.06,0,.15.02.28.06.4h.17c.49-.04.91-.06,1.25-.06m-1.99,3.63l-.11-.74-.4.06.06.45v.23h.45Zm.11.91h-.45c0,.08.02.17.06.28.04.23-.06.38-.28.46.26.04.51.06.74.06l-.06-.79Zm-.34-2.55c-.04-.34-.06-.66-.06-.96l-.4.06c.04.26.08.55.11.85v.11l.34-.06Zm-.11-1.87c-.04-.15-.06-.28-.06-.4h-.62l.11.45c.15,0,.34-.02.57-.06m-1.08,2.95c-.34,0-.68.02-1.02.06l.06.51h1.02v-.11l-.06-.45Zm-.23-1.93h-1.02c.08.34.13.7.17,1.08.34-.04.68-.06,1.02-.06v-.11c-.04-.34-.1-.64-.17-.91m-.17-.91c-.04-.15-.1-.3-.17-.45h-.91l.11.45h.97Zm.57,4.31h-1.08v.11c.04.3-.1.47-.4.51-.3.04-.47-.09-.51-.4v-.23h-1.19c0,.08.02.17.06.28.04.11,0,.23-.11.34l2.55.11h1.02c-.15-.04-.25-.15-.28-.34,0-.11-.02-.25-.06-.4m-2.04-.91l-.06-.45h-1.25c0,.19.02.34.06.45h1.25Zm-.11-1.36c-.04-.42-.1-.79-.17-1.14l-1.19-.06c0,.19.02.47.06.85l.06.34h1.25Zm-.34-2.04c0-.15-.02-.28-.06-.4h-1.13c.04.11.06.23.06.34l1.13.06Zm-1.59,4.31h-1.13c.04.19.06.38.06.57h.4l.85.06c-.08-.07-.11-.15-.11-.23-.04-.11-.06-.25-.06-.4m-.11-.91c-.04-.11-.06-.25-.06-.4-.34,0-.7-.02-1.08-.06.04.15.06.3.06.45h1.08Zm-.23-2.55l-1.13-.06c.04.15.09.57.17,1.25.34.04.7.06,1.08.06l-.06-.34c-.04-.38-.06-.68-.06-.91m-.11-.91c0-.11-.02-.23-.06-.34-.34-.04-.68-.06-1.02-.06v.34l1.08.06Zm-2.72,5.16c.04.57.07,1.02.11,1.36v-1.19c0-.08.02-.13.06-.17h-.17Zm1.08-1.7c0-.15-.02-.3-.06-.45-.38,0-.78-.02-1.19-.06v.45c.41.04.83.06,1.25.06m-.34-3.52c0-.15-.02-.28-.06-.4h-.79c-.04.11-.06.23-.06.34l.91.06Zm.23,2.16c-.08-.6-.13-1.02-.17-1.25l-1.02-.06v1.25c.41.04.81.06,1.19.06m-1.25,21.32s.08.02.11.06v-1.53l-.11.11v1.36Zm-.06,1.25l.12-.06h.11v-.23c-.08,0-.15-.02-.23-.06v.34Zm.12,11.4h.28c.07,0,.17.04.28.11,0-.53-.02-1.06-.06-1.59l-.68.11c.04.49.1.95.17,1.36m-.17-5.5h.23c.11,0,.21.02.28.06l-.06-1.31c-.15.04-.3.06-.45.06v1.19Zm0-2.1c.15,0,.3-.02.45-.06l-.06-.74h-.06c-.11-.04-.23-.06-.34-.06v.85Zm0-1.76c.11,0,.23.02.34.06v-1.14l-.06-.11-.23.06c0,.38-.02.76-.06,1.13m-.06,7.09l.57-.11h.17l-.06-.51h-.68v.62Zm0-1.53h.68l-.06-.91c-.08.08-.17.11-.28.11h-.34v.79Zm-.23-22.97c-.26,0-.55.02-.85.06.04.42.04.81,0,1.19.3-.04.59-.09.85-.17v-1.08Zm-.11,3.18l.06-1.13c-.26.04-.53.1-.79.17,0,.34-.02.68-.06,1.02.26-.04.53-.06.79-.06m-.06,1.59l.06-.68c-.3,0-.59.02-.85.06v.57c.26,0,.53.02.79.06m.17-5.67c-.04-.45-.08-.95-.11-1.48-.26,0-.55.02-.85.06.04.53.07,1.02.11,1.47.3-.04.59-.06.85-.06m-.23,7.37v-.79c-.27-.04-.53-.06-.79-.06l-.06,1.02c.26-.04.55-.1.85-.17m.06-9.75l-.06-.74c-.3.04-.59.06-.85.06l.06.74c.3-.04.59-.06.85-.06m-.17-1.64v-.06h-.79v.11c.26,0,.53-.02.79-.06m0,13.1l.06-.79-.91.23v.62c.26-.04.55-.06.85-.06m-.06-14.57h-.85v.51h.85v-.51Zm0,16.45l.06-.96c-.34,0-.66.02-.96.06l-.06,1.02c.38-.04.7-.08.96-.11m-.06-18.54h-.96c.04.34.08.74.11,1.19h.85v-1.19Zm.06-.91c0-.15.02-.28.06-.4l-1.13-.06v.45h1.08Zm-.06,36.3c-.08-.42-.13-.85-.17-1.31l-.91.11c.04.45.06.89.06,1.3.42-.08.76-.11,1.02-.11m0-14.86l.06-1.08c-.26.04-.61.08-1.02.11l-.11.96c.38-.04.74-.04,1.08,0m-.23,12.65v-.79c-.34,0-.66-.02-.96-.06.04.38.06.7.06.96l.91-.11Zm0-1.7v-.74l-1.02.11v.57c.34,0,.68.02,1.02.06m.17-8.85v-1.19c-.3-.04-.66-.04-1.08,0l-.11,1.19h1.19Zm-.11,7.2v-1.13c-.19,0-.49.04-.91.11l-.28.06c0,.3.02.66.06,1.08l1.13-.11Zm.06-5.79v-.51h-1.19l-.06.62v.11c.38-.07.79-.15,1.25-.23m-.06,1.81c0-.3.02-.6.06-.91-.45.11-.89.19-1.3.23v.68h1.25Zm0,1.93v-1.02h-1.3c.04.38.06.77.06,1.19l.23-.06c.45-.07.79-.11,1.02-.11m-1.42-24.05v-.28h-.85v.34c.26-.04.55-.06.85-.06m-.11-1.19v-.51l-.45-.06h-.34c.04.19.06.38.06.57h.74Zm.23,2.84l-.06-.74c-.34,0-.66.02-.96.06-.04.26-.06.53-.06.79.42-.04.77-.08,1.08-.11m1.64,30.85c-.3.04-.72.1-1.25.17-.08.19-.21.28-.4.28-.15,0-.28-.06-.4-.17-.3.04-.57.06-.79.06l.06.68c0,.08-.02.15-.06.23h1.13c.98-.04,1.76-.11,2.32-.23.26-.04.47-.09.62-.17h.06v-1.02c-.08.08-.17.11-.28.11h-.06v.06c.07.3-.04.49-.34.57-.3.08-.49-.04-.57-.34l-.06-.23Zm-1.99-35.16c0-.38-.02-.76-.06-1.14h-.79c.07.34.11.7.11,1.08l.45.06h.28Zm.51,6.69c-.04-.45-.08-.96-.11-1.53-.34.08-.74.15-1.19.23-.04.42-.1.91-.17,1.48.23-.04.59-.07,1.08-.11l.4-.06Zm-.62,27.85c0-.42-.02-.85-.06-1.31-.3,0-.6.02-.91.06l.11,1.3c.26,0,.55-.02.85-.06m.62-26.94h-.28l-1.3.17c-.04.57-.08.96-.11,1.19.15,0,.34,0,.57-.03.23-.02.43-.04.62-.06.19-.02.36-.03.51-.03.04-.42.04-.83,0-1.25m-.74,24.73c0-.34-.02-.72-.06-1.13-.3-.04-.62-.08-.97-.11l.11,1.3c.3-.04.6-.06.91-.06m.11-34.37v-.45l-1.14-.11c.08.19.13.38.17.57h.96Zm-.23,32.33v-.4c-.3.08-.62.13-.96.17v.11c.34.04.66.08.96.11m.79-19.57c.04-.34.06-.66.06-.96-.19,0-.38,0-.57.03s-.41.04-.65.06c-.25.02-.42.05-.54.08-.04.3-.06.62-.06.96.53-.04,1.12-.09,1.76-.17m-.85,18.26c-.04-.38-.06-.74-.06-1.08-.34.04-.66.06-.97.06.04.42.06.81.06,1.19.34-.04.66-.09.96-.17m.79-16.79v-.57c-.64.08-1.23.15-1.76.23l-.06.4.97-.06h.85Zm-.91,14.8c0-.42-.02-.83-.06-1.25-.3.04-.6.09-.91.17v1.13c.3,0,.62-.02.96-.06m.74-12.76l.11-1.13h-.79l-.97.06c-.04.38-.06.77-.06,1.19.6-.04,1.17-.07,1.7-.11m-.74,10.6v-.57c-.38.04-.72.06-1.02.06v.62l1.02-.11Zm.62-9.13l.06-.57c-.53.04-1.1.08-1.7.11v.68c.53-.11,1.08-.19,1.64-.23m-.51,6.86c-.53.04-.93.06-1.19.06v.79c.38,0,.76-.04,1.14-.11v-.34l.06-.4Zm.06-.91l.11-1.25c-.76.04-1.21.06-1.36.06v1.25c.19,0,.6-.02,1.25-.06m.17-2.16l.06-.91c-.57.04-1.06.09-1.48.17v.79s.51-.02,1.42-.06m.17-1.87l.06-1.02c-.57.08-1.12.17-1.65.28v.91c.42-.04.95-.09,1.59-.17m-2.49,4.14v-1.25h-.28v1.25h.28Zm0-2.15v-.74c-.11,0-.21-.02-.28-.06v.79h.28Zm0-1.64v-.91l-.11.06h-.17v.91s.1-.06.17-.06h.11Zm.06-1.81v-.91h-.06c-.11,0-.21-.04-.28-.11v1.08l.34-.06Zm.06-1.82v-1.13h-.4v1.25c.08-.08.17-.11.28-.11h.11Zm-.34,15.71s-.06-.07-.06-.11c-.04-.3.08-.49.34-.57h.17c0-.45-.02-.91-.06-1.36h-.06c-.26,0-.42-.13-.45-.4v2.55l.11-.11Zm.34-2.95v-1.08l-.45.06v1.42c.04-.26.19-.4.45-.4m-.06-1.99v-.74h-.4v.79l.4-.06Zm-.06-1.64v-.79h-.28l-.06.79h.34Zm.17-11.17l.06-.34-.57.11v.23h.51Zm.11-1.25c0-.38.02-.74.06-1.08-.11.04-.21.06-.28.06-.15.04-.28-.02-.4-.17v1.25c.19-.04.4-.06.62-.06m.45,24.5c-.34.04-.66.06-.96.06h-.17c0,.3.02.53.06.68.19.04.43.06.74.06.15.04.29.06.4.06v-.11l-.06-.74Zm-.28-3.18l-.11-1.42c-.15,0-.28-.02-.4-.06-.11-.04-.21-.09-.28-.17-.04.76-.06,1.44-.06,2.04v1.93h1.02l-.11-1.42h-.34c-.3,0-.45-.15-.45-.45s.15-.45.45-.45h.28Zm-.06-23.31c.04-.26.08-.68.12-1.25-.3.04-.61.06-.91.06v.11c.04.42.06.85.06,1.3.08-.07.17-.13.28-.17.15-.04.3-.06.45-.06m.23-2.15c.04-.53.07-1,.11-1.42-.53.08-.93.15-1.19.23.04.34.06.76.06,1.25.3,0,.64-.02,1.02-.06m.23-2.33c0-.34.02-.64.06-.91-.49,0-.96.02-1.42.06v1.08l1.36-.23Zm.06-1.81c.04-.15.06-.28.06-.4l-1.53-.06v.51c.49-.04.98-.06,1.47-.06m.06-1.3c0-.23-.02-.45-.06-.68l-1.47-.11v.74l1.53.06Zm-.11-1.59c-.04-.38-.08-.72-.11-1.02-.45,0-.91-.02-1.36-.06v.96l1.47.11Zm-.4-1.93c-.08-.23-.15-.43-.23-.62h-.85v.57l1.08.06Zm-1.93,4.88v-.57h-.96v.85h.11c.07-.19.23-.28.45-.28h.4Zm0-1.48v-.74l-1.08-.11c.04.27.06.55.06.85h1.02Zm-.06-1.65v-.91h-1.13c0,.26.02.53.06.79l1.08.11Zm0-1.81v-.62c-.49-.04-.95-.06-1.36-.06l.11.68h1.25Zm-1.87,3.4c0-.3-.02-.59-.06-.85l-1.3-.11v.96h1.36Zm.06.91h-1.42v.62c0,.11-.04.21-.11.28.6-.04,1.11-.04,1.53,0v-.91Zm-.17-2.72c-.04-.23-.06-.45-.06-.68h-1.3c0,.19.02.38.06.57l1.3.11Zm-.23-1.59c0-.26-.04-.51-.11-.74h-1.3c.07.23.13.47.17.74h1.25Zm-1.93,3.35c0-.38-.02-.72-.06-1.02l-1.02-.06c.04.34.06.7.06,1.08h1.02Zm-.06-1.93c-.04-.19-.06-.38-.06-.57h-1.02v.51l1.08.06Zm-.17-1.47c-.08-.23-.13-.47-.17-.74h-.91c0,.26.02.51.06.74h1.02Zm-1.7,3.4c0-.42-.02-.79-.06-1.13l-.62-.06c.04.42.09.81.17,1.19h.51Zm-.11-2.04v-.45h-.79l.06.4c.23,0,.47.02.74.06m-.11-1.36c-.04-.23-.06-.45-.06-.68h-.91l.11.68h.85Zm2.15,4.31h-1.02v.23c0,.3-.15.46-.45.46s-.45-.15-.45-.46v-.23h-.45c-.04.19-.17.3-.4.34-.3.04-.47-.09-.51-.4h-1.13v1.36c.45-.04,1.62-.11,3.52-.23.42-.04.76-.06,1.02-.06-.08-.11-.11-.23-.11-.34v-.68Zm-3.4-.96c-.04-.38-.1-.77-.17-1.19-.34-.04-.66-.06-.96-.06,0,.42.02.83.06,1.25h1.08Zm-.28-2.1l-.06-.34h-.91v.28c.3,0,.62.02.97.06m-.23-1.25l-.11-.62c-.26.04-.51.06-.74.06l.06.57h.79Zm-1.42,4.25h-.91v.45c.04.34.06.6.06.79.08.04.19.06.34.06s.32.02.51.06v-1.36Zm-.06-.91l-.11-1.31h-.74v1.31h.85Zm-.23-3.12l-.06-.68c-.23,0-.43.02-.62.06v1.53h.74v-.4c-.08-.08-.11-.17-.11-.28,0-.08.02-.15.06-.23m9.87,6.98v-.23c-.04-.3-.06-.49-.06-.57-.08-.04-.17-.08-.28-.11-.23-.04-.53-.07-.91-.11-.08.04-.15.06-.23.06-.11,0-.21-.02-.28-.06-.72-.04-1.84,0-3.35.11-1.97.11-3.2.19-3.69.23-.61,0-1.08-.02-1.42-.06-.49-.08-.83-.19-1.02-.34l-.11-.23v-.4c0-.15-.02-.4-.06-.74v-2.72h-.17c-.3,0-.45-.15-.45-.45s.15-.45.45-.45h.11v-1.42l-.4.06c-.3.04-.47-.09-.51-.4-.04-.3.09-.47.4-.51l.45-.06v-.34c-.04-.3.09-.47.4-.51.3-.04.47.1.51.4v.34c.19-.04.38-.06.57-.06v-.06c-.04-.3.09-.47.4-.51.3-.04.47.09.51.4v.06c.3,0,.62-.02.96-.06.04-.04.1-.06.17-.06s.15.02.23.06c.42-.04.83-.06,1.25-.06.04-.15.15-.25.34-.28.23-.04.38.06.45.28.3-.04.58-.06.85-.06,0-.19.11-.32.34-.4.26-.07.45.04.57.34v.11h1.36l-.06-.23c-.08-.3.04-.49.34-.57.3-.08.49.04.57.34.04.15.07.32.11.51.49,0,1,.02,1.53.06,0-.3.15-.45.45-.45s.45.15.45.45v.06h.91c.11-.04.23-.02.34.06l1.76.11v-.06c0-.3.15-.45.45-.45s.45.15.45.45v.11l1.25.06c.07-.27.26-.38.57-.34.19.04.3.17.34.4h1.13c.08,0,.13.02.17.06h1.25c.07-.15.19-.25.34-.28.3-.04.49.08.57.34h1.02c0-.23.11-.38.34-.45.26-.07.45.04.57.34v.11c.23-.04.64-.06,1.25-.06.11-.07.23-.09.34-.06h1.13c.04-.26.19-.4.45-.4.23,0,.38.11.45.34.57,0,1.06-.02,1.47-.06.08-.15.19-.23.34-.23.23,0,.38.08.45.23h.23c.38,0,.68.02.91.06h.28c.19.04.32.11.4.23.19.19.3.49.34.91.08.3.09.68.06,1.13,0,.23-.02.59-.06,1.08-.04.38-.06.62-.06.74,0,.08.02.27.06.57,0,.38.02.68.06.91,0,.38-.02.7-.06.96-.08.38-.21.64-.4.79-.08.08-.15.11-.23.11-.08.04-.13.06-.17.06h-.51c-.34.04-.81.04-1.42,0-.94,0-2.32-.02-4.14-.06-.49-.04-1.21-.07-2.15-.08-.95-.02-1.61-.05-1.99-.09h-.45c-.08.11-.19.17-.34.17s-.26-.06-.34-.17h-.28v5.96c-.04.87-.06,1.38-.06,1.53-.3,3.17-.34,7.26-.11,12.25,0,.72.04,1.66.11,2.83.19.08.28.23.28.45,0,.19-.1.32-.28.4.19,3.78.28,6.67.28,8.68,0,.3-.19.55-.57.74-.19.11-.47.21-.85.28-.64.11-1.47.19-2.5.23-.79,0-1.61-.02-2.44-.06-.34,0-.62-.02-.85-.06-.11,0-.21-.02-.28-.06h-.11l-.23-.11-.11-.23v-.45c-.04-.23-.06-.53-.06-.91v-2.72c0-.53,0-1.15.03-1.87.02-.72.03-1.3.03-1.76v-3.35c0-1.36,0-2.99.03-4.88.02-1.89.03-3.65.03-5.27v-1.59c-.08-.08-.11-.17-.11-.28v-.57c-.15-.07-.23-.21-.23-.4s.08-.32.23-.4c0-1.59-.04-3.82-.11-6.69-.08-.08-.11-.17-.11-.28,0-.15.04-.26.11-.34" style="fill:#db0a17;"/><path d="m174.75,21.04c.08.42.17,1.02.28,1.81l.11.11v-1.93h-.4Zm-.17-1.19c.23.04.4.08.51.11-.04-.34-.06-.7-.06-1.08-.19,0-.38-.02-.57-.06,0,.19.02.36.06.51,0,.15.02.32.06.51m-.28-3.06l.11,1.13c.19,0,.38.02.57.06l-.06-1.19h-.62Zm-.11-3.01c.04.79.06,1.49.06,2.1h.62c-.04-.34-.06-.66-.06-.96,0-.26.02-1.08.06-2.44v-1.14h-.74c.04.83.06,1.34.06,1.53h.06c.3,0,.45.15.45.45s-.15.45-.45.45h-.06Zm-.11-4.76c.04.42.06.89.06,1.42h.79v-1.42h-.85Zm-.06-2.27c0,.42.02.87.06,1.36h.85c.04-.49.04-.93,0-1.31-.23,0-.53-.02-.91-.06m-.28-3.06c.07.68.15,1.4.23,2.15.45.04.77.06.96.06,0-.34-.02-.66-.06-.96-.04-.38-.08-.72-.11-1.02-.23-.15-.57-.23-1.02-.23m.91,22.63h-1.47l.11,1.36h.74c.3,0,.45.15.45.45s-.15.45-.45.45h-.62l.11,1.47h1.13c.08-.41.15-.87.23-1.36-.04-.72-.11-1.51-.23-2.38m-1.42-14.92l-.17.06v1.47c.07-.04.15-.06.23-.06,0-.23-.02-.72-.06-1.48m1.02,12.31h-1.25l.11,1.7h1.42l-.28-1.7Zm-1.08-14.69h-.17c0,.49.02,1,.06,1.53l.17-.06c0-.57-.02-1.06-.06-1.47m.11,4.76c-.08,0-.17.02-.28.06,0,.38-.02,1.06-.06,2.04h.4c0-.6-.02-1.3-.06-2.1m.57,7.32l-.17.06h-.79c.04.61.06,1.15.06,1.65h1.19l-.28-1.7Zm-.45-4.31h-.51v1.02c.19,0,.38.02.57.06,0-.34-.02-.7-.06-1.08m.17,3.46v-.17c.04-.07.07-.13.11-.17-.04-.15-.06-.3-.06-.45-.04-.23-.06-.45-.06-.68-.23-.04-.45-.06-.68-.06-.04.57-.04,1.08,0,1.53h.68Zm-.45-13.55h-.34c.04.45.09.93.17,1.42h.23c-.04-.49-.06-.96-.06-1.42m-.79,28.7h.28c.3-.45.59-.96.85-1.53-.34.04-.72.06-1.13.06v1.47Zm1.48-2.44l.11-.23c.23-.53.42-1.11.57-1.76h-.79c.04.38.09.77.17,1.19.04.3-.1.47-.4.51-.3.04-.47-.09-.51-.4l-.23-1.3h-.62c.08.57.13,1.08.17,1.53v.51c.61,0,1.12-.02,1.53-.06m-.96-29.21c-.15,0-.3.02-.45.06h-.28c.19.64.36,1.31.51,1.98h.45c-.08-.72-.15-1.4-.23-2.04m-.4,24.84c-.23-.04-.43-.06-.62-.06l.17,1.53h.62c-.04-.49-.1-.98-.17-1.47m-.17-2.27h-.68c.04.38.08.81.11,1.3h.68l-.11-1.3Zm-.17-2.61h-.74l.11,1.47v.23h.74l-.11-1.7Zm-.11-2.44c-.26,0-.51.02-.74.06h-.06l.11,1.48h.74c0-.49-.02-1-.06-1.53m0-2.55c-.3,0-.61.02-.91.06,0,.57.02,1.11.06,1.64.26-.04.55-.06.85-.06-.04-.49-.04-1.04,0-1.65m0-1.93h-.96v1.08c.34-.04.66-.06.96-.06v-1.02Zm.11-2.95c-.23.04-.42.06-.57.06h-.62v.17l.06,1.81h1.08c.04-.98.06-1.66.06-2.04m.06-2.33l-.34.06c-.42.04-.74.06-.97.06v1.42c.19-.04.42-.06.68-.06.11,0,.32-.02.62-.06v-1.42Zm-.06-2.44c-.49,0-.94.04-1.36.11,0,.49.02,1,.06,1.53.23,0,.53-.02.91-.06l.45-.06c-.04-.53-.06-1.04-.06-1.53m-.28-2.38c-.45,0-.87.02-1.25.06l.11,1.53c.42-.08.85-.11,1.31-.11-.04-.53-.1-1.02-.17-1.47m-.57-2.72l-.85.17.11,1.76c.38-.08.78-.11,1.19-.11-.15-.64-.3-1.25-.45-1.81m.17,31.25v-1.36h-.62c-.3,0-.66-.02-1.08-.06v1.81l1.76-.11s-.06-.08-.06-.11v-.17Zm-1.76,3.12v.06l.06-.06h-.06Zm0-1.81v.91h.34c.19,0,.32.1.4.28.45-.42.89-.85,1.3-1.31-.61.04-1.29.08-2.04.11m1.53-5.56c-.57.04-1.08.1-1.53.17v.91c.04.26.06.55.06.85.42.04.79.06,1.13.06h.51v-.34c-.04-.49-.09-1.04-.17-1.65m-.28-2.44c-.53.04-1,.09-1.42.17.04.45.07.96.11,1.53.45-.08.95-.13,1.48-.17l-.17-1.53Zm-.23-2.21c-.57.04-1.08.08-1.53.11.07.42.15.87.23,1.36.45-.08.93-.11,1.42-.11-.04-.49-.08-.94-.11-1.36m-.23-2.61h-1.64v1.7s.08.1.11.17c.49-.07,1.04-.13,1.64-.17v-.11l-.11-1.59Zm-.34-6.92h-1.13c-.08,0-.15-.02-.23-.06.04,1.32.06,2.49.06,3.52.04.91.06,1.76.06,2.55h1.53l-.11-1.3c-.3.08-.53.17-.68.28-.23.19-.43.17-.62-.06-.19-.23-.17-.44.06-.62.26-.23.66-.4,1.19-.51,0-.57-.02-1.17-.06-1.81l-.74.06c-.3,0-.45-.15-.45-.45s.15-.45.45-.45l.68-.06v-1.08Zm-.11-2.84c-.45,0-.87-.02-1.25-.06-.04,0-.08-.02-.11-.06.04.87.06,1.59.06,2.15.07-.08.17-.11.28-.11h1.08l-.06-1.81v-.11Zm-.06-2.27c-.45.04-.87.04-1.25,0h-.17l.06,1.36c.08-.04.17-.06.28-.06.34.04.7.06,1.08.06v-1.36Zm-1.25-.91c.38.04.77.04,1.19,0-.04-.53-.06-1.02-.06-1.48-.26.04-.51.1-.74.17-.3.08-.49-.04-.57-.34-.08-.3.04-.49.34-.57.3-.08.6-.13.91-.17-.04-.49-.06-.96-.06-1.42-.11,0-.23.04-.34.11-.3.08-.5-.03-.6-.31-.09-.28,0-.48.26-.6.19-.04.4-.09.62-.17-.04-.6-.1-1.17-.17-1.7h-.45c-.3,0-.45-.15-.45-.45s.15-.45.45-.45h.4v-.06h-.17c-.23,0-.4.02-.51.06h-.06c-.19.3-.28.98-.28,2.04,0,.38,0,.88.03,1.5s.03.99.03,1.11c0,.68.02,1.61.06,2.78.08-.04.13-.06.17-.06m-.11,18.09h-.06c-.08.64-.17,1.21-.28,1.7.04-.04.09-.08.17-.11.11,0,.21-.02.28-.06,0-.57-.04-1.08-.11-1.53m.17,2.44l-.11.06c-.23.04-.4-.06-.51-.28-.08.3-.17.57-.28.79-.08.3-.23.59-.45.85.3.04.77.08,1.42.11-.04-.26-.06-.53-.06-.79v-.74Zm0,5.27h-1.59v.85h1.59v-.85Zm.06-2.83c-.87-.08-1.49-.11-1.87-.11.12.61.19,1.29.23,2.04h1.64v-1.93Zm-2.55,4.59h-.91v1.19c.15,0,.3-.02.45-.06.15-.04.28.02.4.17,0-.34.02-.78.06-1.3m0-1.76c-.34,0-.68-.02-1.02-.06.04.3.06.6.06.91h.96v-.85Zm0-.91c0-.57-.06-1.08-.17-1.53-.34.26-.72.53-1.13.79.07.23.13.45.17.68.38.04.76.06,1.13.06m-2.1-.06v-.23l-.45.23h.45Zm4.59,2.72h-1.59c-.04.57-.06,1-.06,1.3s-.15.45-.45.45c-.15,0-.26-.06-.34-.17,0,.27-.13.42-.4.45-.15.04-.34.06-.57.06v.91h-.91v-.79c-.45.08-.91.13-1.36.17l.23,1.53c.11,0,.23-.04.34-.11,1.62-.53,3.33-1.53,5.11-3v-.79Zm-4.31-.06h-1.64l.17,1.53c.49-.04.98-.09,1.47-.17v-1.36Zm-.11-1.76c-.57-.04-1.17-.06-1.82-.06l.17.91h1.7c-.04-.3-.06-.58-.06-.85m-2.15,4.25l-.74.06c.07.6.11,1.17.11,1.7.3-.04.58-.06.85-.06v-.11l-.23-1.59Zm-.28-2.5h-.79c.11.6.21,1.15.28,1.64l.68-.06-.17-1.59Zm-.28-1.87h-.06c-.26.08-.53.13-.79.17l.17.79h.79l-.11-.96Zm-1.02,4.54c-.64.04-1.25.08-1.82.11.07.49.13.96.17,1.42.87.04,1.44.06,1.7.06,0-.49-.02-1.02-.06-1.59m-.4-2.67h-1.93c.07.3.15.74.23,1.3l.11.57,1.87-.11c-.08-.53-.17-1.12-.28-1.76m-.23-.91l-.11-.68c-.6.08-1.19.1-1.76.06.04.19.06.4.06.62h1.81Zm-2.1,3.69c-.49.04-.96.06-1.42.06l.28,1.08v.11l1.3.11c-.04-.42-.1-.87-.17-1.36m-.51-2.72h-1.53c.11.6.25,1.23.4,1.87.45,0,.95-.02,1.47-.06l-.06-.4c-.11-.64-.21-1.12-.28-1.42m-.11-.91c-.04-.26-.06-.53-.06-.79-.6-.07-1.17-.21-1.7-.4.07.38.13.77.17,1.19h1.59Zm-1.76,3.69c-.53-.04-1.02-.07-1.47-.11v.34c0,.15-.06.27-.17.34.6.23,1.25.4,1.93.51l-.28-1.08Zm-.57-2.72c-.42,0-.81.02-1.19.06.11.6.19,1.15.23,1.64l1.3.11c-.11-.64-.23-1.25-.34-1.81m-.34-2.5c-.3-.04-.59-.06-.85-.06h-.51l.28,1.53.06.17c.38-.04.78-.06,1.19-.06-.08-.57-.13-1.1-.17-1.59m-1.53-.96h.4l-.45-.45c0,.15.02.3.06.45m-.74.91c-.42.04-.89.08-1.42.11.04.64.08,1.23.11,1.76l1.64-.11v-.06s-.05-.27-.14-.71c-.1-.43-.16-.77-.2-.99m-.17-.91c-.08-.45-.13-.89-.17-1.31,0-.15.04-.26.11-.34l-.11-.23c-.34.04-.72.06-1.13.06v1.93c.49-.04.93-.08,1.3-.11m-1.3-4.03v1.31h.68c-.19-.42-.36-.85-.51-1.31h-.17Zm.85,8.56c.11.15.34.26.68.34.19.08.42.13.68.17-.08-.45-.15-.95-.23-1.48-.57,0-1.11.04-1.64.11v.11c.04.26-.09.42-.37.48-.28.06-.46-.06-.54-.37v-.17c-.3.04-.57.06-.79.06,1.06,1.21,2.27,2.1,3.63,2.67v-.51c-.38-.04-.72-.09-1.02-.17-.53-.19-.89-.42-1.08-.68-.19-.26-.16-.48.08-.65.25-.17.44-.14.6.09m-2.27-23.48h.91v-1.93c-.08.11-.19.17-.34.17h-.57v1.76Zm.57,20.08l-.62.11.23,1.36c0,.11-.02.21-.06.28l.57-.06c-.04-.53-.08-1.1-.11-1.7m-.57-19.17c0,.49-.02,1.02-.06,1.59h.57c.07,0,.15.02.23.06,0-.23.04-.77.11-1.65h-.85Zm-.06,2.5c0,.42-.02.87-.06,1.36h.45c.11,0,.21.04.28.11,0-.49.02-1,.06-1.53-.04.04-.1.06-.17.06h-.57Zm0-6.07h.62c.15,0,.26.06.34.17,0-.45-.02-.98-.06-1.59v-.34h-1.02c.04.15.06.28.06.4.04.45.06.91.06,1.36m-.11,8.34l-.06,1.36.79.11c0-.49.02-1,.06-1.53-.08.04-.17.06-.28.06h-.51Zm.68,11.51h-.79c.04.72.09,1.42.17,2.1l.62-.11v-1.98Zm-.68-7.48c-.04-.49-.08-.93-.11-1.31v.45c0,.3-.02.59-.06.85h.17Zm-.17-16.39l.11,1.36h1.08c-.04-.53-.06-.93-.06-1.19h-.11l-1.02-.17Zm.85,21.61h-.91c0,.45.02.91.06,1.36h.85v-1.36Zm-.28-2.61c-.19-.04-.4-.06-.62-.06v1.76h.85c-.04-.15-.06-.28-.06-.4-.04-.38-.09-.81-.17-1.31m-.23-1.7h-.34c0,.27-.02.51-.06.74h.51l-.11-.62v-.11Zm-.57-20.7c0,.68.04,1.51.11,2.5l1.19.17v-1.53c0-.26.06-.64.17-1.13h-1.48Zm0-.91h1.7c.15-.64.19-1.08.11-1.3-.04-.04-.08-.06-.11-.06-.15-.04-.4-.08-.74-.11-.23,0-.49-.02-.79-.06-.08.45-.13.96-.17,1.53m-.34,31.31c-.3.04-.59.06-.85.06.38.6.76,1.13,1.13,1.59-.04-.08-.08-.17-.11-.28-.08-.45-.13-.91-.17-1.36m-.28-3.12c-.26.04-.51.06-.74.06.04.79.06,1.53.06,2.21.26,0,.55-.02.85-.06-.08-.72-.13-1.46-.17-2.21m-.11-2.27l-.68.06c0,.49.02.94.06,1.36.19,0,.42-.02.68-.06-.04-.42-.06-.87-.06-1.36m.4-16.67h-1.08v1.81h1.08v-1.81Zm-.4,13.95h-.74l.06,1.87.68-.06v-1.81Zm.4-11.23h-1.08v.17c-.04.3-.06.76-.06,1.36h1.08c.04-.53.06-1.04.06-1.53m-.17-5.39h-.96v.23c.04.49.06,1,.06,1.53h1.02c0-.45-.02-.87-.06-1.25,0-.19-.02-.36-.06-.51m-.17,15.03h-.85v.68h.79c.04-.23.06-.45.06-.68m.11-2.72l-1.02-.11c0,.6.02,1.25.06,1.93h.85c.04-.27.06-.57.06-.91l.06-.91Zm.06-2.21h-1.08v1.19l1.02.11.06-1.3Zm.11-2.27h-1.13c0,.53-.02.98-.06,1.36h1.13c.04-.49.06-.94.06-1.36m-.34-10.21c-.38-.04-.72-.08-1.02-.11l.17,1.59h1.02l-.17-1.47Zm-.17-3.29h-1.13c.04.34.06.7.06,1.08l.11,1.19c.34.04.7.08,1.08.11-.08-.91-.11-1.7-.11-2.38m0-.91c.04-.57.09-1.08.17-1.53h-1.3c-.04.42-.06.93-.06,1.53h1.19Zm-1.36,28.3c-.26,0-.53.02-.79.06.19.42.47.89.85,1.42-.04-.45-.06-.94-.06-1.47m-.23-11.63h-.68v1.13c.23,0,.45.02.68.06v-1.19Zm.06,4.99l-.79.11v.57c.26,0,.53-.02.79-.06v-.62Zm-.06-2.89c-.23,0-.47-.02-.74-.06v2.15l.79-.11c-.04-.72-.06-1.38-.06-1.99m.06-4.37h-.79v1.36h.74c.04-.38.06-.83.06-1.36m.11,11.57h-.96v1.53c.3-.04.64-.07,1.02-.11-.04-.42-.06-.89-.06-1.42m-.06-2.78c-.3.04-.59.08-.85.11-.04.68-.06,1.27-.06,1.76h.96l-.06-1.87Zm.06-11.23c-.34,0-.66-.02-.96-.06,0,.53.02,1.06.06,1.59h.85c0-.6.02-1.06.06-1.36v-.17Zm0-2.72h-1.13l.11,1.76c.3.04.64.06,1.02.06.04-.68.04-1.29,0-1.81m-.68-9.19c0-.64.02-1.19.06-1.65h-.51c0,.49-.02,1.06-.06,1.7.15-.04.32-.06.51-.06m.62,6.52c-.45,0-.89.02-1.3.06.07.57.13,1.13.17,1.7h1.19c0-.49-.02-.96-.06-1.42v-.34Zm-.57-5.61c-.23,0-.43.02-.62.06l-.06.85c-.04.53-.08.94-.11,1.25h.96c-.04-.38-.06-.72-.06-1.02-.04-.42-.08-.79-.11-1.13m.28,3.06h-1.08c-.04.6-.04,1.17,0,1.7.38-.04.79-.06,1.25-.06l-.17-1.64Zm-1.47,19.4h-.11c.04.19.06.38.06.57l.06-.57Zm0-1.42c-.11,0-.23-.04-.34-.11.04.19.07.4.11.62.07,0,.15-.02.23-.06v-.45Zm0-3.29h-.57c.04.91.09,1.78.17,2.61.08-.11.15-.19.23-.23h.17v-2.38Zm.06-2.04h-.68c0,.38.02.76.06,1.13h.62v-1.13Zm-.06-2.27h-.62v1.36h.62v-1.36Zm-.06-2.61c-.19,0-.36-.02-.51-.06-.04,0-.08-.02-.11-.06.04.68.06,1.29.06,1.81h.62c-.04-.57-.06-1.13-.06-1.7m-.17-2.44h-.17c-.15,0-.28-.04-.4-.11l.11,1.64c.07-.04.19-.06.34-.06.07.04.15.06.23.06l-.11-1.53Zm-.23-2.67c-.19,0-.32-.09-.4-.28,0,.6.02,1.34.06,2.21.07-.11.17-.17.28-.17h.23c-.04-.6-.1-1.19-.17-1.76m.17-6.52c.04-.68.06-1.28.06-1.81-.15,0-.28-.02-.4-.06-.08.6-.15,1.27-.23,1.98l.57-.11Zm-.28,3.97h-.11c-.08,0-.15-.02-.23-.06,0,.6.02,1.27.06,1.99.04-.15.15-.25.34-.28-.04-.53-.06-1.08-.06-1.64m.17-3.01c-.15,0-.3.02-.45.06-.04.64-.06,1.34-.06,2.1.04-.04.08-.06.11-.06.07,0,.17-.02.28-.06.04-.34.07-.79.11-1.36v-.68Zm-1.36-.68c.07-.83.15-1.61.23-2.33l-.34-.11c-.26-.15-.32-.36-.17-.62.15-.26.36-.32.62-.17h.06v-.17c.08-.26.25-.37.54-.31.28.06.41.24.37.54l-.06.17h.23v-.34c0-.26.14-.41.42-.42.28-.02.44.12.48.42v.4h.68c.04-.07.06-.13.06-.17.11-.3.3-.42.57-.34.26.08.38.27.34.57h1.76c.49,0,.87.02,1.13.06.38.04.68.08.91.11.38.11.6.28.68.51.23.45.23,1.15,0,2.1-.26.98-.4,1.55-.4,1.7,0,.79.04,2.12.11,3.97v.91c.07,2.01.07,3.65,0,4.93-.19,3.21-.28,5.37-.28,6.47.15.11.21.25.17.4,0,.11-.06.21-.17.28l.11,1.76c.23.08.34.23.34.45,0,.19-.1.32-.28.4.04.34.08.66.11.96.15,0,.28.02.4.06.3.08.43.26.37.54-.06.28-.22.41-.48.37h-.11l.23,1.13c.26.91.57,1.74.91,2.5.11-.04.21-.06.28-.06.3-.04.47.1.51.4.04.23-.06.4-.28.51.38.57.81,1.06,1.31,1.48.26.19.55.38.85.57.11,0,.97.06,2.58.17,1.61.11,2.85.19,3.72.23h.11c.08-.11.19-.19.34-.23.08,0,.15.02.23.06.64-.23,1.25-.49,1.81-.79l-.06-.11c-.08-.26.04-.45.34-.57.23-.04.4.04.51.23,1.21-.79,1.99-1.62,2.33-2.5.68-1.81.96-5.56.85-11.23,0-1.55-.06-3.74-.17-6.58-.11-2.84-.17-4.73-.17-5.67,0-.11,0-.48-.03-1.11-.02-.62-.03-1.12-.03-1.5,0-1.32.19-2.23.57-2.72.07-.11.19-.19.34-.23h.23c.15-.04.36-.06.62-.06h.97c.15,0,.4-.02.74-.06.04-.04.07-.06.11-.06.11-.07.23-.07.34,0,.49-.07.87-.11,1.13-.11.57-.08,1.04-.1,1.42-.06.53.04.93.17,1.19.4.19.15.34.44.45.85l.06.06c.15.19.17.38.06.57.04.26.06.55.06.85.04.3.06.66.06,1.08.15.08.23.21.23.4,0,.15-.08.28-.23.4.04.57.04,1.19,0,1.87,0,.83-.02,2.12-.06,3.86-.04,1.32-.06,2.14-.06,2.44,0,.26.02.62.06,1.08.11.08.17.19.17.34,0,.11-.04.23-.11.34.23,4.12.28,7.28.17,9.47-.04.95-.11,1.81-.23,2.61v.57c0,.11-.04.23-.11.34-.04.11-.08.25-.11.4h.11c.3,0,.45.15.45.45s-.15.45-.45.45h-.29l-.45,1.76s.09.02.17.06c.19.11.25.28.17.51-.04.11-.11.21-.23.28l-.06.06-.45.11c-.23.53-.49,1.04-.79,1.53.15.04.25.15.28.34.04.27-.1.44-.4.51-.15.04-.32.08-.51.11l-.45.45c-3.03,3.25-5.92,5.37-8.68,6.35-1.02.34-2.72.45-5.1.34-.11.11-.25.17-.4.17-.19,0-.32-.08-.4-.23-2.5-.11-4.57-.61-6.21-1.5-1.65-.89-3.15-2.31-4.51-4.28-.08.08-.17.11-.28.11-.3,0-.45-.15-.45-.45v-.74l-.06-.06h-.06c-.3,0-.45-.15-.45-.45,0-.08.02-.15.06-.23-.64-.98-1.08-1.8-1.3-2.44-.11-.11-.17-.23-.17-.34v-.11l-.57-2.04c-.04-.08-.06-.17-.06-.28v-.06l-.34-1.87c-.15-.04-.26-.15-.34-.34-.04-.23.04-.4.23-.51-.15-1.29-.26-2.7-.34-4.25-.04-.08-.06-.15-.06-.23s.02-.13.06-.17c-.04-.49-.06-.98-.06-1.48-.23-.08-.34-.23-.34-.45s.11-.38.34-.45v-1.25c0-.76-.06-2.73-.17-5.93-.11-3.19-.13-5.62-.06-7.29-.11-.07-.19-.17-.23-.28-.04-.23.04-.4.23-.51" style="fill:#db0a17;"/><path d="m214.6,40.66v.79c.11,0,.21-.02.28-.06h.11c-.04-.11-.11-.28-.23-.51l-.17-.23Zm-1.02-.11c-.23-.04-.47-.06-.74-.06.08.3.17.59.28.85.19.04.34.06.45.06v-.85Zm-.74-30s.09.08.17.11c-.08-.23-.15-.47-.23-.74,0,.23.02.44.06.62m.06,3.29h.34v1.02h-.4l-.11,1.13c.19.11.28.26.28.45v.11c.34-1.55.43-3.01.28-4.37-.04.04-.1.06-.17.06h-.23v1.59Zm-.17,25.63c.38,0,.72.02,1.02.06l-1.08-1.42c0,.53.02.98.06,1.36m-.96.91l-.74-.06.11.57c.04.19-.02.34-.17.45h.06c.45-.04.77-.06.96-.06-.08-.26-.15-.57-.23-.91m-.11-2.44c-.23.04-.47.08-.74.11.04.64.06,1.06.06,1.25l.68.06v-1.42Zm.06-1.02v-.23l-1.02-1.53c.11.53.19,1.15.23,1.87.26-.04.51-.08.74-.11h.06Zm-.23-28.7c-.04-.11-.06-.23-.06-.34-.34-.04-.72-.07-1.13-.11v.51c.42-.04.81-.06,1.19-.06m-1.19-1.47c.23,0,.43.02.62.06l-.62-.62v.57Zm-.06,13.95c.04.3.09.6.17.91.3-.3.59-.6.85-.91h-1.02Zm1.59-10.15c-.04-.45-.09-.89-.17-1.3-.42,0-.87.02-1.36.06,0,.38-.02.81-.06,1.3.95-.04,1.48-.06,1.59-.06m.06,1.7c-.57.04-1.13.1-1.7.17l-.06.96v.45c.42-.04,1-.04,1.76,0v-1.59Zm1.08,4.42c-.04.15-.15.25-.34.28-.04.42-.1.79-.17,1.13-.08.34-.28.47-.62.4-.34-.07-.47-.28-.4-.62.08-.26.13-.57.17-.91-.11,0-.27,0-.48-.03-.21-.02-.41-.03-.6-.03h-.45c0,.98.02,1.91.06,2.78h1.81c.23-.38.4-.77.51-1.19.23-.64.4-1.25.51-1.81m-1.14-1.81h-1.76v1.02c.23,0,.54.01.94.03.4.02.63.03.71.03.04-.34.07-.7.11-1.08m-1.93,23.25c-.3,0-.68.02-1.13.06.04.34.06.68.06,1.02.34,0,.72.02,1.14.06,0-.23-.02-.6-.06-1.13m-.11-2.27c-.27.04-.62.06-1.08.06.04.49.06.91.06,1.25.45-.04.83-.06,1.13-.06,0-.45-.04-.87-.11-1.25m-.23-.96c-.08-.15-.13-.28-.17-.4-.15-.3-.08-.53.23-.68.04-.04.07-.06.11-.06l-.11-.23h-.96c0,.38.02.83.06,1.36h.85Zm-.96-2.38h.34l-.34-.51v.51Zm.57-19.96l-.68.11c0,.42-.02.85-.06,1.3.23-.04.45-.06.68-.06v-.51l.06-.85Zm-.11,2.38c-.23,0-.44.02-.62.06-.04.3-.06.61-.06.91h.68v-.96Zm.17-4.31c.04-.49.06-.93.06-1.3-.26.04-.57.06-.91.06l.11,1.25h.74Zm.06-2.89h-1.08c.04.19.08.4.11.62.34,0,.66-.02.96-.06v-.57Zm-.23,9.19h-.74c0,.19-.02.6-.06,1.22-.04.62-.08,1.11-.11,1.45.34.04.66.06.96.06-.04-.83-.06-1.74-.06-2.72m.17,3.74c-.38,0-.76-.02-1.14-.06v1.02h1.25c-.04-.3-.08-.62-.11-.96m-1.19,1.98v.62c.38-.19.72-.4,1.02-.62h-1.02Zm1.25-15.94c0-.45-.02-.89-.06-1.3-.53-.38-1.1-.7-1.7-.96.04.11.09.3.17.57.15.53.28,1.1.4,1.7h1.19Zm.74,33.57c-.45-.04-.85-.06-1.19-.06v.45c0,.34-.17.51-.51.51s-.51-.17-.51-.51v-.4c-.23,0-.44.02-.62.06.19.34.4.62.62.85.11.08.33.14.65.2.32.06.73.08,1.22.08.19,0,.42-.02.68-.06-.11-.07-.19-.17-.23-.28-.04-.26-.08-.55-.11-.85m-2.55-27.45l-.34.06c.07.34.09.7.06,1.08,0,.08-.02.15-.06.23.11,0,.21-.02.28-.06.04-.45.06-.89.06-1.31m.11,17.64v-.11l-.68-1.13v1.19c.23.04.45.06.68.06m0,1.08l-.68-.11c0,.11-.02.23-.06.34v.85c.26,0,.51-.02.74-.06v-1.02Zm.06,2.04c-.23.04-.51.06-.85.06-.04.53-.06.98-.06,1.36h.34c.19-.04.4-.06.62-.06-.04-.53-.06-.98-.06-1.36m.06,2.38c-.19,0-.38.02-.57.06h-.45c.04.45.07.85.11,1.19.26,0,.59-.02.96-.06,0-.3-.02-.7-.06-1.19m-1.08-14.41h.4c.04-.3.06-.62.06-.96l-.45-.06v1.02Zm-.06,1.02v1.36l.51-.17.23-.11c-.19-.07-.28-.23-.28-.45v-.62h-.45Zm.79-7.37c-.15.04-.32.08-.51.11-.08.27-.17.51-.28.74.23-.04.49-.07.79-.11v-.74Zm.11-3.46v-.11c-.34-.04-.66-.06-.96-.06l.23.34c.26-.04.51-.09.74-.17m-1.13,5.39c.11.72.19,1.51.23,2.38l.57.06c0-.23.06-1.1.17-2.61-.34.04-.66.09-.96.17m1.42,21.04c-.34.04-.64.06-.91.06-.08.15-.19.25-.34.28h-.23l.34.74.06.11c.38-.07.76-.11,1.13-.11,0-.34-.02-.7-.06-1.08m-.28-27.56l-.11-1.19-1.25.06v1.02c.42.04.87.08,1.36.11m-.17-2.21l-.11-.68c-.38,0-.74-.02-1.08-.06v.79l1.19-.06Zm-.28-1.7c-.04-.3-.1-.6-.17-.91-.15.11-.32.13-.51.06-.34-.11-.43-.32-.28-.62l.11-.45c-.19-.08-.42-.13-.68-.17.26.57.45,1.25.57,2.04h.11c.23,0,.51.02.85.06m-1.31,29.43c-.26,0-.51.02-.74.06l.57.79c.04.11.09.21.17.28h.06c-.04-.34-.06-.72-.06-1.13m0-2.38c-.38.04-.74.06-1.08.06.04.49.06.95.06,1.36.3-.04.62-.08.96-.11.04-.38.06-.81.06-1.3m.17-2.33h-1.3c.04.49.06.94.06,1.36.3,0,.68-.02,1.13-.06.04-.45.06-.79.06-1.02.04-.11.06-.21.06-.28m0-2.21h-1.36l.06,1.19h1.3v-1.19Zm-.51-2.78c-.3.04-.62.08-.96.11l.11,1.64h1.25c-.08-.64-.21-1.23-.4-1.76m-.96-.91c.23,0,.45-.04.68-.11v-.4c-.23,0-.47-.02-.74-.06l.06.57Zm1.13-2.95c-.38,0-.79-.02-1.25-.06,0,.45.02.93.06,1.42.42.04.81.06,1.19.06v-1.42Zm-.4-14.06c-.04-.34-.06-.64-.06-.91l-.79-.06c0,.38.02.7.06.96h.79Zm.45,11.97l-1.36-.06c.04.34.06.7.06,1.08.49.04.93.06,1.31.06v-1.08Zm-.06-1.02c0-.72-.06-1.4-.17-2.04-.34.3-.72.57-1.13.79v1.19l1.3.06Zm-1.3-15.03c-.08-.04-.17-.06-.28-.06.11.38.19.83.23,1.36,0,.23.02.49.06.79l.74.06c-.11-.91-.34-1.61-.68-2.1-.04,0-.06-.02-.06-.06m.85,5.1c-.53,0-1.02.02-1.47.06.11.04.21.08.28.11.49.23.89.45,1.19.68v-.85Zm-1.64,17.07c-.27.04-.55.06-.85.06v1.53h.91l-.06-1.59Zm-.06-1.02l-.06-.62c-.23,0-.47-.02-.74-.06v.74c.3,0,.57-.02.79-.06m.11,3.63h-.96v1.19h1.02l-.06-1.19Zm-.23-6.69l-.74-.06c.04.45.06.93.06,1.42l.74.06c-.04-.49-.06-.96-.06-1.42m.28,8.9h-1.02v.17c0,.11-.04.21-.11.28l.51.85.06.11h.62c0-.45-.02-.92-.06-1.42m-.34-11.06l-.85-.06.11,1.14.79.06c-.04-.42-.06-.79-.06-1.13m0-1.08v-.57c-.3.11-.62.23-.96.34v.17l.96.06Zm.11-10.72c-.04-.26-.06-.62-.06-1.08-.45,0-.93-.02-1.42-.06,0,.45.02.83.06,1.13h1.42Zm-.45-4.25c-.15,0-.3-.02-.45-.06h-.68c.04.45.06,1.06.06,1.81.04.11.06.23.06.34.45.04.91.06,1.36.06-.04-.23-.06-.43-.06-.62-.04-.64-.13-1.15-.28-1.53m-.45-1.08v-.06l-.91-.11v.17h.91Zm-.91,25.97c-.27-.04-.55-.06-.85-.06l.79,1.19h.06v-1.13Zm0-6.75c-.42,0-.78-.02-1.08-.06,0,.42-.02.89-.06,1.42l1.19.06c0-.49-.02-.96-.06-1.42m.06,2.44l-1.19-.06-.06.74h1.25v-.68Zm-.23-4.71l-1.02-.06c.04.42.06.83.06,1.25.34.04.7.06,1.08.06l-.11-1.25Zm.23,6.41h-1.25c-.04.57-.06,1.06-.06,1.47l1.3.11v-1.59Zm-.91-22.4h-.96v2.16l1.14.06c0-.15-.02-.26-.06-.34,0-.75-.04-1.38-.11-1.87m-.17-1.02s.02-.09.06-.17c-.34,0-.66-.02-.97-.06v.23h.91Zm-1.19,23.42h-.06v.06l.06-.06Zm-.74-23.42c0-.07-.02-.15-.06-.23h-.62v.23h.68Zm.74,16.9c-.57-.04-1.08-.08-1.53-.11v1.36c.49.04,1.02.06,1.59.06,0-.45-.02-.89-.06-1.3m-.62-15.88h-.85c0,.08,0,.26-.03.54-.02.28-.03.5-.03.65v.91h.91v-2.1Zm.62,21.38l.06-.79c-.6,0-1.15-.02-1.64-.06v.51c.23.04.41.1.57.17l.23.23c.26-.04.53-.06.79-.06m.11-3.18c-.61,0-1.17-.02-1.7-.06v1.36c.49.04,1.04.06,1.64.06.04-.49.06-.95.06-1.36m1.42-14.97l-1.14-.06v.85c0,.34-.17.51-.51.51s-.51-.17-.51-.51v-.91h-.96c-.04.45-.1.87-.17,1.25.64.08,1.3.17,1.98.28.19.04.66.09,1.42.17-.08-.45-.11-.98-.11-1.59m-4.14,14.92h-1.08c.04.53.07.96.11,1.3.15,0,.32.02.51.06h.45v-1.36Zm.17-19.17v-.23c-.45,0-.91.02-1.36.06v.17h1.36Zm-.11,16.79c-.45-.04-.89-.06-1.3-.06,0,.38.02.85.06,1.42h1.25v-1.36Zm-.06-12.7l-1.3-.06v1.19l1.13.11c.07-.38.13-.79.17-1.25m.11-3.06h-1.42c-.04.57-.04,1.23,0,1.99l1.36.06v-.85c0-.15,0-.37.03-.65.02-.28.03-.46.03-.54m-2.78,5.16c-.04.15-.13.27-.28.34,0,.27-.02.72-.06,1.36.3.04.45.21.45.51,0,.34-.17.51-.51.51-.04.6-.06,1.13-.06,1.59.04.11.06.21.06.28,0,.11-.04.21-.11.28-.04.76-.06,1.42-.06,1.99.11.08.17.19.17.34s-.06.27-.17.34c0,.38.02.7.06.96,0,.11.02.23.06.34.08.04.19.08.34.11.19.04.42.08.68.11.11-.08.25-.11.4-.11s.28.08.4.23c1.25.15,2.51.15,3.8,0,.08-.15.21-.25.4-.28.19-.04.34.04.45.23,1.51-.23,2.76-.62,3.74-1.19-.04-.23.06-.4.28-.51.27-.15.57-.28.91-.4.72-.72,1.12-1.57,1.19-2.55.08-.72-.12-1.31-.6-1.79-.47-.47-1.18-.95-2.13-1.45-.38-.19-.77-.32-1.16-.4-.4-.08-.9-.14-1.5-.2-.6-.06-1.06-.1-1.36-.14-1.97-.3-3.76-.47-5.39-.51m.34-2.21h-.97c.04.34.06.66.06.96.15.04.25.11.28.23h.62v-1.19Zm0-2.95c-.42.04-.85.06-1.3.06.04.38.09.83.17,1.36l.06.51h1.08c-.04-.72-.04-1.36,0-1.93m.06-1.02l.06-.11c-.45,0-.93.02-1.42.06v.11c.45,0,.91-.02,1.36-.06m0,16.67h-1.47c0,.53-.02,1.04-.06,1.53.53,0,1.06-.02,1.59-.06-.04-.57-.06-1.06-.06-1.47m.17,2.5c-.61.04-1.17.06-1.7.06-.04.45-.06.89-.06,1.31.57-.04,1.19-.06,1.87-.06-.04-.3-.08-.74-.11-1.3m-2.21-10.27c-.08,0-.51-.02-1.31-.06v1.42h1.25c.04-.49.06-.94.06-1.36m.11-2.38c-.45-.04-.93-.06-1.42-.06v1.36h.62c.34,0,.59.02.74.06.04-.49.06-.95.06-1.36m-1.47,27.28v2.27c.49-.04.95-.06,1.36-.06.04-.6.06-1.34.06-2.21h-1.42Zm0-2.1v1.08h1.42c0-.3-.02-.64-.06-1.02-.26,0-.72-.02-1.36-.06m0-2.33v1.3c.68.04,1.13.06,1.36.06v-1.36h-1.36Zm0-2.66v1.64h1.3v-1.76c-.38.04-.81.08-1.3.11m1.25-15.43h-1.25v1.48h.51l.62.06.11-1.53Zm-1.3,13.27v1.14c.53-.04.98-.08,1.36-.11v-.96c-.34,0-.79-.02-1.36-.06m5.73-3h-.51c-.19-.04-.36-.06-.51-.06-.11.19-.26.28-.45.28s-.34-.09-.45-.28c-.68,0-1.32.02-1.93.06v.23c0,.34-.17.51-.51.51s-.51-.17-.51-.51v-.17c-.3,0-.59.02-.85.06v1.87c.64.04,1.1.06,1.36.06,0-.15.02-.28.06-.4,0-.23.04-.4.11-.51.15-.26.43-.47.85-.62.53-.15,1.34-.21,2.44-.17h.91v-.34Zm-4.82-2.27c-.3,0-.6.02-.91.06v1.3c.26-.04.55-.06.85-.06,0-.42.02-.85.06-1.31m.06-2.61h-.96v1.59h.91c.04-.53.06-1.06.06-1.59m.17-2.84c-.12,0-.32-.02-.62-.06h-.51v1.87h1.02c.04-.53.08-1.14.12-1.81m.23-9.93c-.49-.04-.96-.06-1.42-.06.04.49.07,1.02.11,1.59.49,0,.98.02,1.47.06-.04-.41-.1-.94-.17-1.59m-.28-2.78c-.49,0-1,.02-1.53.06.11.49.21,1.02.28,1.59l1.42.11v-.34c-.08-.57-.13-1.04-.17-1.42m0-1.02v-.11l-1.76.17c.6-.04,1.19-.06,1.76-.06m-2.04,33.69c-.49.04-.95.08-1.36.11v2.27c.26,0,.72-.02,1.36-.06v-2.32Zm0-2.1h-1.36v1.19c.42-.04.87-.07,1.36-.11v-1.08Zm0-2.38h-1.42v1.36h1.42v-1.36Zm0-2.55h-.45c-.38.04-.7.06-.96.06v1.48h1.42v-1.53Zm-.06-2.21c-.53-.04-1-.04-1.42,0l.06,1.25c.26,0,.57-.02.91-.06h.45v-1.19Zm0-2.83l-1.42.23v1.59c.42-.04.89-.04,1.42,0v-1.81Zm0-2.33c-.26,0-.76.04-1.47.11l.06,1.42,1.42-.23v-1.3Zm0-2.72l-1.47.11v1.7c.68-.08,1.17-.11,1.47-.11v-1.7Zm0-2.95c-.15-.04-.3-.06-.45-.06-.42,0-.77.02-1.08.06v2.04l1.53-.11v-1.93Zm.06-2.38c-.15.04-.32.06-.51.06-.42.04-.79.09-1.13.17l.06,1.13c.3-.04.66-.06,1.08-.06.15,0,.32.02.51.06v-1.36Zm.06-2.55h-1.7v1.76c.34-.08.68-.13,1.02-.17.23,0,.45-.02.68-.06v-1.53Zm0-2.38c-.57,0-1.14-.02-1.7-.06v1.47c.49-.04,1.06-.06,1.7-.06v-1.36Zm-.06,30.74c-.6.04-1.06.06-1.36.06v.79c0,.23-.11.4-.34.51.23.04.47.08.74.11.79.11,1.49.19,2.1.23.3.04.57.06.79.06h.17c.04-.08.06-.19.06-.34.07-.38.13-.89.17-1.53-.38,0-.81.02-1.3.06v.57c0,.34-.17.51-.51.51s-.51-.17-.51-.51v-.51Zm-.11-33.4c-.53,0-1.06-.02-1.59-.06v1.65c.6.04,1.17.06,1.7.06l-.11-1.65Zm-.4-2.55l-1.19.06v1.42c.45,0,.93.02,1.42.06l-.23-1.53Zm-1.98,23.42c-.3.04-.59.08-.85.11.04.42.06.81.06,1.19v.23c.26-.07.55-.13.85-.17l-.06-1.36Zm.06,2.38c-.3.04-.61.11-.91.23,0,.38-.02.83-.06,1.36.3-.07.62-.13.96-.17v-1.42Zm-.06-4.82c-.3.08-.57.15-.79.23h-.28c.07.49.13.93.17,1.3l.91-.11v-1.42Zm.06,7.26c-.38.04-.74.11-1.08.23l-.11,1.31c.08-.08.17-.11.28-.11l.91-.11v-1.3Zm-.28-25.86l-.79-.06s-.09-.02-.17-.06c.08.83.11,1.46.11,1.87h.85v-1.76Zm0-2.27l-1.02.06v1.19c.11-.04.23-.06.34-.06l.68.06v-1.25Zm.34,30.46c-.3.04-.59.08-.85.11-.19.04-.34-.02-.45-.17l-.06.68c0,.3-.02.59-.06.85.45-.11.93-.19,1.42-.23v-1.25Zm-.28-25.41h-.96l-.17,1.7c.34-.08.72-.13,1.13-.17v-1.53Zm.28,30.85c-.53,0-1.02-.04-1.47-.11.04.38.09.7.17.96l.68.17c.23.04.49.1.79.17-.11-.11-.17-.24-.17-.4v-.79Zm0-3.17c-.53.08-1.02.15-1.47.23v1.81c.45.08.94.11,1.47.11v-2.15Zm-.17-14.41c-.49.08-.95.11-1.36.11.04.34.11.91.23,1.7.04,0,.06-.02.06-.06.34-.08.72-.17,1.14-.28l-.06-1.48Zm-.11-10.72c-.38.04-.72.09-1.02.17h-.17c-.08.79-.13,1.53-.17,2.21.34-.23.79-.42,1.36-.57v-1.81Zm.11,7.94c-.53.04-1.04.09-1.53.17,0,.42.02.83.06,1.25,0,.15.02.3.06.45.42,0,.89-.04,1.42-.11v-1.76Zm-.06-3.01c-.38.11-.62.25-.74.4-.23.26-.47.28-.74.06,0-.04-.02-.06-.06-.06v1.76c.53-.08,1.04-.13,1.53-.17v-1.98Zm-.06-2.04c-.42.11-.72.26-.91.45-.15.11-.32.15-.51.11,0,.38-.02.77-.06,1.19.34-.34.85-.58,1.53-.74l-.06-1.02Zm16.33,21.15c-.08-.08-.11-.17-.11-.28v-.06l-1.53-2.55c-1.06-1.81-1.95-3.23-2.67-4.25-.11-.11-.4-.64-.85-1.59-.15-.3-.28-.53-.4-.68h-.17c-.3.04-.49-.11-.57-.45v-.06c-.11-.04-.23-.06-.34-.06-.34-.04-.76-.06-1.25-.06-1.02-.04-1.72.02-2.1.17l-.28.06v.17c-.04.15-.06.34-.06.57-.04.45-.04,1.1,0,1.93,0,.6,0,1.55.03,2.84.02,1.29.03,2.19.03,2.72.04,2,.04,3.59,0,4.76.23,0,.44.02.62.06.34.08.48.27.43.6-.06.32-.24.46-.54.42-.19-.04-.38-.06-.57-.06-.04.68-.09,1.21-.17,1.59-.04.26-.1.49-.17.68-.15.26-.32.43-.51.51-.15.04-.36.04-.62,0-.23,0-.49-.02-.79-.06-.68-.04-1.42-.13-2.21-.28-.87-.11-1.59-.24-2.15-.4-.3-.04-.55-.09-.74-.17-.11-.07-.21-.13-.29-.17-.15-.07-.26-.19-.34-.34-.3-1.02-.34-3.1-.11-6.24.3-4.2.45-6.31.45-6.35,0-.98-.09-2.23-.28-3.74-.26-1.93-.42-3.2-.45-3.8-.19-2.95-.06-6.99.4-12.14v-.06c-.08-.11-.11-.23-.11-.34,0-.15.06-.27.17-.34,0-.26-.04-1.17-.11-2.72-.04-.76-.06-1.36-.06-1.81v-.28l.11-.79v-.06c0-.11.02-.21.06-.28l.11-.45c.11-.3.34-.42.68-.34.26.11.38.3.34.57.23,0,.47-.02.74-.06.08-.23.25-.34.51-.34.23,0,.38.11.45.34.45-.04,1.74-.13,3.86-.28,0-.15.02-.32.06-.51.07-.3.27-.43.6-.37s.46.25.43.6c-.04.08-.06.15-.06.23,1.47-.08,2.74-.13,3.8-.17v-.06c.04-.34.23-.49.57-.45.3.04.45.21.45.51.95,0,1.83.02,2.67.06,3.67.19,6.58.93,8.73,2.21.08-.07.17-.11.28-.11.34-.04.53.11.57.45v.28c1.25.91,2.23,2.04,2.95,3.4,1.55,2.99,1.66,6.52.34,10.61-.72,2.15-2.57,4.05-5.56,5.67-.08.04-.25.11-.51.23-.3.08-.53.15-.68.23-.27.11-.45.21-.57.28h-.06c.04.15.11.38.23.68.19.45.45,1,.79,1.65.68,1.21,1.59,2.7,2.72,4.48l2.49,3.74c.26.08.4.25.4.51v.06c1.02,1.47,1.72,2.44,2.1,2.89.3.38.57.76.79,1.13.19.3.32.57.4.79.15.42.09.74-.17.97-.11.11-.26.19-.45.23-.11.04-.26.06-.45.06-.26.04-.62.04-1.08,0-.23,0-.59-.02-1.08-.06-.34-.04-.55-.06-.62-.06-.11,0-.45.02-1.02.06-.68.04-1.15.08-1.42.11-.57,0-1.04-.02-1.42-.06-.53-.11-.93-.3-1.19-.57-.49-.45-.96-1.19-1.42-2.21l-.62-1.36c-.15-.07-.25-.21-.28-.4v-.11c-.04-.08-.1-.15-.17-.23l-.17-.34c-.11.04-.21.06-.28.06-.34,0-.51-.17-.51-.51v-.62Z" style="fill:#db0a17;"/><path d="m250.23,39.81c.15.53.28,1.04.4,1.53h.06c.04-.15.04-.36,0-.62,0-.27-.02-.57-.06-.91h-.4Zm-.17-1.02h.34c-.15-.53-.3-1-.45-1.42-.11-.26-.21-.47-.28-.62.11.72.25,1.4.4,2.04m-.96-33.35v.51c.04.76.08,1.3.11,1.64.26-.42.47-.89.62-1.42.08-.3.11-.58.11-.85-.3.04-.59.08-.85.11m-.11-1.02c.26-.04.51-.08.74-.11h.17c-.04-.26-.13-.47-.29-.62-.15-.19-.4-.3-.74-.34.04.34.08.7.11,1.08m-.74,16.79c.04.64.06,1.23.06,1.76.19-.15.34-.32.45-.51.45-.76.64-1.38.57-1.87v.11c-.08.27-.23.44-.45.51-.11.04-.25.04-.4,0h-.23Zm.96,18.66h-1.14c.08.3.13.55.17.74.15.11.23.27.23.45v.28s-.02.08-.06.11h.4c.3,0,.57-.02.79-.06-.15-.49-.28-1-.4-1.53m-.85-20.08h.11l.23.06c.15.08.27.14.37.2.09.06.16.14.2.25-.11-.26-.32-.49-.62-.68-.15-.11-.34-.21-.57-.28l.06.4c.08,0,.15.02.23.06m.23,16.96l-1.02.23.34,1.93c.38-.04.74-.06,1.08-.06-.11-.68-.25-1.38-.4-2.1m-.51-31.13c-.34.04-.7.08-1.08.11.04.6.06,1.44.06,2.5,0,.08-.02.15-.06.23.23,0,.38.02.45.06.38.04.66.02.85-.06-.08-.53-.15-1.34-.23-2.44v-.4Zm-.06-1.02c-.08-.49-.15-.95-.23-1.36-.26-.04-.47-.06-.62-.06-.23-.04-.43-.06-.62-.06.15.45.26,1,.34,1.65.38-.08.76-.13,1.13-.17m-.96,35.33h-.74c.08.57.17,1.06.28,1.47v.11h.85s-.06-.08-.06-.11c-.04-.08-.06-.15-.06-.23-.08-.26-.17-.68-.28-1.25m-.96-18.43c.11.91.17,1.65.17,2.21v.06c.42-.08.77-.17,1.08-.28-.04-.07-.06-.17-.06-.28,0-.57-.02-1.17-.06-1.81l-1.13.11Zm.45,15.71c-.23.08-.45.13-.68.17.08.3.15.66.23,1.08l.06.45h.68l-.28-1.7Zm-.57-16.73l1.13-.11c0-.38-.04-.81-.11-1.31-.34-.08-.74-.13-1.19-.17.04.42.09.95.17,1.59m-.29,15.88l.51-.11h-.57l.06.11Zm.29-30.51c-.61.08-1.25.13-1.93.17.04.94.09,1.68.17,2.21v.17c.87-.04,1.44-.06,1.7-.06h.11v-.11c0-1.02-.02-1.81-.06-2.38m-.68,34.08h-1.59c.08.64.17,1.19.28,1.64h1.59l-.28-1.64Zm.57-35.1c-.08-.72-.23-1.32-.45-1.81h-1.7c.11.57.19,1.23.23,1.98.68-.04,1.32-.09,1.93-.17m-2.27,16.84c.04.68.09,1.32.17,1.93,0,.11-.04.23-.11.34.6,0,1.13-.02,1.59-.06v-.17c0-.53-.06-1.23-.17-2.1-.45.04-.95.06-1.47.06m1.3,15.88c-.45.04-.91.1-1.36.17.04.23.08.59.11,1.08v.11h1.47l-.06-.28c-.08-.42-.13-.77-.17-1.08m-1.36-16.9c.49,0,.96-.02,1.42-.06-.08-.72-.13-1.31-.17-1.76h-1.3c0,.64.02,1.25.06,1.81m1.14,15.88l-.06-.23h-1.25c.04.11.06.25.06.4.42-.04.83-.09,1.25-.17m-2.78-14.8c.08.76.11,1.42.11,1.98,0,.08-.02.15-.06.23h.91c-.08-.08-.11-.15-.11-.23-.08-.64-.13-1.3-.17-1.98h-.68Zm1.13-15.65c-.38.04-.76.06-1.13.06.08.76.13,1.44.17,2.04v.23h1.13v-.06c-.08-.53-.13-1.29-.17-2.27m-.34,33.86c-.3,0-.62-.02-.96-.06.07.68.15,1.27.23,1.76l1.02-.06c-.11-.45-.21-1-.28-1.64m-.91-19.23h.74c-.04-.57-.06-1.19-.06-1.87-.27.04-.55.06-.85.06,0,.42.06,1.02.17,1.81m1.19-15.65c-.08-.79-.17-1.46-.28-1.99-.34,0-.72.02-1.13.06l.23,1.98c.42,0,.81-.02,1.19-.06m-.45,32.78c-.34.04-.68.06-1.02.06l.06.85.06.11c.38.04.72.06,1.02.06-.04-.49-.08-.85-.11-1.08m-.11-1.02c0-.15-.02-.3-.06-.45h-1.08c0,.19.02.38.06.57.38-.04.74-.08,1.08-.11m-2.1-15.08c.07.6.11,1.17.11,1.7,0,.19-.1.34-.28.45h.4c.15,0,.32.02.51.06-.04-.08-.06-.15-.06-.23,0-.53-.04-1.19-.11-1.98h-.57Zm-.17-1.02h.62c-.11-.72-.17-1.29-.17-1.7-.27,0-.55.02-.85.06.15.53.28,1.08.4,1.65m.74-14.52c-.38,0-.79.02-1.25.06.15.83.23,1.55.23,2.15h1.25s-.06-.07-.06-.11c-.04-.64-.1-1.34-.17-2.1m-.11-1.02l-.23-1.98c-.3.04-.77.08-1.42.11.04.3.15.95.34,1.93.49,0,.93-.02,1.3-.06m-.06,34.71l-1.76-.06c.08.79.11,1.42.11,1.87.64-.04,1.27-.06,1.87-.06-.08-.45-.15-1.04-.23-1.76m-.23-1.87c-.53,0-1.08.02-1.65.06.04.23.06.47.06.74l1.7.06-.11-.85Zm-.17-1.02c-.04-.23-.08-.43-.11-.62h-1.3c-.04.23-.06.45-.06.68.49,0,.98-.02,1.48-.06m-.68-13.16c-.15-.08-.23-.21-.23-.4,0-.53-.04-1.1-.11-1.7-.3.04-.62.06-.96.06.08.57.15,1.02.23,1.36.07.34-.06.55-.4.62h-.06c.42,0,.93.02,1.53.06m-1.42-3.01c.3-.04.6-.06.91-.06-.11-.57-.25-1.1-.4-1.59l-.57.06h-.23l.28,1.59Zm-.28,19h-.79c.04.64.06,1.25.06,1.81v.06h.85c0-.45-.04-1.08-.11-1.87m.68-33.52h-1.47c.04.34.07.66.11.96.19.08.32.19.4.34.08.3-.02.51-.29.62v.28c.46-.04.95-.06,1.48-.06,0-.6-.08-1.32-.23-2.15m-1.59,15.6l.28,1.42c.04.15,0,.3-.11.45h.68c-.19-.04-.3-.17-.34-.4-.08-.42-.15-.91-.23-1.48h-.28Zm.79,16.16c-.27.04-.55.06-.85.06.04.23.06.45.06.68h.85c0-.26-.02-.51-.06-.74m0-1.02c0-.23.02-.45.06-.68-.38-.04-.74-.06-1.08-.06l.06.79c.34,0,.66-.02.96-.06m-.96-16.16h.34c-.08-.6-.15-1.11-.23-1.53l-.34.06.23,1.48Zm1.59-15.6c-.15-.87-.27-1.49-.34-1.87-.57.04-1.08.08-1.53.11.04.04.1.28.2.74.09.45.16.79.2,1.02h1.48Zm-2.04,12.99v.06l.28-.06h-.28Zm-.06-9.75l-.17.06h.17v-.06Zm-.23,31.3h-1.13c.07.6.13,1.15.17,1.65,0,.08-.02.15-.06.23h1.08v-.06c0-.57-.02-1.17-.06-1.81m-.17-1.7c-.38,0-.77-.02-1.19-.06l.11.74h1.14c0-.23-.02-.45-.06-.68m-.57-19.74l-.68.06c.08.04.32.04.74,0l-.06-.06Zm-.85,3.8c.07.6.11,1.13.11,1.59h.51c.34-.04.76-.06,1.25-.06-.04-.04-.08-.09-.11-.17l-.28-1.53-1.47.17Zm1.3,14.92l-.11-.91h-.11c-.42-.08-.79-.15-1.13-.23l.17,1.08c.42.04.81.06,1.19.06m-1.47-15.94l1.47-.17-.23-1.48c-.57.08-.95.09-1.13.06-.15-.04-.27-.06-.34-.06l.17,1.36.06.28Zm1.76-14.8c-.72.04-1.38.06-1.98.06.04.94.06,1.44.06,1.47.72-.08,1.42-.21,2.1-.4-.04-.34-.09-.72-.17-1.13m-.17-1.02l-.4-1.76c-.45,0-.93.02-1.42.06v1.76c.53,0,1.14-.02,1.82-.06m-2.21,32.72c-.61,0-1.3-.02-2.1-.06v.79h2.21l-.11-.74Zm-.11-1.02c-.08-.53-.15-.98-.23-1.36-.72-.3-1.25-.68-1.59-1.13-.04-.07-.08-.13-.11-.17h-.11c.04.94.06,1.81.06,2.61.76.04,1.42.06,1.98.06m-2.04-25.63v.68l.11-.68h-.11Zm1.59-2.32c-.49.04-1.02.06-1.59.06v1.25c.19,0,.38.02.57.06.26-.49.64-.89,1.13-1.19-.04-.08-.08-.13-.11-.17m-1.64,15.43v.4l.34-.34c-.11-.04-.23-.06-.34-.06m1.98-2.21h-.23c-.57.04-1.17.08-1.81.11v1.08c.53.04,1.02.1,1.48.17.15.04.26.13.34.28.11,0,.23-.02.34-.06v-.06c0-.45-.04-.96-.11-1.53m-.17-1.02v-.28c-.15-.76-.25-1.34-.28-1.76-.42-.11-.76-.26-1.02-.45l-.57.06v2.55c.6-.04,1.17-.08,1.7-.11h.17Zm-.23-14.8c-.19.04-.36.06-.51.06-.34.04-.72.06-1.13.06.04.49.06,1,.06,1.53.57,0,1.11-.02,1.64-.06,0-.15-.02-.68-.06-1.59m0-1.02v-1.81c-.61,0-1.27-.02-1.99-.06.11.64.19,1.3.23,1.98.42,0,.79-.02,1.13-.06.23,0,.43-.02.62-.06m-2.61,8.28c-.3.08-.64.13-1.02.17v1.48c.38-.08.72-.13,1.02-.17v-1.48Zm-.06,2.5c-.26.08-.59.15-.96.23-.04.49-.06,1.04-.06,1.64l1.02-.17v-1.7Zm.11-4.82c-.34.04-.72.06-1.14.06.04.45.06.93.06,1.42.38-.08.72-.13,1.02-.17.04-.49.06-.92.06-1.3m0-2.21h-1.25c.04.42.06.85.06,1.31.45-.04.85-.08,1.19-.11v-1.19Zm.06,28.81l-1.36-.06v.96c.45-.04.91-.06,1.36-.06v-.85Zm-.17-19.05l-1.08.17c0,.6-.04,1.34-.11,2.21.45,0,.85.02,1.19.06v-2.44Zm.11,15.65c-.45.08-.93.13-1.42.17.04,1.02.07,1.74.11,2.16l1.36.06c0-.75-.02-1.55-.06-2.38m-.11-12.19c-.34-.04-.76-.06-1.25-.06l-.06,1.25c.45-.08.89-.11,1.3-.11v-1.08Zm3.52,17.41h-2.32v.85c0,.34-.17.51-.51.51s-.51-.17-.51-.51v-.79c-.45,0-.89.02-1.3.06v1.59c0,.19-.08.32-.23.4,1.89-.08,3.59-.13,5.1-.17-.04-.08-.06-.13-.06-.17-.04-.53-.1-1.12-.17-1.76m-3.4-8.28c-.49.19-.99.34-1.48.45,0,.42.02.87.06,1.36v.4c.45-.04.93-.11,1.42-.23v-1.98Zm-.06-6.18v-.85c-.45,0-.93.04-1.42.11v.79c.53-.04,1-.06,1.42-.06m0,3.63c-.45.08-.95.15-1.47.23v1.7c.53-.11,1.02-.25,1.47-.4,0-.04.02-.06.06-.06l-.06-1.47Zm0-2.61c-.45,0-.95.02-1.47.06v1.76c.53-.07,1.02-.15,1.47-.23v-1.59Zm-.06-19.79h-1.53l.28,1.59h1.3c0-.57-.02-1.1-.06-1.59m-.11-1.02c-.04-.72-.11-1.4-.23-2.04h-.4c-.34,0-.74-.02-1.19-.06.04.57.13,1.27.28,2.1h1.53Zm-2.27,26.6l-.28.06c.04.53.04,1.1,0,1.7h.34v-.51c-.04-.45-.06-.87-.06-1.25m-.06-2.89h-.23v1.87h.23v-1.87Zm.23,8.68h-.51v1.08c.19,0,.36-.02.51-.06v-1.02Zm-.11-3.01h-.34c0,.49-.02,1.15-.06,1.99h.51c-.04-.42-.08-1.08-.11-1.99m.17,5.05c-.19.04-.4.06-.62.06v1.98l.91-.06c-.19-.11-.28-.26-.28-.45v-1.53Zm-.28-13.44h-.34l-.06.06.11,1.65h.28v-1.7Zm.06-1.81l-.57.11.06.74.51-.06v-.79Zm.11-2.44h-.96l.17,1.53c.26-.04.51-.08.74-.11l.06-1.42Zm.17-3.06l-1.42.11.06.62.11,1.3h1.14c.04-.83.08-1.51.11-2.04m.11-2.61l-.68.17c-.38.08-.72.15-1.02.23l.11,1.3c.45-.04.96-.08,1.53-.11,0-.57.02-1.1.06-1.59m-.23-7.49c-.38,0-.89-.02-1.53-.06v1.7c.68-.08,1.23-.15,1.64-.23,0-.49-.04-.97-.11-1.42m.23,4.88s-.64.06-1.81.17c0,.57.02,1.15.06,1.76.23-.04.51-.09.85-.17l.91-.17v-1.59Zm-.57-7.43h-1.25c.04.45.06.95.06,1.48.6.04,1.08.06,1.42.06-.04-.38-.11-.89-.23-1.53m.51,4.99c-.34.04-.93.11-1.76.23,0,.45-.02.91-.06,1.36.04,0,.3-.02.79-.06.49-.04.85-.07,1.08-.11,0-.49-.02-.96-.06-1.42m-.68-6.01c-.11-.83-.19-1.55-.23-2.15-.45,0-.83-.02-1.13-.06-.08.04-.17.08-.28.11,0,.04.02.11.06.23,0,.15.04.36.11.62l.34,1.25h1.14Zm-1.14,21.1c-.3.04-.59.06-.85.06v1.65c.23-.04.55-.06.96-.06l-.11-1.65Zm-.06-1.02l-.06-.62c-.26.08-.51.13-.74.17v.51c.23,0,.49-.02.79-.06m.23,3.69c-.49,0-.83.02-1.02.06,0,.68-.02,1.34-.06,1.99.38,0,.74-.02,1.08-.06v-1.98Zm.06,3.01c-.38.04-.76.06-1.14.06l-.11,1.59v.11c.38-.04.77-.06,1.19-.06.04-.6.06-1.17.06-1.7m-.62-10.04h-.62l.11,1.87.68-.17-.17-1.7Zm-.28-2.89c-.15.04-.32.06-.51.06l.11,1.81h.57l-.11-1.19-.06-.68Zm.85,15.65c-.45,0-.89.02-1.3.06l-.17,1.76h1.42c.04-.76.06-1.36.06-1.81m-1.02-17.92c-.19.04-.36.06-.51.06l.11,1.25c.15,0,.32-.02.51-.06l-.11-1.25Zm.96,20.76h-1.47l-.11.68-.06.74c.53-.08,1.08-.13,1.65-.17v-1.25Zm-1.08-23.59c-.23.04-.43.06-.62.06l.17,1.81c.15,0,.32-.02.51-.06-.04-.6-.06-1.21-.06-1.81m1.02,25.86c-.57.04-1.12.09-1.65.17-.04.42-.06.77-.06,1.08-.04.42-.06.74-.06.96v.06c.15.08.38.08.68,0,.07-.04.24-.09.48-.17.24-.07.44-.11.6-.11v-1.99Zm-1.02-28.24c-.3.04-.57.08-.79.11l.11,1.3c.19,0,.4-.02.62-.06,0-.45.02-.91.06-1.36m.06-2.89h-1.08l.17,1.98c.23-.04.53-.07.91-.11v-1.87Zm-.06-2.38c-.42.04-.81.09-1.19.17l.11,1.19h1.13c0-.45-.02-.91-.06-1.36m-2.33-3.91c0-.38.19-.57.57-.57s2.33.08,5.84.23l.23.06-.06-.17c-.08-.34.06-.55.4-.62.34-.07.55.06.62.4l.06.4c.87.04,1.66.06,2.38.06.11-.07.25-.11.4-.11.07,0,.17.04.28.11.45,0,.91-.02,1.36-.06.04-.23.17-.36.4-.4.3-.04.51.08.62.34.42-.04.94-.08,1.59-.11v-.06c-.04-.34.11-.53.45-.57.34-.04.53.11.57.45v.06c.6-.04,1.08-.08,1.42-.11v-.06c-.04-.34.11-.53.45-.57.34-.04.53.11.57.45v.11c2.34-.15,4.29-.13,5.84.06.15.04.4.06.74.06.38.04.66.08.85.11.72.08,1.27.34,1.65.79.64.76.77,1.91.4,3.46-.3,1.13-.77,2-1.42,2.61.08.34-.06.55-.4.62-.19.04-.36-.02-.51-.17-.3.11-.72.13-1.25.06-.91-.07-1.38-.11-1.42-.11-.23,0-1.08,0-2.55.03-1.47.02-2.7.03-3.69.03-1.47.04-2.66.09-3.57.17-.53.04-.96.08-1.3.11-.3.08-.49.13-.57.17-.53.27-.93.62-1.19,1.08,0,.11-.02.23-.06.34-.04.04-.09.08-.17.11-.11.38-.23,1.46-.34,3.23-.04.23-.08.51-.11.85-.11.45-.17.72-.17.79-.08.49-.06.85.06,1.08l.23.23.79-.11c.08-.04.15-.06.23-.06h.51c4.2-.49,7.33-.49,9.41,0,.11.04.21.1.28.17h.34c1.1,0,2.04.06,2.84.17,0-.3.15-.47.45-.51.34-.04.53.11.57.45l.06.28c.49.15.93.34,1.3.57.72.45,1.12,1.05,1.22,1.79.1.74-.14,1.6-.71,2.58-.61.98-1.87,1.61-3.8,1.87-1.17.19-3.01.23-5.5.11-2.84-.11-4.61-.17-5.33-.17-.76.04-1.38.11-1.87.23-.38.11-.64.25-.79.4,0,.04-.02.09-.06.17v.68c0,.45.02,1.1.06,1.93,0,.23.06,1.25.17,3.06,0,.04-.04.57-.11,1.59-.04.45.02.77.17.96.15.23.42.44.79.62.08-.07.17-.11.28-.11.3-.04.49.1.57.4.38.11.83.21,1.36.28h.06c.11-.11.23-.17.34-.17.23-.04.4.06.51.28.95.08,2.15.11,3.63.11.08-.08.15-.13.23-.17.19-.04.34,0,.45.11h.23c.45,0,1.09-.01,1.9-.03.81-.02,1.39-.03,1.73-.03v-.06c.11,0,.23.02.34.06.57-.04,1.06-.06,1.47-.06.87.04,1.59.1,2.15.17.68.08,1.17.23,1.48.45.26.19.51.6.74,1.25.23.53.42,1.14.57,1.81l.06.06c.11.08.17.19.17.34,0,.11-.02.21-.06.28.08.45.11.85.11,1.19.04.72-.09,1.25-.4,1.59-.04.04-.11.08-.23.11-.04.04-.08.06-.11.06s-.1.02-.17.06h-.45c-.38.04-.91.08-1.59.11-1.13.04-2.68.08-4.65.11l-7.77.11c-2.5.04-5.56.15-9.19.34-.15,0-.28.02-.4.06l-.51.17c-.19.04-.38.07-.57.11-.79.19-1.4.08-1.81-.34-.08-.08-.13-.17-.17-.28v-.17c-.04-.11-.06-.23-.06-.34,0-.26.02-.6.06-1.02.04-.53.11-1.49.23-2.89l.28-3.4c-.19-.08-.28-.23-.28-.45,0-.27.13-.44.4-.51v-.23c.11-1.4.19-2.87.23-4.42h-.11c-.34.04-.53-.11-.57-.45-.04-.34.11-.53.45-.57h.23v-1.65h-.45c-.34,0-.51-.17-.51-.51s.17-.51.51-.51h.4v-.28l-.57.17c-.3.08-.5-.05-.6-.37-.1-.32.03-.54.37-.65l.74-.17c0-.68-.02-1.4-.06-2.16-.15.04-.28.06-.4.06-.34.04-.53-.11-.57-.45-.04-.34.11-.53.45-.57.15,0,.3-.02.45-.06-.04-.6-.1-1.23-.17-1.87-.15-.11-.23-.26-.23-.45,0-.15.06-.28.17-.4l-.11-1.36c-.15-.11-.23-.26-.23-.45,0-.15.06-.28.17-.4l-.34-4.25c-.23-.07-.34-.25-.34-.51,0-.23.09-.38.28-.45-.08-.79-.13-1.51-.17-2.16h-.85c-.34,0-.51-.17-.51-.51s.17-.51.51-.51h.79l-.06-.85-.11.06c-.34.08-.56-.05-.65-.37-.09-.32,0-.54.31-.65.11-.04.24-.07.4-.11l-.11-2.04c0-.34.18-.52.54-.54.36-.02.56.16.6.54.04.57.06,1.17.06,1.81.38-.08.77-.13,1.19-.17-.04-.08-.09-.24-.14-.48-.06-.25-.11-.43-.14-.54-.08-.34-.13-.6-.17-.79s-.06-.36-.06-.51h-1.19c-.38,0-.57-.19-.57-.57" style="fill:#db0a17;"/></g></svg>