<?xml version="1.0" encoding="UTF-8"?><svg id="_レイヤー_2" xmlns="http://www.w3.org/2000/svg" viewBox="0 0 323.85 67.76"><g id="_レイヤー_1-2"><path d="m90.04,41.23h2.57v4.01h9.15v2.24h-8.42s.55,4.07,2.91,6.97c0,0,2.23,3.43,5.51,4.72v2.21s-3.28-.34-7.25-4.35c0,0-2.14-2.11-2.97-4.28,0,0-1.65,4.04-5.17,6.76,0,0-2.63,1.87-4.78,1.93v-2.61s4.44-1.65,6.61-6.61c0,0,1.22-2.23,1.47-4.77h-8.45v-2.21h8.82v-4.01Z" style="fill:#2c4198;"/><path d="m266.11,41.23h2.57v4.01h9.15v2.24h-8.41s.55,4.07,2.91,6.97c0,0,2.23,3.43,5.51,4.72v2.21s-3.27-.34-7.25-4.35c0,0-2.14-2.11-2.97-4.28,0,0-1.65,4.04-5.17,6.76,0,0-2.63,1.87-4.78,1.93v-2.61s4.44-1.65,6.61-6.61c0,0,1.22-2.23,1.47-4.77h-8.45v-2.21h8.82v-4.01Z" style="fill:#2c4198;"/><path d="m108.25,53.2s-.06.49-1.65.46l-.03-9.52h2.17s-1.07,3.3-1.93,4.22c0,0,2.2,2.48,1.44,4.84m1.69-4.65s1.71-2.5,1.74-6.58h-7.99v19.44h2.88v-5.17s3.06.52,4.37-1.99c0,0,1.11-1.68,0-3.82,0,0-.73-1.48-1.01-1.87" style="fill:#2c4198;"/><path d="m318.94,56.02s-.71,1.24-2.2.87v-12.11h2.76s-.71,4.24-2.16,5.35c0,0,2.9,3.26,1.61,5.89m1.7-5.67s1.79-3.06,1.83-8.02h-8.22v19.25h2.54v-1.86s3.46.64,4.93-2.43c0,0,1.24-2.05,0-4.67,0,0-.77-1.79-1.08-2.27" style="fill:#2c4198;"/><path d="m118.84,54.02s-1.5-2.75-1.56-4.34h-2.2v-1.14h5.11s-.06,4.16-1.35,5.48m2.08,2.39c.95-1.25,1.44-3.12,1.44-3.12.98-3.21.7-6.95.7-6.95h-8.08v-2.2h8.41v-2.17h-10.92l-.03,7.68c-.21,7.16-4.68,9.21-4.68,9.21v2.26c6.34-2.02,7.35-8.44,7.35-8.44.67,2.11,1.78,3.8,1.78,3.8-.77,1.53-4.01,2.75-4.01,2.75v2.57c3.95-.15,6.03-3.3,6.03-3.3,2.21,2.54,4.75,3,4.75,3v-2.33c-2.48-1.62-2.72-2.76-2.72-2.76" style="fill:#2c4198;"/><path d="m141.49,59.18h-13.32l.05-15.38h13.27v15.38Zm-15.8-17.17l-.05,19.38h18.32v-19.38h-18.27Z" style="fill:#2c4198;"/><polygon points="129 45.32 140.66 45.32 140.66 47.43 135.93 47.43 135.93 50 140.66 50 140.66 51.84 135.93 51.84 135.93 55.56 140.66 55.56 140.66 57.72 128.95 57.72 128.95 55.56 133.36 55.56 133.36 51.84 129.32 51.84 129.32 50.05 133.36 50.05 133.36 47.43 129 47.43 129 45.32" style="fill:#2c4198;"/><path d="m136.94,52.61h2.25s.64.65.87,2.48h-1.84s-.04-1.88-1.28-2.48" style="fill:#2c4198;"/><path d="m157.47,49.63s2.07-1.98,2.34-2.98c0,0,1.56,1.88,2.52,2.98h-4.87Zm-1.05-4.96l-.09-.59h1.29v.83s-.96.14-1.19-.23m-.74,2.62l-.87-.78.6-.6.96.97c-.14.28-.69.41-.69.41m8.68.36s2.07-1.74,1.7-5.69h-4.04v2.06h1.52s0,1.56-.55,1.7c0,0-1.56-1.35-1.74-3.74h-6.48s-.73,2.27-2.07,3.24v2.16s.23.05.73.09l1.34,1.28s-1.15.69-1.97.92l.27,2.11s1.7.05,2.2-.41v.46h8.9v-.46s2.39.69,2.67.46v-1.79s-.96-.55-2.48-2.39" style="fill:#2c4198;"/><path d="m148.66,54.09v-9.92h1.64s-.37,3.41-1.21,4.74c0,0,2.12,2.93,1.16,4.04,0,0,.22.59-1.6,1.15m4.17-12.08h-6.22v19.33h2.27v-4.96c2.67,0,3.21-1.29,3.21-1.29,2.03-3.67-.73-6.84-.73-6.84,1.65-3.17,1.47-6.25,1.47-6.25" style="fill:#2c4198;"/><path d="m153.24,52.99h13.13v2.2h-5.47v3.44s.24,2.43-1.84,2.71h-3.26v-2.11h1.33s1.01-.18,1.24-1.6v-2.53h-5.19l.05-2.11Z" style="fill:#2c4198;"/><path d="m153.56,55.92h2.66s-.6,4.32-5.56,5.1v-1.84s2.85-2.16,2.9-3.26" style="fill:#2c4198;"/><path d="m162.01,55.92h2.89s.46,1.52,2.57,3.31v1.84s-4.08-.23-5.46-5.15" style="fill:#2c4198;"/><path d="m215.27,41.58s-.28,3.47-1.7,4.48v2.85s1.88-.79,2.71-2.62h.83v3.77h-3.58v2.15h3.67s.32,3.45-3.58,6.75v2.48s4.27-.69,5.64-5.74c0,0,2.35,1.65,3.4,2.84v-3.21l-3.03-3.13h2.89v-2.2h-2.76v-3.67h2.52v-2.21h-4.73s.23-1.72.14-2.54h-2.43Z" style="fill:#2c4198;"/><rect x="222.34" y="41.6" width="10.97" height="2.16" style="fill:#2c4198;"/><path d="m230.7,51.1h-5.05v-3.67h5.05v3.67Zm-7.6,1.84h9.85v-7.3h-9.85v7.3Z" style="fill:#2c4198;"/><path d="m222.94,53.4h2.98s1.42.51,1.33,3.35l-1.7,2.02s.1-2.06-2.61-5.37" style="fill:#2c4198;"/><path d="m230.24,53.35h2.85s-.02,3.23-2.57,5.78h3.13v2.25h-11.29v-2.21h5.88v-1.74s2.25-2.39,2.02-4.09" style="fill:#2c4198;"/><path d="m307.4,49.08h-.88c-.03-1.28-.3-2.52-.58-3.47h3.32c-.27,1.35-1.51,3.06-1.85,3.47m-.06.05h.02c-.05.06-.07.06-.02,0m2.83-.1c1.53-1.79,1.98-2.71,2.16-3.42h1.09v-2.64h-4.38c-.34-.95-.83-1.38-.83-1.38h-3.25c.49.58.73,1.04.83,1.38h-3.67v2.64h1.24c.49,1.25.67,1.98.84,3.47h-2.21v2.69h11.49v-2.74h-3.32Z" style="fill:#2c4198;"/><path d="m242.54,50.83h-2.96v-1.24h2.96v1.24Zm-.05,2.84h-2.93v-1.15h2.93v1.15Zm-2.96-6.93h2.96v.78h-2.96v-.78Zm6.96,0v-2.16h-1.88v-2.67h-2.11v2.57h-2.93v-2.52h-2.11v2.52h-2.25v2.2h1.83v6.98h-1.83v2.16h11.29v-2.16h-1.84v-6.93h1.84Z" style="fill:#2c4198;"/><path d="m237.81,56.34h2.62s.14,5.28-5.23,5.1v-2.21s2.11-.14,2.62-2.89" style="fill:#2c4198;"/><path d="m240.98,56.34h3.08s-.23,2.38,1.38,2.48v2.67s-3.63.13-4.46-5.15" style="fill:#2c4198;"/><path d="m252.82,51.51h-3.76v-2.61h3.76v2.61Zm-3.72-7.71h3.67v2.94h-3.67v-2.94Zm-2.16-1.84v11.8c-.09,5.65-1.15,5.19-1.15,5.19v2.43c3.77-.09,3.31-3.81,3.31-3.81v-3.94h3.72v2.89c0,3.03-1.74,2.71-1.74,2.71h-1.24v2.15h3.3c1.75-.36,2.16-2.21,2.16-2.21v-17.21h-8.36Z" style="fill:#2c4198;"/><path d="m282.42,41.99h2.69s.96-.07,1.56,2.55h2.14s-.48-2.32-1.03-2.53h2.64s1.01.85,1.35,2.48h.94s1.05-1.26,1.63-2.52h3.05s-.71,1.75-1.54,2.52h3.95v5.89h-2.52v-3.68h-14.71v3.69h-2.53v-5.87h3.63s-.72-1.86-1.24-2.52" style="fill:#2c4198;"/><path d="m283.67,47.8h12.5s.76,3-4.33,5.03v.85h8.33v2.23h-8.4v3.1s-.02,1.81-1.88,2.41h-4.01v-2.18h1.93s.96.25,1.4-1.95v-1.33h-9.56v-2.25h9.5v-2.5s.98.11,1.86-.85h-7.33v-2.55Z" style="fill:#2c4198;"/><path d="m176.9,41.23h2.57v4.01h9.15v2.24h-8.41s.55,4.07,2.91,6.97c0,0,2.23,3.43,5.51,4.72v2.21s-3.27-.34-7.25-4.35c0,0-2.14-2.11-2.97-4.28,0,0-1.65,4.04-5.17,6.76,0,0-2.64,1.87-4.77,1.93v-2.61s4.44-1.65,6.61-6.61c0,0,1.23-2.23,1.47-4.77h-8.45v-2.21h8.81v-4.01Z" style="fill:#2c4198;"/><path d="m193.21,41.99h2.69s.96-.07,1.56,2.55h2.14s-.48-2.32-1.03-2.53h2.64s1.01.85,1.35,2.48h.94s1.06-1.26,1.63-2.52h3.06s-.71,1.75-1.54,2.52h3.95v5.89h-2.52v-3.68h-14.72v3.69h-2.52v-5.87h3.62s-.71-1.86-1.24-2.52" style="fill:#2c4198;"/><path d="m194.46,47.8h12.5s.76,3-4.34,5.03v.85h8.34v2.23h-8.4v3.1s-.03,1.81-1.88,2.41h-4.02v-2.18h1.93s.96.25,1.4-1.95v-1.33h-9.55v-2.25h9.5v-2.5s.99.11,1.86-.85h-7.34v-2.55Z" style="fill:#2c4198;"/><path d="m310.55,58.49h-5.36v-3.33h5.36v3.33Zm2.45-5.62h-10.26v8.62h2.43v-.72h7.83v-7.9Z" style="fill:#2c4198;"/><path d="m94.33,5.77h3.77v5.88h13.42v3.28h-12.34s.81,5.96,4.26,10.23c0,0,3.28,5.03,8.08,6.9v3.24s-4.8-.49-10.63-6.37c0,0-3.14-3.1-4.35-6.29,0,0-2.42,5.93-7.59,9.92,0,0-3.86,2.74-7,2.83v-3.82s6.51-2.43,9.7-9.7c0,0,1.79-3.28,2.15-7h-12.38v-3.23h12.93v-5.88Z" style="fill:#2c4198;"/><path d="m263.48,5.91h3.77v5.88h13.42v3.28h-12.34s.8,5.96,4.27,10.23c0,0,3.27,5.02,8.08,6.91v3.23s-4.8-.5-10.64-6.37c0,0-3.14-3.1-4.35-6.28,0,0-2.43,5.92-7.59,9.91,0,0-3.86,2.74-7,2.83v-3.81s6.5-2.42,9.69-9.7c0,0,1.8-3.28,2.16-7h-12.38v-3.22h12.91v-5.88Z" style="fill:#2c4198;"/><path d="m131.28,23.08s-.09.71-2.42.67l-.05-13.96h3.19s-1.57,4.85-2.83,6.19c0,0,3.23,3.64,2.11,7.1m2.47-6.82s2.52-3.69,2.56-9.65h-11.71v28.5h4.22v-7.59s4.49.75,6.42-2.92c0,0,1.62-2.47,0-5.61,0,0-1.08-2.15-1.48-2.73" style="fill:#2c4198;"/><path d="m146.82,24.28s-2.2-4.03-2.29-6.37h-3.23v-1.65h7.49s-.08,6.1-1.97,8.03m3.05,3.51c1.4-1.84,2.11-4.58,2.11-4.58,1.43-4.71,1.03-10.18,1.03-10.18h-11.84v-3.24h12.34v-3.18h-16.03l-.04,11.26c-.31,10.5-6.87,13.51-6.87,13.51v3.32c9.29-2.96,10.77-12.39,10.77-12.39.98,3.1,2.6,5.57,2.6,5.57-1.13,2.24-5.88,4.04-5.88,4.04v3.77c5.79-.23,8.84-4.85,8.84-4.85,3.23,3.73,6.96,4.4,6.96,4.4v-3.41c-3.64-2.38-3.99-4.04-3.99-4.04" style="fill:#2c4198;"/><path d="m190.16,31.69h-19.52l.07-22.55h19.45v22.55Zm-23.15-25.18l-.07,28.41h26.86V6.51h-26.79Z" style="fill:#2c4198;"/><path d="m182.99,22.06h3.52s.85.97.99,3.83h-3.23s-.22-2.8-1.28-3.83" style="fill:#2c4198;"/><path d="m222.8,17.82s3.03-2.89,3.44-4.38c0,0,2.29,2.76,3.71,4.38h-7.14Zm-1.55-7.27l-.13-.88h1.88v1.21s-1.41.2-1.75-.33m-1.07,3.83l-1.29-1.15.88-.87,1.41,1.41c-.2.41-1.01.61-1.01.61m12.72.54s3.03-2.56,2.49-8.35h-5.93v3.03h2.23s0,2.29-.81,2.49c0,0-2.3-1.99-2.57-5.48h-9.48s-1.08,3.33-3.03,4.74v3.16s.33.07,1.08.13l1.95,1.89s-1.69,1.01-2.89,1.35l.4,3.09s2.49.07,3.23-.6v.67h13.07v-.67s3.5,1,3.9.67v-2.62s-1.42-.81-3.63-3.5" style="fill:#2c4198;"/><path d="m209.89,24.35v-14.54h2.41s-.54,4.99-1.75,6.95c0,0,3.1,4.29,1.69,5.91,0,0,.32.88-2.35,1.69m6.12-17.7h-9.13v28.34h3.34v-7.26c3.91,0,4.71-1.89,4.71-1.89,2.96-5.39-1.08-10.02-1.08-10.02,2.43-4.65,2.17-9.16,2.17-9.16" style="fill:#2c4198;"/><path d="m216.61,22.74h19.26v3.23h-8.01v5.05s.33,3.57-2.7,3.98h-4.78v-3.1h1.96s1.48-.27,1.82-2.35v-3.7h-7.61l.06-3.09Z" style="fill:#2c4198;"/><path d="m217.08,27.05h3.91s-.87,6.33-8.14,7.47v-2.69s4.17-3.16,4.24-4.78" style="fill:#2c4198;"/><path d="m229.46,27.05h4.25s.67,2.21,3.77,4.84v2.69s-5.99-.32-8.02-7.53" style="fill:#2c4198;"/><path d="m297.83,6.75h3.94s1.41-.09,2.29,3.74h3.13s-.7-3.4-1.5-3.7h3.86s1.48,1.25,1.99,3.64h1.39s1.54-1.86,2.38-3.7h4.47s-1.04,2.56-2.25,3.7h5.79v8.63h-3.7v-5.41h-21.58v5.42h-3.71v-8.61h5.32s-1.05-2.72-1.82-3.71" style="fill:#2c4198;"/><path d="m299.67,15.26h18.32s1.12,4.41-6.36,7.37v1.25h12.21v3.26h-12.32v4.54s-.03,2.66-2.76,3.54h-5.89v-3.2h2.82s1.42.37,2.06-2.86v-1.95h-14.01v-3.3h13.94v-3.66s1.45.16,2.72-1.25h-10.75v-3.74Z" style="fill:#2c4198;"/><path d="m50.05,45.37s-4.33,6.83-13.31,8.21v-7.75l16.72-16.34s2.12,8.55-3.41,15.88m-13.31-31.85s9.52.97,14.69,10.39l-14.69,14.44V13.52Zm-5.31,30.05l-7.77,7.64s-11.58-5.77-10.22-20.01c0,0,1.35-15.53,17.99-17.81v30.18Zm0,10.14s-1.75-.13-2.33-.4l2.33-2.29v2.69Zm-17.26,6.83s-3.97,4.04-7.91.74c0,0-3.28-2.8.94-7.81l5.18-4.95s2.79,3.64,3.55,4.04c0,0,3.1,2.63,3.55,2.77l-5.31,5.21ZM83.05.58h-7.89l-19.56,19.23c-3.07-4.81-7.09-7.49-7.09-7.49L60.54.29h-7.88l-8.86,9.41c-2.41-1.25-7.05-1.91-7.05-1.91V0h-5.31v7.69c-16.3,1.56-21.58,15.36-21.58,15.36-4.89,11.15-.15,20.64-.15,20.64l-5.66,5.76C.03,53.55.03,57.39.03,57.39c-.4,5.71,2.9,8.18,2.9,8.18,7.28,5.77,15.25-1.66,15.25-1.66l6.29-6.07c2.4,1.17,6.97,1.57,6.97,1.57v8.25h5.31v-8.35c14.59-1.81,19.95-13.95,19.95-13.95,5.38-10.48,1.39-20.38,1.39-20.38L83.05.58Z" style="fill:#2c4198;"/><polygon points="171.99 11.36 189.01 11.36 189.01 14.46 181.46 14.46 181.46 18.23 188.57 18.23 188.57 21.57 181.53 21.57 181.53 26.37 189.08 26.37 189.08 29.54 171.37 29.54 171.37 26.44 177.82 26.44 177.82 21.51 171.97 21.51 171.97 18.39 177.85 18.39 177.85 14.46 171.99 14.46 171.99 11.36" style="fill:#2c4198;"/></g></svg>