<?xml version="1.0" encoding="UTF-8"?><svg id="_レイヤー_2" xmlns="http://www.w3.org/2000/svg" viewBox="0 0 253.02 43.59"><g id="_レイヤー_1-2"><path d="m26.18,14.97c.32-.04.64-.09.96-.17.07-.79.05-1.59-.05-2.38v-.06h-1.01c0,.19.02.38.05.57l.11-.06c.28-.04.45.08.51.37.05.28-.04.46-.29.54-.11,0-.21.02-.32.06.04.38.05.76.05,1.13m-.16-3.51h.91c-.03-.19-.09-.38-.16-.57h-.05c-.21-.04-.44-.06-.69-.06v.62Zm-.05-1.53h.53l-.21-.46h-.05c-.11-.04-.21-.06-.32-.06l.05.51Zm-.64,6.07c-.28.04-.59.08-.91.11l.11,1.3c.28-.04.57-.09.85-.17.25-.04.4.08.45.37.05.28-.06.46-.35.54-.28.04-.59.09-.91.17.07.72.11,1.42.11,2.1h.37c1.03-1.44,1.69-3.01,1.97-4.71-.28.08-.57.13-.85.17v.45c0,.3-.14.45-.43.45s-.43-.15-.43-.45v-.34Zm0-.91c0-.34-.02-.72-.05-1.13-.32.08-.68.13-1.07.17l.11,1.08c.36-.04.69-.08,1.01-.11m-.05-2.04c-.04-.19-.05-.4-.05-.62-.04,0-.44.02-1.23.06l.05.28.05.46c.43-.04.82-.09,1.17-.17m-.11-1.53v-.74h-1.33l.05.79c.11,0,.31,0,.61-.03.3-.02.52-.03.67-.03m-.05-1.64l-.05-.62-1.44-.11.11.74h1.39Zm-.11-1.53l-.05-.74c-.29-.11-.68-.21-1.17-.28h-.27c0,.3.02.61.05.91l1.44.12Zm-1.55-1.99l.43.11h.32c-.21-.19-.44-.38-.69-.57h-.11c0,.15.02.3.05.45m.27,12.02c-.35.04-.76.08-1.23.11.07.72.11,1.36.11,1.93h1.23c0-.64-.04-1.32-.11-2.04m-.05-.91l-.11-1.3c-.39,0-.8.02-1.23.06l.11,1.36,1.22-.12Zm-.21-2.21l-.11-1.08c-.14,0-.35.01-.64.03-.28.02-.46.03-.53.03l.05,1.08c.46,0,.87-.02,1.23-.06m-.32-2.78c-.39.04-.77.06-1.12.06v.23l.05.57,1.17-.06-.05-.4-.05-.4Zm-.11-.91l-.05-.79c-.21,0-.57.02-1.07.06,0,.26.02.53.05.79.32,0,.67-.02,1.07-.06m-1.12-6.58h.21l-.16-.11-.05.11Zm.69,1.31c-.04-.11-.05-.25-.05-.4h-.69v.34c.25.04.5.06.75.06m.27,3.57l-.11-.79c-.28,0-.6.02-.96.06.03.26.05.53.05.79.43-.04.76-.06,1.01-.06m-.16-1.65l-.11-1.02c-.25,0-.52-.02-.8-.06v1.08c.32-.04.62-.04.91,0m-1.01,15.09l.05.34c.96-.64,1.83-1.42,2.61-2.33h-1.71v.62c0,.3-.14.45-.43.45s-.43-.15-.43-.45v-.62h-.37c.03.3.09.68.16,1.14.18.08.28.21.32.4.03.19-.04.34-.21.45m-.32-8l-.05-.97c-.04.34-.11.66-.21.97h.27Zm-.21-2.89s-.05-.02-.05-.06c0,.08.02.15.05.23v-.17Zm-.37,6.07c.21.57.37,1.21.48,1.93h.48c0-.57-.03-1.21-.11-1.93h-.85Zm.32-6.69c-.04-.34-.05-.66-.05-.96-.18.04-.36.06-.53.06v.51l.16.17.32.57v-.06c0-.11.04-.21.11-.28m-.11-1.87c0-.27-.02-.53-.05-.79h-.48c0,.3.02.58.05.85.14,0,.3-.02.48-.06m-.05-2.84h-.59c.04.38.05.76.05,1.13h.53v-1.13Zm.05-.91v-.28h-.75l.05.28h.69Zm-.53,11.4h1.12l-.11-1.36h-.69c-.14.34-.34.66-.59.96l.16.17.11.23Zm.59-12.59c.03-.15.05-.3.05-.45-.29-.15-.59-.28-.91-.4h-.11l.11.85h.85Zm-.32,17.58c-.07-.49-.12-.91-.16-1.25h-1.49v1.42c.6-.04,1.15-.09,1.65-.17m-.85-4.08h-.75c-.07,0-.12-.02-.16-.06l-.32.23c.18.49.3,1.08.37,1.76h1.38c-.14-.72-.32-1.36-.53-1.93m-.21-8.51c-.03-.27-.05-.53-.05-.79-.25.04-.68.08-1.28.11.04.3.07.59.11.85.14.04.3.09.48.17l.16.06c.04-.26.18-.4.43-.4h.16Zm-.11-1.7c0-.38-.02-.77-.05-1.19h-1.22v1.3c.57-.04.99-.07,1.28-.11m-.11-2.1l-.05-.28h-1.17v.28h1.23Zm-.11-1.19l-.11-.91h-1.17l.11.91h1.17Zm1.49,18.49c-.53.08-1.12.13-1.76.17v.85c0,.3-.14.45-.43.45s-.43-.15-.43-.45v-.79h-.91v1.64c1.28-.19,2.52-.62,3.73-1.3-.07-.08-.12-.17-.16-.29l-.05-.28Zm-2.61-2.16h-.96c0,.45.02.94.05,1.48h.91v-1.48Zm-.05-.91c-.07-.49-.16-.95-.27-1.36-.25.15-.5.27-.75.34,0,.34.02.68.05,1.02h.96Zm-.69-11.06c-.29,0-.53.02-.75.06v.34c.28.04.55.08.8.11,0-.15-.02-.32-.05-.51m-.05-.91v-1.36h-.8c.03.45.05.93.05,1.42.21-.04.46-.06.75-.06m-.05-2.27v-.28h-.85l.05.28h.8Zm-.05-1.19c-.04-.3-.07-.59-.11-.85h-.21c-.18.04-.39.06-.64.06l.11.79h.85Zm-1.07-1.7h.37l-.16-.06h-.21v.06Zm.11,17.13c0-.23-.02-.45-.05-.68-.21.04-.44.1-.69.17-.04.15-.05.32-.05.51h.8Zm.11,2.38c-.04-.53-.05-1.02-.05-1.48h-.91c0,.23.02.51.05.85,0,.15.02.36.05.62h.85Zm-.59-13.38c-.25.04-.5.06-.75.06l.75.11v-.17Zm-.05-.91c0-.46-.02-.93-.05-1.42-.39,0-.82.02-1.28.06.04.61.07,1.08.11,1.42.35,0,.76-.02,1.23-.06m-.11-2.33l-.05-.23h-1.23l.05.17v.11c.43-.04.83-.06,1.23-.06m-.11-1.13c-.04-.26-.07-.51-.11-.74l-1.07.17v.57h1.17Zm-.21-1.65v-.28l-.96-.11v.51l.96-.11Zm-.75,17.86h-.59v1.48h.69c-.04-.19-.05-.36-.05-.51-.03-.34-.05-.66-.05-.96m.05-.91v-.28l-.64.11v.17h.64Zm1.76,3.35h-.75c.03.42.05.79.05,1.14,0,.3-.14.45-.43.45s-.43-.15-.43-.45c0-.34-.02-.72-.05-1.14-.25-.04-.52-.06-.8-.06v1.48c0,.11-.04.21-.11.28,1.39.04,2.22.04,2.51,0v-1.7Zm-2.72-15.14c-.04-.34-.07-.81-.11-1.42h-.8c.04.49.05.96.05,1.42h.85Zm-.16-2.61h-.8v.28h.85v-.11l-.05-.17Zm0-.91v-.45c-.36.04-.66.06-.91.06l.05.4h.85Zm-.37,15.31v-.06h-.75c.25.04.5.06.75.06m.37-16.73v-.68c-.36-.04-.73-.06-1.12-.06l.11.91c.28-.04.62-.09,1.01-.17m-.37,19.05v-1.42c-.29,0-.55-.02-.8-.06,0,.49.02.96.05,1.42.25.04.5.06.75.06m0,.91c-.25,0-.48-.02-.69-.06v1.53c0,.15-.05.27-.16.34h.96c-.07-.08-.11-.17-.11-.28v-1.53Zm-1.6-1.02c-.04-.45-.05-.91-.05-1.36-.21,0-.41-.02-.59-.06v1.36l.64.06Zm.43-14.06c0-.42-.02-.85-.05-1.31l-1.07.06.21,1.19c.32.04.62.06.91.06m-.11-2.21v-.34h-1.12v.4l1.12-.06Zm-.05-1.25l-.05-.28h-.05c-.36.04-.71.06-1.07.06v.23h1.17Zm-.16-1.19c-.04-.3-.07-.62-.11-.96h-.8c-.03.3-.07.64-.11,1.02.36,0,.67-.02.96-.06h.05Zm-.05,19.62l-.69-.06v1.08c0,.3-.14.45-.43.45s-.43-.15-.43-.45v-1.13c-.35-.04-.71-.06-1.07-.06.03.53.05,1.04.05,1.53h.91c.28,0,.43.15.43.45v.11h1.39c-.11-.08-.16-.19-.16-.34v-1.59Zm-1.55-1.02v-1.31l-.37-.06c-.04.23-.18.34-.43.34s-.39-.13-.43-.4h-.16c.07.53.14.98.21,1.36.43,0,.82.02,1.17.06m5.76-11.97c-.68-.11-1.15-.19-1.44-.23-1.63-.34-3.52-.53-5.65-.57-.04.27-.05.57-.05.91,0,.3.02.79.05,1.47.04.68.05,1.14.05,1.36v4.76c0,.11-.05.4-.16.85l-.05.23s.14.06.32.06h.75c.21.04.43.06.64.06.07-.04.14-.06.21-.06s.16.02.27.06c.18.04.37.06.59.06,0-.26.12-.42.37-.45.28-.04.44.09.48.4v.06c1.53-.07,2.88-.3,4.05-.68.03-.19.14-.28.32-.28.11,0,.19.02.27.06,2.27-.91,3.46-2.44,3.57-4.59.04-.76-.12-1.36-.48-1.81-.29-.42-.75-.74-1.39-.96-.11-.08-.23-.13-.37-.17-.04.04-.07.06-.11.06-.18.04-.32-.02-.43-.17-.28-.07-.62-.15-1.01-.23-.07.15-.19.23-.37.23-.25,0-.39-.13-.43-.4m-5.92-4.14v-.4l-1.6.06v.4l1.6-.06Zm.27,2.04c-.07-.53-.12-.91-.16-1.13l-1.71.06c0,.3-.02.61-.05.91.14-.19.28-.36.43-.51.21-.19.41-.17.59.06.18.19.18.38,0,.57l.91.06Zm-.37-3.35v-.17h-1.55v.23l1.55-.06Zm-1.71,34.03c.07.87.19,1.66.37,2.38h.37v-.34l-.16-1.53-.05-.45c-.18-.04-.36-.06-.53-.06M9.86,3.97c.04-.38.07-.74.11-1.08h-1.81c.04.34.07.7.11,1.08h1.6Zm-1.81,31.99c0,.91.02,1.64.05,2.21.14,0,.3.02.48.06l-.32-2.32-.21.06Zm0-.91l.11-.06v-.23l-.11-1.13v1.42Zm-.53-7.03c.07.49.12.93.16,1.31-.04-.49-.04-.94,0-1.36l-.16.06Zm-.32-2.27l.16,1.36.37-.06c.03-.42.11-.74.21-.96.03-.15.12-.26.27-.34h-1.01Zm.21-21.78c-.04-.38-.07-.72-.11-1.02h-.27c0,.34-.02.68-.05,1.02h.43Zm.75,19.28c-.32,0-.73.02-1.23.06,0,.27.02.53.05.79.03.26.07.51.11.74h1.17c0-.49-.04-1.02-.11-1.59m-.69-18.38h-.53v.23h.53v-.23Zm.05,1.59v-.45h-.69v.51l.69-.06Zm.59,15.88c-.07-.38-.14-.81-.21-1.3l-1.12-.11c0,.49.02.98.05,1.48.5-.04.92-.06,1.28-.06m-.64-14.12c.04-.3.05-.58.05-.85l-.75.06c0,.23-.02.47-.05.74l.75.06Zm-.05,1.48l.05-.57-.75-.06c-.04.27-.05.55-.05.85l.75-.23Zm0,8.05c-.07.04-.16.06-.27.06h-.53l.11,2.21c.32.04.66.06,1.01.06-.18-1.02-.28-1.8-.32-2.32m-.16-2.55h-.64v1.7h.53c.07,0,.12.02.16.06-.04-.34-.05-.68-.05-1.02v-.74Zm0-.91v-1.02c-.21.04-.43.06-.64.06v.96h.64Zm.05-1.93c0-.38.02-.94.05-1.7-.21.08-.44.13-.69.17-.04.53-.05,1.06-.05,1.59.21,0,.44-.02.69-.06m0,26.71c-.43,0-.91.02-1.44.06.03.79.09,1.57.16,2.33.32-.08.57-.11.75-.11h.53l.32.06c-.14-.72-.25-1.49-.32-2.33m-1.55-26.6c0-.49.02-.98.05-1.47h-.05v1.47Zm1.44,23.65c-.46.08-.96.13-1.49.17l.11,1.93c.53-.04,1.01-.06,1.44-.06-.04-.57-.05-1.25-.05-2.04m-1.44-20.93h-.05v1.7h.05v-1.7Zm.05-5.1c0-.38.02-.74.05-1.08h-.16v1.08h.11Zm.05-1.98c.03-.23.05-.45.05-.68h-.21v.68h.16Zm-.11,9.7h-.05c0,.57-.02,1.29-.05,2.16h.21c-.04-.68-.07-1.4-.11-2.16m.21-11.8h-.32v.51h.32v-.51Zm1.17,27.22c-.39.04-.91.08-1.55.11,0,.72.02,1.4.05,2.04.53-.04,1.05-.09,1.55-.17,0-.87-.02-1.53-.05-1.98m-1.12-9.93h-.43v1.59h.59c0-.23-.02-.45-.05-.68l-.11-.91Zm-.05-.91l-.11-1.53h-.21v1.25l-.05.28h.37Zm.05-17.3l.05-.28h-.48v.28h.43Zm.91,25.35c-.43.11-.89.21-1.39.28,0,.57.02,1.13.05,1.7.6-.04,1.12-.08,1.55-.11-.04-.15-.05-.28-.05-.4-.04-.45-.09-.94-.16-1.47m-.27-2.32l-1.12.11v1.59c.46-.07.89-.17,1.28-.28-.04-.38-.09-.85-.16-1.42m-.32-2.33h-.75c-.04.53-.05,1.04-.05,1.53l.96-.11c-.07-.57-.12-1.04-.16-1.42m-.21-21.89c.03-.3.05-.62.05-.96l-.69.06c.04.3.05.6.05.91h.59Zm-1.28,32.44c-.32,0-.62.02-.91.06v1.87c.18,0,.51-.02,1.01-.06l-.11-1.87Zm-.11-2.89c-.36.04-.66.06-.91.06.04.76.05,1.42.05,1.99.32-.04.62-.06.91-.06-.04-.64-.05-1.31-.05-1.98m-.05-2.61l-.96.11.05,1.64c.25,0,.57-.02.96-.06-.04-.57-.05-1.13-.05-1.7m.21-16.56v-.85c-.43,0-.84-.02-1.23-.06v.91c.36.04.76.04,1.23,0m0-3.18c-.39.08-.8.11-1.23.11v1.25c.39.04.8.06,1.23.06v-1.42Zm-.05-.91v-1.25h-1.17v1.36c.43-.04.82-.08,1.17-.11m-.16,18.15c-.39.04-.75.06-1.07.06.04.49.05,1.04.05,1.65.36-.04.69-.08,1.01-.11v-1.59Zm.16-13.16h-1.23v1.7h1.23v-1.7Zm0-7.15v-.57c-.46.04-.87.06-1.23.06v.51h1.23Zm-.11,17.75c-.46,0-.85.02-1.17.06v1.65c.35,0,.73-.04,1.12-.11,0-.49.02-1.02.05-1.59m.05-19.23v-.57h-1.23v.62c.35,0,.76-.02,1.23-.06m-.05,16.73h-1.23v1.65c.35-.04.76-.06,1.23-.06v-1.59Zm.05-2.49h-1.28v1.59h1.23l.05-.28v-1.3Zm.05-3.01h-1.28c0,.83-.02,1.53-.05,2.1h1.28c.03-.83.05-1.53.05-2.1m-.11-12.7v-.28c-.5-.04-.92-.06-1.28-.06l.05.34h1.23Zm-.05-1.19c0-.3-.02-.59-.05-.85-.57,0-.99.02-1.28.06,0,.23.02.47.05.74.35,0,.78.02,1.28.06m.32,35.22c-.5.04-.83.06-1.01.06v1.7c0,.3-.14.45-.43.45s-.43-.15-.43-.45v-1.64h-.64c0,.64.02,1.17.05,1.59,0,.34.02.62.05.85l.11.28c.03.11.18.17.43.17.28,0,.67-.06,1.17-.17.21-.08.5-.17.85-.28-.07-.83-.12-1.68-.16-2.55m-1.92-2.72h-.32c-.14,0-.25-.06-.32-.17v2.1h.69c-.04-.6-.05-1.25-.05-1.93m-.11-2.84h-.64v.11c.03.3.05.96.05,1.99.11-.11.23-.17.37-.17h.27c0-.57-.02-1.21-.05-1.93m-.11-2.55c-.25.04-.51.06-.8.06.03.57.09,1.12.16,1.64.03-.04.09-.06.16-.06h.53l-.05-1.65Zm-.11-14.12v-1.7c-.25,0-.5-.02-.75-.06v1.76h.75Zm.05-2.61v-.96c-.18,0-.36-.02-.53-.06-.11,0-.19-.06-.27-.17v1.13c.25.04.51.06.8.06m-.05,14.23h-.8c0,.57.02,1.11.05,1.65.28,0,.55-.02.8-.06,0-.6-.02-1.13-.05-1.59m-.05-10.72h-.75v1.99c.21.04.44.08.69.11.04-.57.05-1.27.05-2.1m.11-5.39v-1.14c-.29.04-.57.06-.85.06,0,.38.02.78.05,1.19.07-.15.19-.21.37-.17.14.04.28.06.43.06m-.11,13.44h-.8v1.76h.85c-.03-.64-.05-1.23-.05-1.76m-.05-2.61c-.25-.04-.5-.06-.75-.06v1.76h.75v-1.7Zm0-.91v-1.53c-.25-.04-.48-.08-.69-.11-.04.6-.05,1.12-.05,1.53l.75.11Zm.16-11.97v-1.48h-.96c.03.49.05,1,.05,1.53.32,0,.62-.02.91-.06m-.05-2.38v-.45c-.39.04-.73.06-1.01.06l.05.4h.96Zm-.11-2.89l-.05-.34h-.53c-.14,0-.25-.06-.32-.17v.51h.91Zm.05,1.53v-.62h-1.01v.68c.28,0,.62-.02,1.01-.06m-.16-2.78c-.04-.23-.05-.47-.05-.74-.32.04-.6.06-.85.06.03.27.07.55.11.85.07-.11.18-.17.32-.17h.48Zm-1.71,3.01c0-.19.02-.74.05-1.65,0-.87-.05-1.55-.16-2.04h-.32c-.28,0-.43-.15-.43-.45s.14-.45.43-.45c.53,0,1.19-.02,1.97-.06.03-.23.16-.36.37-.4.28-.04.44.09.48.4.29-.04.73-.06,1.33-.06-.03-.3.09-.47.37-.51.28-.04.44.09.48.4v.06c.67-.04,1.24-.06,1.71-.06-.04-.26.07-.43.32-.51.28-.04.46.08.53.34v.11h2.19c.11-.15.25-.21.43-.17.07.04.14.09.21.17h.69l-.11-.62c-.04-.3.09-.47.37-.51.28-.04.44.1.48.4l.11.74c1.07.04,2.06.11,2.99.23.07-.15.18-.25.32-.29.25-.04.41.08.48.34.14.04.28.06.43.06.96.15,1.85.34,2.67.57.07-.08.16-.11.27-.11.25-.04.41.08.48.34l.37.11c.71.11,1.37.26,1.97.45.21.11.3.3.27.57l.27.11h.11c.21,0,.35.11.43.34,2.56,1.7,4.07,4.23,4.53,7.6.46,3.48-.44,6.6-2.69,9.36-2.26,2.76-5.02,4.31-8.29,4.65h-4.69c-1.17,0-2.04.02-2.61.06-.36.04-.64.08-.85.11-.04.04-.07.06-.11.06-.18.49-.23,1.49-.16,3.01.07,1.29.23,2.99.48,5.1.07.68.18,1.6.32,2.75.14,1.15.23,1.82.27,2.01.07.76.12,1.3.16,1.64v.74c0,.11-.02.21-.05.28-.07.08-.16.13-.27.17-.04.04-.09.06-.16.06-.11,0-.23.02-.37.06-.18,0-.46-.02-.85-.06-.18,0-.44-.02-.8-.06h-.48c-.14,0-.43.06-.85.17-.07.08-.14.11-.21.11h-.11c-.53.15-.89.25-1.07.28-.57.15-1.03.23-1.39.23-.53,0-.92-.17-1.17-.51-.07-.15-.12-.38-.16-.68-.04-.26-.07-.59-.11-.96-.04-.6-.07-1.47-.11-2.61-.03-2.76-.07-4.25-.11-4.48-.11-.87-.2-1.78-.27-2.72h-.05c-.28,0-.43-.15-.43-.45s.14-.45.43-.45c-.04-.53-.05-1.06-.05-1.59h-.37c-.28,0-.43-.15-.43-.45s.14-.46.43-.46h.32v-1.81h-.32c-.28,0-.43-.15-.43-.45s.14-.45.43-.45h.32v-1.93h-.11c-.28-.08-.41-.25-.37-.51.03-.3.2-.43.48-.4,0-.42.02-.93.05-1.53-.07-.04-.14-.06-.21-.06-.29-.08-.39-.26-.32-.57.07-.3.25-.42.53-.34.07-3.67.07-6.43,0-8.28H.43c-.28,0-.43-.15-.43-.45s.14-.45.43-.45h.64c-.04-1.02-.09-2-.16-2.95v-.06c-.07-.07-.11-.17-.11-.28s.02-.21.05-.28" style="fill:#db0a17;"/><path d="m60.31,40.66v.79c.11,0,.19-.02.27-.06h.11c-.04-.11-.11-.28-.21-.51l-.16-.23Zm-.96-.11c-.21-.04-.44-.06-.69-.06.07.3.16.59.27.85.18.04.32.06.43.06v-.85Zm-.69-30s.09.08.16.11c-.07-.23-.14-.47-.21-.74,0,.23.02.43.05.62m.05,3.29h.32v1.02h-.37l-.11,1.14c.18.11.27.26.27.45v.11c.32-1.55.41-3.01.27-4.37-.04.04-.09.06-.16.06h-.21v1.59Zm-.16,25.63c.36,0,.68.02.96.06l-1.01-1.42c0,.53.02.98.05,1.36m-.91.91l-.69-.06.11.57c.03.19-.02.34-.16.45h.05c.43-.04.73-.06.91-.06-.07-.26-.14-.57-.21-.91m-.11-2.44c-.21.04-.44.08-.69.11.03.64.05,1.06.05,1.25l.64.06v-1.42Zm.05-1.02v-.23l-.96-1.53c.11.53.18,1.15.21,1.87.25-.04.48-.08.69-.11h.05Zm-.21-28.7c-.04-.11-.05-.23-.05-.34-.32-.04-.68-.07-1.07-.11v.51c.39-.04.76-.06,1.12-.06m-1.12-1.47c.21,0,.41.02.59.06l-.59-.62v.57Zm-.05,13.95c.03.3.09.6.16.91.28-.3.55-.6.8-.91h-.96Zm1.49-10.15c-.04-.45-.09-.89-.16-1.3-.39,0-.82.02-1.28.06,0,.38-.02.81-.05,1.3.89-.04,1.39-.06,1.49-.06m.05,1.7c-.53.04-1.07.1-1.6.17l-.05.96v.45c.39-.04.94-.04,1.65,0v-1.59Zm1.01,4.42c-.04.15-.14.25-.32.28-.04.42-.09.79-.16,1.13-.07.34-.27.47-.59.4-.32-.07-.44-.28-.37-.62.07-.26.12-.57.16-.91-.11,0-.26,0-.45-.03-.2-.02-.38-.03-.56-.03h-.43c0,.98.02,1.91.05,2.78h1.71c.21-.38.37-.78.48-1.19.21-.64.37-1.25.48-1.81m-1.07-1.81h-1.65v1.02c.21,0,.51.01.88.03.37.02.6.03.67.03.04-.34.07-.7.11-1.08m-1.81,23.25c-.28,0-.64.02-1.07.06.04.34.05.68.05,1.02.32,0,.67.02,1.07.06,0-.23-.02-.6-.05-1.14m-.11-2.27c-.25.04-.59.06-1.01.06.03.49.05.91.05,1.25.43-.04.78-.06,1.07-.06,0-.45-.04-.87-.11-1.25m-.21-.96c-.07-.15-.12-.28-.16-.4-.14-.3-.07-.53.21-.68.04-.04.07-.06.11-.06l-.11-.23h-.91c0,.38.02.83.05,1.36h.8Zm-.91-2.38h.32l-.32-.51v.51Zm.53-19.96l-.64.11c0,.42-.02.85-.05,1.31.21-.04.42-.06.64-.06v-.51l.05-.85Zm-.11,2.38c-.21,0-.41.02-.59.06-.04.3-.05.6-.05.91h.64v-.96Zm.16-4.31c.04-.49.05-.93.05-1.3-.25.04-.53.06-.85.06l.11,1.25h.69Zm.05-2.89h-1.01c.04.19.07.4.11.62.32,0,.62-.02.91-.06v-.57Zm-.21,9.19h-.69c0,.19-.02.6-.05,1.22-.04.62-.07,1.11-.11,1.45.32.04.62.06.91.06-.04-.83-.05-1.74-.05-2.72m.16,3.74c-.36,0-.71-.02-1.07-.06v1.02h1.17c-.04-.3-.07-.62-.11-.96m-1.12,1.98v.62c.35-.19.67-.4.96-.62h-.96Zm1.17-15.94c0-.45-.02-.89-.05-1.3-.5-.38-1.03-.7-1.6-.96.04.11.09.3.16.57.14.53.27,1.1.37,1.7h1.12Zm.69,33.58c-.43-.04-.8-.06-1.12-.06v.45c0,.34-.16.51-.48.51s-.48-.17-.48-.51v-.4c-.21,0-.41.02-.59.06.18.34.37.62.59.85.11.08.31.14.61.2.3.06.68.08,1.15.08.18,0,.39-.02.64-.06-.11-.07-.18-.17-.21-.28-.04-.26-.07-.55-.11-.85m-2.4-27.45l-.32.06c.07.34.09.7.05,1.08,0,.08-.02.15-.05.23.11,0,.19-.02.27-.06.04-.45.05-.89.05-1.31m.11,17.64v-.11l-.64-1.13v1.19c.21.04.43.06.64.06m0,1.08l-.64-.11c0,.11-.02.23-.05.34v.85c.25,0,.48-.02.69-.06v-1.02Zm.05,2.04c-.21.04-.48.06-.8.06-.04.53-.05.98-.05,1.36h.32c.18-.04.37-.06.59-.06-.04-.53-.05-.98-.05-1.36m.05,2.38c-.18,0-.36.02-.53.06h-.43c.04.45.07.85.11,1.19.25,0,.55-.02.91-.06,0-.3-.02-.7-.05-1.19m-1.01-14.41h.37c.04-.3.05-.62.05-.96l-.43-.06v1.02Zm-.05,1.02v1.36l.48-.17.21-.11c-.18-.07-.27-.23-.27-.45v-.62h-.43Zm.75-7.37c-.14.04-.3.08-.48.11-.07.26-.16.51-.27.74.21-.04.46-.07.75-.11v-.74Zm.11-3.46v-.11c-.32-.04-.62-.06-.91-.06l.21.34c.25-.04.48-.09.69-.17m-1.07,5.39c.11.72.18,1.51.21,2.38l.53.06c0-.23.05-1.09.16-2.61-.32.04-.62.09-.91.17m1.33,21.04c-.32.04-.61.06-.85.06-.07.15-.18.25-.32.28h-.21l.32.74.05.11c.36-.07.71-.11,1.07-.11,0-.34-.02-.7-.05-1.08m-.27-27.56l-.11-1.19-1.17.06v1.02c.39.04.82.08,1.28.11m-.16-2.21l-.11-.68c-.36,0-.69-.02-1.01-.06v.79l1.12-.06Zm-.27-1.7c-.04-.3-.09-.6-.16-.91-.14.11-.3.13-.48.06-.32-.11-.41-.32-.27-.62l.11-.45c-.18-.08-.39-.13-.64-.17.25.57.43,1.25.53,2.04h.11c.21,0,.48.02.8.06m-1.23,29.43c-.25,0-.48.02-.69.06l.53.79c.03.11.09.21.16.28h.05c-.04-.34-.05-.72-.05-1.13m0-2.38c-.35.04-.69.06-1.01.06.04.49.05.95.05,1.36.28-.04.59-.08.91-.11.04-.38.05-.81.05-1.3m.16-2.33h-1.23c.03.49.05.95.05,1.36.29,0,.64-.02,1.07-.06.04-.45.05-.79.05-1.02.03-.11.05-.21.05-.28m0-2.21h-1.28l.05,1.19h1.23v-1.19Zm-.48-2.78c-.28.04-.59.08-.91.11l.11,1.65h1.17c-.07-.64-.2-1.23-.37-1.76m-.91-.91c.21,0,.43-.04.64-.11v-.4c-.21,0-.44-.02-.69-.06l.05.57Zm1.07-2.95c-.36,0-.75-.02-1.17-.06,0,.45.02.93.05,1.42.39.04.76.06,1.12.06v-1.42Zm-.37-14.06c-.04-.34-.05-.64-.05-.91l-.75-.06c0,.38.02.7.05.96h.75Zm.42,11.97l-1.28-.06c.04.34.05.7.05,1.08.46.04.87.06,1.22.06v-1.08Zm-.05-1.02c0-.72-.05-1.4-.16-2.04-.32.3-.68.57-1.07.79v1.19l1.23.06Zm-1.23-15.03c-.07-.04-.16-.06-.27-.06.11.38.18.83.21,1.36,0,.23.02.49.05.79l.69.06c-.11-.91-.32-1.61-.64-2.1-.04,0-.05-.02-.05-.06m.8,5.1c-.5,0-.96.02-1.39.06.11.04.19.08.27.11.46.23.83.45,1.12.68v-.85Zm-1.55,17.07c-.25.04-.51.06-.8.06v1.53h.85l-.05-1.59Zm-.05-1.02l-.05-.62c-.21,0-.45-.02-.69-.06v.74c.29,0,.53-.02.75-.06m.11,3.63h-.91v1.19h.96l-.05-1.19Zm-.21-6.69l-.69-.06c.04.45.05.93.05,1.42l.69.06c-.04-.49-.05-.97-.05-1.42m.27,8.9h-.96v.17c0,.11-.04.21-.11.28l.48.85.05.11h.59c0-.45-.02-.93-.05-1.42m-.32-11.06l-.8-.06.11,1.13.75.06c-.04-.42-.05-.79-.05-1.13m0-1.08v-.57c-.28.11-.59.23-.91.34v.17l.91.06Zm.11-10.72c-.04-.26-.05-.62-.05-1.08-.43,0-.87-.02-1.33-.06,0,.45.02.83.05,1.13h1.33Zm-.43-4.25c-.14,0-.28-.02-.43-.06h-.64c.03.45.05,1.06.05,1.81.04.11.05.23.05.34.43.04.85.06,1.28.06-.03-.23-.05-.43-.05-.62-.04-.64-.12-1.15-.27-1.53m-.43-1.08v-.06l-.85-.11v.17h.85Zm-.85,25.97c-.25-.04-.52-.06-.8-.06l.75,1.19h.05v-1.13Zm0-6.75c-.39,0-.73-.02-1.01-.06,0,.42-.02.89-.05,1.42l1.12.06c0-.49-.02-.96-.05-1.42m.05,2.44l-1.12-.06-.05.74h1.17v-.68Zm-.21-4.71l-.96-.06c.03.42.05.83.05,1.25.32.04.66.06,1.01.06l-.11-1.25Zm.21,6.41h-1.17c-.04.57-.05,1.06-.05,1.47l1.22.11v-1.59Zm-.85-22.4h-.91v2.16l1.07.06c0-.15-.02-.26-.05-.34,0-.75-.04-1.38-.11-1.87m-.16-1.02s.02-.09.05-.17c-.32,0-.62-.02-.91-.06v.23h.85Zm-1.12,23.42h-.05v.06l.05-.06Zm-.69-23.42c0-.07-.02-.15-.05-.23h-.59v.23h.64Zm.69,16.9c-.53-.04-1.01-.08-1.44-.11v1.36c.46.04.96.06,1.49.06,0-.45-.02-.89-.05-1.3m-.59-15.88h-.8c0,.08-.01.26-.03.54-.02.28-.03.5-.03.65v.91h.85v-2.1Zm.59,21.38l.05-.79c-.57,0-1.08-.02-1.55-.06v.51c.21.04.39.1.53.17l.21.23c.25-.04.5-.06.75-.06m.11-3.18c-.57,0-1.1-.02-1.6-.06v1.36c.46.04.98.06,1.55.06.04-.49.05-.95.05-1.36m1.33-14.97l-1.07-.06v.85c0,.34-.16.51-.48.51s-.48-.17-.48-.51v-.91h-.91c-.04.46-.09.87-.16,1.25.6.08,1.23.17,1.87.28.18.04.62.09,1.33.17-.07-.46-.11-.98-.11-1.59m-3.89,14.92h-1.01c.03.53.07.96.11,1.3.14,0,.3.02.48.06h.43v-1.36Zm.16-19.17v-.23c-.43,0-.85.02-1.28.06v.17h1.28Zm-.11,16.79c-.43-.04-.83-.06-1.23-.06,0,.38.02.85.05,1.42h1.17v-1.36Zm-.05-12.7l-1.23-.06v1.19l1.07.11c.07-.38.12-.79.16-1.25m.11-3.06h-1.33c-.04.57-.04,1.23,0,1.99l1.28.06v-.85c0-.15,0-.37.03-.65.02-.28.03-.46.03-.54m-2.61,5.16c-.04.15-.12.27-.27.34,0,.27-.02.72-.05,1.36.28.04.43.21.43.51,0,.34-.16.51-.48.51-.04.61-.05,1.13-.05,1.59.03.11.05.21.05.28,0,.11-.04.21-.11.28-.04.76-.05,1.42-.05,1.99.11.08.16.19.16.34s-.05.27-.16.34c0,.38.02.7.05.96,0,.11.02.23.05.34.07.04.18.08.32.11.18.04.39.08.64.11.11-.08.23-.11.37-.11s.27.08.37.23c1.17.15,2.36.15,3.57,0,.07-.15.19-.25.37-.28.18-.04.32.04.43.23,1.42-.23,2.6-.62,3.52-1.19-.04-.23.05-.4.27-.51.25-.15.53-.28.85-.4.67-.72,1.05-1.57,1.12-2.55.07-.72-.11-1.31-.56-1.79-.44-.47-1.11-.95-2-1.45-.36-.19-.72-.32-1.09-.4-.37-.08-.84-.14-1.41-.2-.57-.06-.99-.1-1.28-.14-1.85-.3-3.54-.47-5.07-.51m.32-2.21h-.91c.03.34.05.66.05.96.14.04.23.11.27.23h.59v-1.19Zm0-2.95c-.39.04-.8.06-1.23.06.04.38.09.83.16,1.36l.05.51h1.01c-.04-.72-.04-1.36,0-1.93m.05-1.02l.05-.11c-.43,0-.87.02-1.33.06v.11c.43,0,.85-.02,1.28-.06m0,16.67h-1.39c0,.53-.02,1.04-.05,1.53.5,0,.99-.02,1.49-.06-.04-.57-.05-1.06-.05-1.47m.16,2.5c-.57.04-1.1.06-1.6.06-.04.45-.05.89-.05,1.3.53-.04,1.12-.06,1.76-.06-.04-.3-.07-.74-.11-1.3m-2.08-10.27c-.07,0-.48-.02-1.23-.06v1.42h1.17c.04-.49.05-.94.05-1.36m.11-2.38c-.43-.04-.87-.06-1.33-.06v1.36h.59c.32,0,.55.02.69.06.03-.49.05-.95.05-1.36m-1.39,27.28v2.27c.46-.04.89-.06,1.28-.06.04-.6.05-1.34.05-2.21h-1.33Zm0-2.1v1.08h1.33c0-.3-.02-.64-.05-1.02-.25,0-.68-.02-1.28-.06m0-2.32v1.3c.64.04,1.07.06,1.28.06v-1.36h-1.28Zm0-2.67v1.64h1.23v-1.76c-.35.04-.76.08-1.23.11m1.17-15.43h-1.17v1.48h.48l.59.06.11-1.53Zm-1.23,13.27v1.13c.5-.04.92-.08,1.28-.11v-.96c-.32,0-.75-.02-1.28-.06m5.38-3h-.48c-.18-.04-.34-.06-.48-.06-.11.19-.25.28-.43.28s-.32-.09-.43-.28c-.64,0-1.24.02-1.81.06v.23c0,.34-.16.51-.48.51s-.48-.17-.48-.51v-.17c-.29,0-.55.02-.8.06v1.87c.6.04,1.03.06,1.28.06,0-.15.02-.28.05-.4,0-.23.04-.4.11-.51.14-.26.41-.47.8-.62.5-.15,1.26-.21,2.29-.17h.85v-.34Zm-4.53-2.27c-.29,0-.57.02-.85.06v1.3c.25-.04.51-.06.8-.06,0-.42.02-.85.05-1.3m.05-2.61h-.91v1.59h.85c.03-.53.05-1.06.05-1.59m.16-2.84c-.11,0-.3-.02-.59-.06h-.48v1.87h.96c.04-.53.07-1.13.11-1.81m.21-9.93c-.46-.04-.91-.06-1.33-.06.03.49.07,1.02.11,1.59.46,0,.92.02,1.39.06-.04-.41-.09-.94-.16-1.59m-.27-2.78c-.46,0-.94.02-1.44.06.11.49.19,1.02.26,1.59l1.33.11v-.34c-.07-.57-.12-1.04-.16-1.42m0-1.02v-.11l-1.65.17c.57-.04,1.12-.06,1.65-.06m-1.92,33.69c-.46.04-.89.08-1.28.11v2.27c.25,0,.68-.02,1.28-.06v-2.32Zm0-2.1h-1.28v1.19c.39-.04.82-.07,1.28-.11v-1.08Zm0-2.38h-1.33v1.36h1.33v-1.36Zm0-2.55h-.43c-.36.04-.66.06-.91.06v1.47h1.33v-1.53Zm-.05-2.21c-.5-.04-.94-.04-1.33,0l.05,1.25c.25,0,.53-.02.85-.06h.43v-1.19Zm0-2.84l-1.33.23v1.59c.39-.04.83-.04,1.33,0v-1.81Zm0-2.33c-.25,0-.71.04-1.39.11l.05,1.42,1.33-.23v-1.31Zm0-2.72l-1.39.11v1.7c.64-.07,1.1-.11,1.39-.11v-1.7Zm0-2.95c-.14-.04-.28-.06-.43-.06-.39,0-.73.02-1.01.06v2.04l1.44-.11v-1.93Zm.05-2.38c-.14.04-.3.06-.48.06-.39.04-.75.09-1.07.17l.05,1.13c.28-.04.62-.06,1.01-.06.14,0,.3.02.48.06v-1.36Zm.05-2.55h-1.6v1.76c.32-.08.64-.13.96-.17.21,0,.43-.02.64-.06v-1.53Zm0-2.38c-.53,0-1.07-.02-1.6-.06v1.48c.46-.04.99-.06,1.6-.06v-1.36Zm-.05,30.74c-.57.04-1,.06-1.28.06v.79c0,.23-.11.4-.32.51.21.04.44.08.69.11.75.11,1.4.19,1.97.23.28.04.53.06.75.06h.16c.04-.08.05-.19.05-.34.07-.38.12-.89.16-1.53-.35,0-.76.02-1.23.06v.57c0,.34-.16.51-.48.51s-.48-.17-.48-.51v-.51Zm-.11-33.4c-.5,0-.99-.02-1.49-.06v1.65c.57.04,1.1.06,1.6.06l-.11-1.64Zm-.37-2.55l-1.12.06v1.42c.43,0,.87.02,1.33.06l-.21-1.53Zm-1.87,23.42c-.28.04-.55.08-.8.11.03.42.05.81.05,1.19v.23c.25-.08.51-.13.8-.17l-.05-1.36Zm.05,2.38c-.29.04-.57.11-.85.23,0,.38-.02.83-.05,1.36.28-.07.59-.13.91-.17v-1.42Zm-.05-4.82c-.28.08-.53.15-.75.23h-.27c.07.49.12.93.16,1.3l.85-.11v-1.42Zm.05,7.26c-.36.04-.69.11-1.01.23l-.11,1.31c.07-.08.16-.11.27-.11l.85-.11v-1.31Zm-.27-25.86l-.75-.06s-.09-.02-.16-.06c.07.83.11,1.46.11,1.87h.8v-1.76Zm0-2.27l-.96.06v1.19c.11-.04.21-.06.32-.06l.64.06v-1.25Zm.32,30.46c-.28.04-.55.08-.8.11-.18.04-.32-.02-.43-.17l-.05.68c0,.3-.02.59-.05.85.43-.11.87-.19,1.33-.23v-1.25Zm-.26-25.41h-.91l-.16,1.7c.32-.08.67-.13,1.07-.17v-1.53Zm.26,30.85c-.5,0-.96-.04-1.39-.11.04.38.09.7.16.96l.64.17c.21.04.46.1.75.17-.11-.11-.16-.25-.16-.4v-.79Zm0-3.18c-.5.08-.96.15-1.39.23v1.81c.43.08.89.11,1.39.11v-2.15Zm-.16-14.41c-.46.08-.89.11-1.28.11.03.34.11.91.21,1.7.03,0,.05-.02.05-.06.32-.08.68-.17,1.07-.28l-.05-1.47Zm-.11-10.72c-.36.04-.68.1-.96.17h-.16c-.07.79-.12,1.53-.16,2.21.32-.23.75-.42,1.28-.57v-1.82Zm.11,7.94c-.5.04-.98.09-1.44.17,0,.42.02.83.05,1.25,0,.15.02.3.05.45.39,0,.83-.04,1.33-.11v-1.76Zm-.05-3.01c-.35.11-.59.25-.69.4-.21.27-.44.28-.69.06,0-.04-.02-.06-.05-.06v1.76c.5-.07.98-.13,1.44-.17v-1.98Zm-.05-2.04c-.39.11-.68.26-.85.45-.14.11-.3.15-.48.11,0,.38-.02.77-.05,1.19.32-.34.8-.58,1.44-.74l-.05-1.02Zm15.35,21.15c-.07-.08-.11-.17-.11-.28v-.06l-1.44-2.55c-1-1.81-1.83-3.23-2.51-4.25-.11-.11-.37-.64-.8-1.59-.14-.3-.27-.53-.37-.68h-.16c-.28.04-.46-.11-.53-.45v-.06c-.11-.04-.21-.06-.32-.06-.32-.04-.71-.06-1.17-.06-.96-.04-1.62.02-1.97.17l-.27.06v.17c-.04.15-.05.34-.05.57-.04.45-.04,1.1,0,1.93,0,.61,0,1.55.03,2.84.02,1.29.03,2.19.03,2.72.03,2,.03,3.59,0,4.76.21,0,.41.02.58.06.32.08.45.27.4.6-.05.32-.22.46-.51.43-.18-.04-.36-.06-.53-.06-.04.68-.09,1.21-.16,1.59-.04.26-.09.49-.16.68-.14.26-.3.43-.48.51-.14.04-.34.04-.59,0-.21,0-.46-.02-.75-.06-.64-.04-1.33-.13-2.08-.28-.82-.11-1.49-.25-2.03-.4-.29-.04-.52-.09-.69-.17-.11-.07-.2-.13-.27-.17-.14-.07-.25-.19-.32-.34-.28-1.02-.32-3.1-.11-6.24.28-4.2.43-6.31.43-6.35,0-.98-.09-2.23-.27-3.74-.25-1.93-.39-3.2-.43-3.8-.18-2.95-.05-6.99.37-12.14v-.06c-.07-.11-.11-.23-.11-.34,0-.15.05-.27.16-.34,0-.26-.04-1.17-.11-2.72-.04-.76-.05-1.36-.05-1.81v-.28l.11-.79v-.06c0-.11.02-.21.05-.28l.11-.45c.11-.3.32-.42.64-.34.25.11.36.3.32.57.21,0,.44-.02.69-.06.07-.23.23-.34.48-.34.21,0,.36.11.43.34.43-.04,1.63-.13,3.62-.28,0-.15.02-.32.05-.51.07-.3.26-.43.56-.37.3.06.44.26.4.6-.04.08-.05.15-.05.23,1.39-.08,2.58-.13,3.57-.17v-.06c.04-.34.21-.49.53-.45.28.04.43.21.43.51.89,0,1.72.02,2.51.06,3.45.19,6.18.93,8.21,2.21.07-.07.16-.11.27-.11.32-.04.5.11.53.45v.28c1.17.91,2.1,2.04,2.77,3.4,1.46,2.99,1.56,6.52.32,10.6-.68,2.15-2.42,4.05-5.22,5.67-.07.04-.23.11-.48.23-.29.08-.5.15-.64.23-.25.11-.43.21-.53.28h-.05c.03.15.11.38.21.68.18.45.43,1,.75,1.65.64,1.21,1.49,2.7,2.56,4.48l2.35,3.74c.25.08.37.25.37.51v.06c.96,1.47,1.62,2.44,1.97,2.89.28.38.53.76.75,1.13.18.3.3.57.37.79.14.42.09.74-.16.96-.11.11-.25.19-.43.23-.11.04-.25.06-.43.06-.25.04-.58.04-1.01,0-.21,0-.55-.02-1.01-.06-.32-.04-.52-.06-.59-.06-.11,0-.43.02-.96.06-.64.04-1.08.08-1.33.11-.53,0-.98-.02-1.33-.06-.5-.11-.87-.3-1.12-.57-.46-.46-.91-1.19-1.33-2.21l-.59-1.36c-.14-.07-.23-.21-.27-.4v-.11c-.04-.08-.09-.15-.16-.23l-.16-.34c-.11.04-.19.06-.26.06-.32,0-.48-.17-.48-.51v-.62Z" style="fill:#db0a17;"/><path d="m98.2,36.18c.32-.04.6-.09.85-.17l-.53-1.02-.27-.45c0,.45-.02,1-.05,1.65m-.05,3.23c.07.68.21,1.25.43,1.7,1.17-.07,2.17-.17,2.99-.28l-.85-1.76c-.78.19-1.63.3-2.56.34m-.05-.79c.82-.04,1.56-.13,2.24-.28l-.91-1.65c-.39.15-.82.27-1.28.34v.57c-.04.38-.05.72-.05,1.02m-.64-4.59c0-.15-.02-.28-.05-.4-.04-.15.02-.26.16-.34l-.32-.57-.75.06v1.48c.35-.08.68-.15.96-.23m-.96-2.04l.32-.06-.37-.62c0,.23.02.46.05.68m1.01,2.84c-.32.11-.68.19-1.07.23v.4c0,.15,0,.31-.03.48-.02.17-.03.31-.03.43.39,0,.75-.02,1.07-.06.04-.6.05-1.1.05-1.48m-.11,2.27c-.29.04-.64.06-1.07.06v1.59c.36,0,.69-.02,1.01-.06,0-.3.02-.68.05-1.13v-.45Zm-1.81.06c-.5.04-.84.06-1.01.06v1.53h1.01v-1.59Zm.05-.79c0-.11,0-.31.03-.59.02-.28.03-.5.03-.65-.29.04-.66.06-1.12.06v1.25c.14,0,.5-.02,1.07-.06m.11-3.46c-.43.04-.82.08-1.17.11v1.36c.5,0,.87-.02,1.12-.06h.05v-1.42Zm0-.79c-.04-.38-.05-.74-.05-1.08l-1.12.23v.96c.36-.04.75-.08,1.17-.11m-.16-1.87c-.04-.26-.09-.53-.16-.79l-.21-.45h-.69c.04.34.05.66.05.96v.51c.36-.07.69-.15,1.01-.23m-1.07-2.04h.27l-.27-.57v.57Zm2.88,11.29c-.32.04-.68.06-1.07.06,0,.3.02.59.05.85.03.26-.07.42-.32.45-.25.04-.39-.08-.43-.34-.04-.3-.05-.62-.05-.96h-1.23c-.25,0-.37-.13-.37-.4,0-.08.02-.13.05-.17-.14-.08-.21-.19-.21-.34v-1.42c-.32.04-.62.08-.91.11.39,1.1.69,1.91.91,2.44.36.76.68,1.19.96,1.3.18.08.62.11,1.33.11.46,0,1.01-.02,1.65-.06-.18-.45-.3-1-.37-1.65m-3.57-6.41l-1.76.11c.07.42.16.79.27,1.13.07.27-.02.44-.27.51.14.38.34.94.59,1.7.35-.04.75-.08,1.17-.11v-1.19c-.43,0-.76.02-1.01.06-.25.04-.39-.08-.43-.34-.04-.26.07-.42.32-.45.28-.04.66-.06,1.12-.06v-1.36Zm-1.76-9.58c.43,0,.84-.02,1.23-.06-.07-.34-.14-.62-.21-.85l-.32-1.31h-.64c0,.64-.02,1.38-.05,2.21m.05-3.01h.37l-.32-1.19h-.11c0,.38.02.77.05,1.19m1.49,4.99v-.51c-.07-.19-.12-.44-.16-.74-.43.04-.91.06-1.44.06v.74l-.05.46h1.65Zm.21,6.8v-.85c-.6.11-1.24.21-1.92.28.04.23.05.45.05.68l1.87-.12Zm-.05-3.23c-.61.04-1.24.06-1.92.06v1.82c.68-.07,1.33-.17,1.97-.28v-.62c0-.34-.02-.66-.05-.97m0-.79c-.04-.72-.07-1.38-.11-1.98h-1.71c-.04.83-.07,1.51-.11,2.04.68,0,1.31-.02,1.92-.06m-2.67.85h-1.07l.21,1.76v.17c.28,0,.57-.02.85-.06v-1.87Zm0-.79c.04-.53.07-1.21.11-2.04h-1.33c.03.72.07,1.4.11,2.04h1.12Zm.16-4.08c-.21,0-.45-.02-.69-.06-.18,0-.43-.02-.75-.06,0,.49.02.95.05,1.36h1.33l.05-.51v-.74Zm.05-.79c.04-.79.05-1.51.05-2.16-.46.04-.98.04-1.55,0v2.04c.32.04.59.06.8.06.25.04.48.06.69.06m.05-2.95c-.04-.38-.05-.74-.05-1.08h-1.55c.03.34.05.7.05,1.08.57.04,1.08.04,1.55,0m-.11-1.87c-.07-.68-.16-1.3-.27-1.87h-1.23v1.87h1.49Zm-.48-2.67c-.04-.11-.07-.22-.11-.31-.04-.09-.02-.2.05-.31l-.48-1.08c-.21.04-.45.08-.69.11.07.64.12,1.17.16,1.59h1.07Zm-1.28-2.38c.11,0,.23-.02.37-.06l-.53-1.02c.04.27.07.59.11.96l.05.11Zm-1.71,18.43v.06c.64.04,1.08.06,1.33.06h.21s.09,0,.16-.03c.07-.02.14-.03.21-.03.35-.04.64.02.85.17.11.08.21.19.32.34.07-.11.18-.17.32-.17,0-.19-.02-.4-.05-.62-1.07.11-2.19.19-3.36.23m0-8.85c.35.04.78.08,1.28.11v-1.99h-1.33c.03.68.05,1.31.05,1.87m-.05-2.67h1.33c0-.42-.02-.77-.05-1.08-.32,0-.76-.02-1.33-.06,0,.42.02.79.05,1.13m0,10.72c.64-.04,1.24-.08,1.81-.11-.04-.04-.05-.07-.05-.11l-.21-1.87c-.53,0-1.1-.02-1.71-.06.11.95.16,1.66.16,2.16m-.11-12.65c.6.04,1.07.06,1.39.06v-1.87h-1.44c0,.26.02.87.05,1.81m.05,5.39s-.09.08-.16.11c.28.49.59.96.91,1.42h.69c-.04-.46-.05-.93-.05-1.42-.57-.04-1.03-.08-1.39-.11m-.16-8h1.44c-.04-.42-.07-.91-.11-1.47-.43.04-.87.06-1.33.06v1.42Zm0-4.82h1.01v-.06c0-.07.02-.13.05-.17l-.69-1.47-.32.06c-.04.53-.05,1.08-.05,1.65m-.05,2.61c.46,0,.89-.02,1.28-.06v-.12c-.11-.68-.16-1.23-.16-1.64h-1.12v1.81Zm0,14.52c.6.04,1.19.06,1.76.06-.04-.64-.07-1.32-.11-2.04h-.8c-.32.08-.66.13-1.01.17.04.49.09,1.1.16,1.81m-.48-7.03h-.75l.8,1.87c0-.57-.02-1.19-.05-1.87m-.96,10.77l-.05.06h1.07v-.06h-1.01Zm.05-.79h.91c0-.45-.05-1.15-.16-2.1l-.05-.06c-.28,0-.6-.02-.96-.06l.05.06c.14,1.17.21,1.89.21,2.16m.8-12.7c-.04-.83-.05-1.42-.05-1.76h-1.01c.04.6.05,1.17.05,1.7.28.04.62.06,1.01.06m-.11-2.55v-1.42h-1.01c.03.49.05.96.05,1.42h.96Zm.21,4.48c-.04-.3-.05-.68-.05-1.13-.43,0-.78-.02-1.07-.06v.06c0,.15-.05.27-.16.34l.27.79h1.01Zm-1.23,7.77c.32,0,.64.02.96.06-.07-.64-.12-1.21-.16-1.7-.29.04-.59.08-.91.11,0,.45.04.96.11,1.53m.96-16.22h-1.07c.04.68.05,1.27.05,1.76h1.01v-1.76Zm.05-.79c0-.6.02-1.17.05-1.7-.43.04-.87.06-1.33.06l.05,1.13.05.51h1.17Zm.11-2.5c.03-.3.07-.62.11-.96,0-.04.02-.08.05-.11l-.32-.68s-.09.08-.16.11c-.35.11-.75.21-1.17.28l.11,1.42c.46,0,.92-.02,1.39-.06m-1.49-2.15c.35-.08.67-.17.96-.28h.11c-.21-.57-.39-1.1-.53-1.59-.11-.23-.18-.43-.21-.62-.04,0-.07.02-.11.06l-.32.11c.04.72.07,1.49.11,2.33m-.32,10.21h-.27l.32,1.08c0-.34-.02-.7-.05-1.08m0-.79c0-.45-.02-.93-.05-1.42h-.75s-.09-.02-.16-.06l.43,1.36v.11h.53Zm-1.01,15.26h1.28c0-.23-.07-.91-.21-2.04l-.05-.17-1.17-.06c.11.83.16,1.55.16,2.15v.11Zm-.27-3.06l1.23.06c-.07-.57-.11-1.08-.11-1.53h-1.33l.21,1.48Zm1.17-14.41c0-.49-.02-1.06-.05-1.7h-1.55c.07.19.13.37.19.54.05.17.09.31.11.43s.04.19.08.23l.21.74c.07-.15.18-.23.32-.23h.69Zm-.21-4.14c-.61,0-1.23.02-1.87.06l.21,1.65c.5-.04,1.08-.06,1.76-.06v-.51l-.11-1.13Zm0-.79c-.04-.49-.05-.94-.05-1.36-.6.08-1.31.12-2.13.12l.16,1.3c.71-.04,1.39-.06,2.03-.06m-.11-2.16c-.04-.79-.05-1.53-.05-2.21-.71.19-1.49.32-2.35.4.03.49.09,1,.16,1.53l.05.4c.85,0,1.58-.04,2.18-.12m-2.45,25.29v.06h3.31c-1,0-2.1-.02-3.31-.06m2.35-28.36v-1.19c-.36.08-1.05.13-2.08.17h-.32c0,.42.02.91.05,1.48.85-.08,1.63-.23,2.35-.45m-2.45,27.51c.43.04.83.06,1.23.06v-.06c0-.6-.05-1.34-.16-2.21h-.05l-1.33-.06c.07.64.18,1.4.32,2.27m-.37-3.06l1.33.06-.21-1.42h-1.17c0,.45.02.91.05,1.36m-.96-14.86c.07,1.1.12,2.14.16,3.12l.05-.28c.46-1.51.76-2.57.91-3.18l-1.12.34Zm.91-1.08c-.35,0-.69-.02-1.01-.06l.05.34c.32-.11.64-.21.96-.28m-1.12-.85c.46.04.94.06,1.44.06.04-.26.14-.45.32-.57l-.16-1.08h-1.76c.07.57.12,1.1.16,1.59m-.37,20.59s-.02.08-.05.11h1.33v-.06c-.39,0-.82-.02-1.28-.06m.11-22.97h1.7l-.16-1.3c-.39,0-.98-.04-1.76-.12l.21,1.42Zm-.16,22.18c.43,0,.83.02,1.23.06-.14-.87-.25-1.62-.32-2.27-.43,0-.84-.02-1.23-.06.07.83.12,1.34.16,1.53,0,.08.05.32.16.74m-.16-24.39c.82.08,1.4.12,1.76.12l-.05-.28c-.07-.57-.12-1.1-.16-1.59-.53.08-1.14.11-1.81.11l.27,1.64Zm-.21,21.33c.39.04.8.06,1.23.06-.04-.45-.05-.89-.05-1.3-.46,0-.89.02-1.28.06.03.34.07.74.11,1.19m1.71-23.88c-.04-.57-.05-1.06-.05-1.48-.53.08-.91.21-1.12.4-.29.26-.52.66-.69,1.19.68,0,1.3-.04,1.87-.11m-2.56,16.67c.14-.04.28-.09.43-.17.18-.04.32.02.43.17.11-.38.19-.72.27-1.02.07-.26.12-.55.16-.85l-.11.11c-.35.11-.75.21-1.17.28v1.48Zm0-2.27c.35-.08.67-.17.96-.28.21-.04.37.04.48.23.07-.3.14-.62.21-.96-.25,0-.37-.13-.37-.4v-.96l-1.28.34v2.04Zm.32-11.85l-.11-.62c-.07.23-.14.42-.21.57.11.04.21.06.32.06m-.37,14.92v1.47c.28-.6.51-1.15.69-1.64-.21.08-.44.13-.69.17m0-5.96c.43-.07.85-.17,1.28-.28,0-.64-.04-1.3-.11-1.99-.43.11-.85.21-1.28.28.07.64.11,1.3.11,1.98m-.16-2.78c.43-.08.85-.17,1.28-.28l-.05-.51c-.5-.04-.96-.08-1.38-.11.03.3.09.6.16.91m8.48,12.76c.07-.07.16-.11.27-.11h.11c-.75-1.14-1.44-2.55-2.08-4.25-.25,0-.37-.13-.37-.4,0-.11.03-.21.11-.28l-.43-1.47c-.07-.08-.11-.15-.11-.23l-.85-2.78c-.39-1.32-.66-2.19-.8-2.61l-.05-.11c0-.11-.03-.25-.08-.4-.05-.15-.1-.3-.13-.45v.11c-.18.72-.51,1.95-1.01,3.69-.46,1.51-.78,2.7-.96,3.57-.21,1.06-.76,2.55-1.65,4.48l-.91,1.76-.05.17c.07-.04.18-.06.32-.06l.43-.11v-.17c0-.26.12-.4.37-.4s.37.13.37.4v.06c.39-.04.83-.06,1.33-.06v-.23c.04-.26.18-.38.43-.34.25.04.36.19.32.45v.11c.25-.04.59-.06,1.01-.06,0-.19.11-.3.32-.34.25-.04.39.08.43.34h.48c1.07,0,1.95-.04,2.67-.11.07-.15.18-.23.32-.23.07,0,.14.02.21.06m-8.74-14.46c.43.04.89.08,1.39.11-.04-.49-.09-1.02-.16-1.59h-1.6c.14.45.27.95.37,1.48m1.12-2.27l-.21-1.42c-.29-.04-.53-.06-.75-.06l-.75,1.47h1.71Zm-2.24,22l1.92.11.11-.11c-.07-.23-.11-.38-.11-.45,0-.19-.05-.74-.16-1.64-.64,0-1.23-.02-1.76-.06v2.15Zm-.05-2.95c.57,0,1.15.02,1.76.06-.03-.38-.07-.74-.11-1.08l-.32.06c-.29.08-.51.11-.69.11-.11.04-.2.06-.27.06-.07-.04-.12-.06-.16-.06-.07,0-.14-.04-.21-.11v.96Zm0-1.81v.23l.05-.06.11-.17h-.16Zm0-.79h.16c.14.04.23.11.27.23l.69-1.42h-.05c-.32.04-.68.08-1.07.11v1.08Zm0-1.87l.85-.11v-1.59c-.25.04-.53.06-.85.06v1.65Zm0-2.44c.32,0,.62-.04.91-.11v-1.47c-.29.04-.59.08-.91.11v1.47Zm0-2.27c.32-.04.62-.08.91-.11v-2.04c-.36.08-.71.13-1.07.17.07.64.12,1.3.16,1.98m.37-7.71c-.07-.42-.16-.81-.27-1.19l-.53,1.08h.11c.21.04.44.08.69.11m-.59,4.93c.36-.04.73-.09,1.12-.17-.04-.72-.09-1.4-.16-2.04-.28.08-.59.13-.91.17l-.37.06c.14.64.25,1.31.32,1.98m-.48-2.78l.48-.06c.28-.04.59-.07.91-.11-.07-.42-.12-.81-.16-1.19l-.96-.11c-.14-.04-.23-.11-.27-.23l-.37.74c.11.04.18.11.21.23.07.23.12.47.16.74m-.75,17.58l.75.06v-2.1h-.75v2.04Zm-.05-4.82c.03.64.05,1.3.05,1.98h.69v-1.93c-.25-.04-.5-.06-.75-.06m0-.79c.25.04.5.06.75.06v-.91c-.25.04-.51.06-.8.06,0,.26.02.53.05.79m.05-11.85l-.05-.23-.11.23h.16Zm-.16,10.26c.32,0,.6-.02.85-.06v-1.64h-1.01c.07.26.11.49.11.68.04.34.05.68.05,1.02m-.27-2.5h1.12v-1.47c-.93.11-1.4.17-1.44.17.03.08.09.28.16.62l.16.68Zm-.48-2.1c.07,0,.59-.06,1.54-.17h.05c-.04-.68-.09-1.32-.16-1.93-.46.08-.94.13-1.44.17h-.11c-.07.49-.04,1.13.11,1.93m.75-4.88c0,.08-.02.14-.05.2-.04.06-.11.08-.21.06-.11-.02-.19,0-.27.09l-.69,1.53h.21c.14.04.23.13.27.28.46-.04.92-.09,1.38-.17-.07-.72-.18-1.4-.32-2.04l-.32.06Zm-2.13,17.81l.21-.06c.25-.04.39.08.43.34.04.27-.07.42-.32.45l-.32.06c.04.3.05.59.05.85.32-.64.67-1.09,1.07-1.36.07-.04.19-.08.37-.11.14,0,.3-.02.48-.06.39,0,.91,0,1.55-.03.64-.02,1.42-.03,2.35-.03-.04-.04-.07-.09-.11-.17l-3.47-.17c0,.26-.12.4-.37.4s-.37-.13-.37-.4v-.06c-.57-.04-1.1-.06-1.6-.06,0,.12.02.25.05.4m-.11-1.25c.5.04,1.05.08,1.65.11v-1.98h-1.76c.04.72.07,1.34.11,1.87m.75-11.63c-.14-.87-.18-1.61-.11-2.21-.36.83-.66,1.63-.91,2.38.32-.04.66-.09,1.01-.17m-.96,9.02c.6-.04,1.23-.06,1.87-.06,0-.72-.02-1.38-.05-1.99-.04,0-.69.04-1.97.11l.11,1.36.05.57Zm-.21-2.72c1.14-.08,1.81-.11,2.03-.11-.04-.26-.05-.53-.05-.79h-.11c-.92.08-1.56.11-1.92.11.04.26.05.53.05.79m.85-3.29c-.04.26-.18.38-.43.34h-.21c-.07,0-.14,0-.21-.03-.07-.02-.12-.03-.16-.03,0,.45.02.93.05,1.42.39,0,1.03-.04,1.92-.11h.11c0-.34-.02-.66-.05-.96,0-.23-.04-.47-.11-.74h-.05c-.25.04-.53.08-.85.11m-1.07-.68c.18,0,.34-.02.48-.06.57-.07,1.01-.13,1.33-.17h.05l-.32-1.3-1.33.23h-.16v.11l-.05.17v1.02Zm-.64,2.5c-.03-.45-.05-.89-.05-1.3l-.43,1.3h.48Zm-.64,15.26l.53-1.48h-.59c.03.45.05.89.05,1.31v.17Zm-.11-2.27h.75c.07,0,.12.02.16.06.28-.91.51-1.57.69-1.98-.04-.04-.05-.08-.05-.11-.04.04-.07.06-.11.06-.46.11-.98.21-1.54.28.04.64.07,1.21.11,1.7m-.16-2.5c.5-.07.99-.17,1.49-.28h.11c0-.42-.02-.83-.05-1.25-.57.11-1.12.19-1.65.23v.23l.11,1.08Zm-.21-2.1c.6-.04,1.19-.11,1.76-.23-.04-.19-.05-.38-.05-.57-.6-.04-1.19-.06-1.76-.06l.05.85Zm-.11-1.65c.57,0,1.15.02,1.76.06-.04-.53-.07-1.13-.11-1.82l-1.76.11.11,1.64Zm-.16-2.44l1.71-.11v-.51l-.16-1.36h-.69c-.25,0-.37-.13-.37-.4s.12-.4.37-.4h.64l-.05-.79-.75.12h-.05c-.21.76-.43,1.42-.64,1.98v1.48Zm-1.39,11.63c.04.45.05.91.05,1.36.29-.04.53-.09.75-.17.25-.08.51-.32.8-.74-.14-.08-.21-.19-.21-.34v-.34c-.39.11-.85.19-1.39.23m0-.79c.5-.04.96-.11,1.39-.23-.04-.38-.05-.76-.05-1.14-.36.04-.84.06-1.44.06l.11,1.31Zm-.21-2.1c.64,0,1.14-.02,1.49-.06-.04-.49-.07-1.02-.11-1.59-.46.04-.98.08-1.54.11.07.53.12,1.04.16,1.53m-.32-2.33c.64-.04,1.19-.07,1.65-.11l-.11-1.13v-.17l-1.76.11.21,1.3Zm-.43-2.1l1.87-.11-.05-.96h-.43c-.25,0-.37-.13-.37-.4s.12-.4.37-.4h.37c-.04-.64-.07-1.23-.11-1.76-.04-.07-.05-.13-.05-.17l-.53,1.19-1.07,2.44v.17Zm-.32,2.15l-.21-1.19-.53,1.25.75-.06Zm-1.12,4.48h1.28c.14,0,.27-.02.37-.06l-.11-1.3c-.68.04-1.22.06-1.65.06l.11,1.3Zm-.21-2.1c.43,0,.98-.02,1.65-.06-.03-.53-.09-1.04-.16-1.53l-1.12.06h-.11l-.37,1.02.11.51Zm-.53,2.16c0-.38-.04-.77-.11-1.19-.14.42-.27.81-.37,1.19h.48ZM86.26,2.16c-.11.45.02,1.21.37,2.27.28.83.73,1.95,1.33,3.34l.37.85c.21.04.32.17.32.4,0,.08-.02.13-.05.17l2.13,4.31s.07.1.11.17v.11c.35.76.69,1.55,1.01,2.38.04,0,.05.02.05.06.29.76.55,1.53.8,2.33.07.08.11.15.11.23v.06c.18.53.34,1.06.48,1.59.18.08.27.21.27.4,0,.08-.03.17-.11.28l.16.57c.07.04.12.1.16.17.14.3.27.79.37,1.47.18.04.28.15.32.34.04.19-.04.32-.21.4l.11.79c.04.23.07.43.11.62h.05c.25,0,.37.13.37.4,0,.15-.05.27-.16.34.07.27.16.51.27.74l.64,1.19h.21c.21,0,.34.13.37.4,0,.11-.05.23-.16.34.03.08.05.17.05.28l1.49,2.72.37-.06c.25-.04.39.08.43.34.03.27-.07.42-.32.45h-.05l.53.96c.07.04.14.1.21.17.04.08.05.17.05.28l.32.57.64,1.19c.18,0,.3.1.37.28.04.11.02.21-.05.28.89,1.63,1.63,3.06,2.24,4.31.25-.07.41.02.48.28.04.19-.02.34-.16.45l.43,1.02c.11.23.05.4-.16.51-.21.11-.37.06-.48-.17l-.53-1.19c-.82.11-1.94.23-3.36.34-.92.04-1.74.06-2.45.06-.82,0-1.33-.04-1.55-.11-.5-.19-.96-.77-1.39-1.76-.25-.57-.59-1.46-1.01-2.67-.21,0-.34-.11-.37-.34-.04-.15.02-.27.16-.34-.36-1.02-.64-1.78-.85-2.27-.36-.87-.68-1.4-.96-1.59-.07-.04-.18-.06-.32-.06l-.69.06c-1.39-.07-3.91-.13-7.57-.17-1.89,0-3.4.02-4.53.06h-1.49c-.18.04-.32.06-.43.06h-.11c-.36.26-.71.81-1.07,1.64-.21.49-.55,1.44-1.01,2.84-.43,1.29-.78,2.19-1.07,2.72-.46.95-.96,1.51-1.49,1.7-.64.19-1.58.28-2.83.28-1.39.04-2.29.09-2.72.17-.25.04-.39-.08-.43-.34-.04-.26.07-.42.32-.45.46-.08,1.4-.13,2.83-.17h1.12c0-.45-.02-.93-.05-1.42-.11,0-.21.02-.32.06h-1.23v.97c0,.26-.12.4-.37.4s-.37-.13-.37-.4v-.91c-.32,0-.6.02-.85.06-.07.27-.14.55-.21.85-.07.26-.23.36-.48.28-.25-.07-.34-.25-.27-.51.25-.98.55-1.98.91-3.01-.03-.07-.05-.15-.05-.23,0-.19.09-.32.27-.4l.21-.62-.11-.68c-.04-.23.07-.38.32-.45.07,0,.14.02.21.06l.91-2.1c-.11-.11-.16-.23-.16-.34,0-.26.12-.4.37-.4h.05l.16-.28-.11-.28c-.07-.26.02-.43.27-.51h.16l.91-1.87c.39-.87.76-1.81,1.12-2.84.36-1.02.76-2.27,1.23-3.74.46-1.48.76-2.48.91-3,.57-1.74,1.37-3.71,2.4-5.9-.07-.11-.09-.23-.05-.34.04-.12.11-.19.21-.23,0-.04.02-.06.05-.06h.05l1.87-3.8c-.14-.08-.21-.19-.21-.34,0-.26.12-.4.37-.4h.21l.05-.06c-.07-.15-.12-.28-.16-.4-.11-.26-.05-.43.16-.51.14-.08.28-.06.43.06l.27-.62c-.14-.04-.21-.15-.21-.34,0-.26.12-.4.37-.4h.21l.05-.06c.11-.23.28-.85.53-1.87v-.06c0-.11.04-.21.11-.28.25-.87.57-1.49.96-1.87.35-.34.92-.55,1.71-.62,0-.19.02-.34.05-.45.07-.27.23-.36.48-.28.25.08.34.25.27.51-.04.04-.05.09-.05.17h.21c1.35-.04,2.2-.13,2.56-.28.21-.11.37-.06.48.17.11.23.05.4-.16.51v1.19l.11-.06h.16c-.11-.53-.12-.94-.05-1.25.07-.26.22-.37.45-.31.23.06.33.2.29.43" style="fill:#db0a17;"/><path d="m135.83,7.66c.07.04.11.13.11.28l.16-.17-.27-.11Zm-1.71-.17c.68.04,1.15.06,1.44.06h.16c-.5-.26-1.05-.62-1.65-1.08.04.3.05.64.05,1.02m.91,27.73c-.32.04-.66.06-1.01.06v.68c.5-.08.94-.15,1.33-.23-.21-.04-.32-.17-.32-.4v-.11Zm.59.45c.32-.07.6-.17.85-.28.21-.08.36,0,.45.25.09.25,0,.42-.24.54-.64.23-1.53.42-2.66.57v1.36h.11c.14.04.25.13.32.28l.43-.34c.78-.68,1.39-1.25,1.81-1.7.25-.27.41-.49.48-.68.07-.07.11-.13.11-.17-.07-.04-.16-.09-.27-.17-.07-.04-.18-.08-.32-.11l-.11-.06h-.8v.17c0,.15-.05.27-.16.34m-.37-1.25l-1.39-.96c.07.34.11.68.11,1.02.46-.04.89-.06,1.28-.06m-1.97,3.57v-1.13c-.29.04-.61.08-.96.11,0,.11,0,.27.03.48.02.21.03.37.03.48.32,0,.62.02.91.06m0-1.93v-.74l-.96.12v.74c.35-.04.67-.08.96-.11m-.05-1.53c0-.38-.04-.76-.11-1.13-.04-.19.04-.32.21-.4l-.69-.51c-.07-.04-.12-.09-.16-.17-.11.68-.16,1.46-.16,2.32l.91-.11Zm.16-25.75v-.57l-.32-.06-.96-.06v.74c.46,0,.89-.02,1.28-.06m0,.79c-.39.04-.82.06-1.28.06v1.13c0,.08-.02.13-.05.17.18.11.32.21.43.28.14.08.23.11.27.11.03,0,.07-.02.11-.06.11-.11.25-.25.43-.4.32-.3.71-.7,1.17-1.19l1.17-1.36h-.05c-.29,0-.76-.02-1.44-.06v.4h.05c.25-.04.39.08.43.34.03.27-.07.42-.32.45h-.16c0,.26-.12.4-.37.4-.21,0-.34-.1-.37-.29m0-2.15c0-.42-.02-.79-.05-1.13h-1.28v1.02l1.07.06.27.06Zm-1.33-1.93h.85l-.85-.68v.68Zm-.69,4.14h-1.28l.64.34c.14.04.35.17.64.4v-.74Zm.21,25.07c0-.72.04-1.36.11-1.93-.14.15-.29.32-.43.51-.11.11-.25.28-.43.51l-.48.62c-.14.19-.25.32-.32.4.42,0,.94-.04,1.54-.11m-.21-25.86v-.79c-.5-.04-.96-.08-1.39-.11v.91h1.39Zm-.05-1.59v-.96c-.39,0-.84.02-1.33.06v.79l1.33.11Zm0-1.76v-1.3c-.43-.34-.87-.64-1.33-.91v2.27c.5-.04.94-.06,1.33-.06m-1.6,35.33v.57c.39-.15.75-.3,1.07-.45-.32-.04-.68-.08-1.07-.11m0-.79l1.28.11c.25.04.35.19.32.45v.06l.21-.11c.5-.34,1.24-.89,2.24-1.64h-.11c-.11,0-.2-.04-.27-.11-.32-.04-.66-.06-1.01-.06v.85c0,.27-.12.4-.37.4s-.37-.13-.37-.4v-.85c-.57,0-1.21.04-1.92.11v1.19Zm0-1.98c.67-.08,1.31-.11,1.92-.11,0-.04,0-.17-.03-.4-.02-.23-.03-.4-.03-.51-.36,0-.73.02-1.12.06-.25,0-.51.02-.8.06.04.27.05.57.05.91m-.11-1.7c.28-.04.55-.06.8-.06.39-.04.78-.06,1.17-.06v-.74c-.82.08-1.51.13-2.08.17l.11.68Zm-.37-28.41c-.5-.04-.94-.06-1.33-.06v.91c.43.11.87.27,1.33.46v-1.31Zm0-.79v-.79h-1.44c.04.27.05.51.05.74.43,0,.89.02,1.39.06m-.37,29.21l-.11-.57c-.35.23-.71.44-1.07.62.39-.04.78-.06,1.17-.06m.37-33.06h-1.65c.04.42.07,1.04.11,1.87l.05.4h1.49v-2.27Zm-1.71-.79h.8c-.25-.11-.52-.21-.8-.28v.28Zm-.96,37.6c.85-.08,1.65-.1,2.4-.06v-1.08c-.36.04-1.17.15-2.45.34v.11c0,.3.02.53.05.68m-.05-1.59l2.45-.4c0-.34-.02-.66-.05-.96-.75.04-1.56.06-2.45.06v.28c0,.26.02.6.05,1.02m.32-35.22c-.43,0-.87.02-1.33.06.04.57.04,1.32,0,2.27h1.49v-.4c-.07-.83-.12-1.47-.16-1.93m.27,3.86c0-.23-.02-.47-.05-.74h-1.6v.91c.25-.07.53-.11.85-.11.25-.04.51-.06.8-.06m-.32-4.65v-.51c-.46-.11-.93-.21-1.39-.28.04.26.05.55.05.85.5-.04.94-.06,1.33-.06m.37,5.44c-.29,0-.53.02-.75.06-.43.04-.78.09-1.07.17.6.08,1.21.21,1.81.4v-.62Zm-2.77,33.18v1.25c1.71-.08,3.23-.32,4.59-.74v-.79c-.68-.04-1.42-.02-2.24.06v.06c-.04.11-.05.21-.05.28-.04.04-.05.08-.05.11-.11.15-.23.23-.37.23s-.25-.08-.32-.23c-.04-.04-.05-.08-.05-.14s-.02-.14-.05-.25c-.43.04-.91.09-1.44.17m0-.79c.53-.08,1.01-.13,1.44-.17-.04-.19-.05-.42-.05-.68v-.06c-.53.08-.99.13-1.39.17v.74Zm-.05-1.53c.39-.04.87-.09,1.44-.17-.04-.46-.05-.81-.05-1.08v-.34h-1.6c.11.49.18,1.02.21,1.59m.37-31.25v-1.13c-.78.04-1.53.04-2.24,0,.03.57.09,1.12.16,1.64.46-.04.92-.04,1.39,0,0-.04.02-.08.05-.11.14-.15.35-.28.64-.4m.05-4.2c-.5,0-1.3.02-2.4.06,0,.76.02,1.49.05,2.21.71.04,1.49.04,2.35,0,.04-.98.04-1.74,0-2.27m-.05-.79c0-.34-.04-.66-.11-.96-.75-.07-1.51-.09-2.29-.06v1.08c1.1-.04,1.9-.06,2.4-.06m-2.51,38.79v.62c0,.15-.05.26-.16.34.53.04,1.07.06,1.6.06v-1.19l-1.44.17Zm-.05-.79l1.49-.17v-.74c-.53.08-1.07.13-1.6.17.04.27.07.51.11.74m-.21-1.53c.53-.04,1.08-.09,1.65-.17-.03-.64-.12-1.25-.27-1.81-.5-.04-.99-.12-1.49-.23l-.16.06c.04.45.11,1.1.21,1.93l.05.23Zm-.21-32.61c-.61,0-1.19-.02-1.76-.06v1.7c.25.04.48.08.69.11.11.04.19.1.27.17.32-.07.64-.13.96-.17-.07-.57-.12-1.15-.16-1.76m-.11-3.01h-1.7v2.15c.57.04,1.15.06,1.76.06-.04-.72-.05-1.46-.05-2.21m-.05-.79v-1.02c-.53.04-1.07.1-1.6.17,0,.3-.02.59-.05.85h1.65Zm-.11,38.85c-.85.08-1.6.15-2.24.23,0,.08.02.17.05.28.6.11,1.23.19,1.87.23.14.04.28.06.43.06-.07-.07-.11-.17-.11-.28v-.51Zm-.05-.79c-.04-.23-.07-.49-.11-.79-.75.04-1.46.08-2.13.11v.91c.64-.08,1.39-.15,2.24-.23m-.48-3.74s-.05-.07-.05-.11c-.04-.08-.05-.17-.05-.28l-.32-.06c-.68.04-1.14.06-1.39.06v2.67l2.08-.11v-.11c-.14-.91-.23-1.59-.27-2.04m-2.45,4.77c-.11,0-.21.02-.32.06l.32.06v-.11Zm-1.01-33.06v1.08l.64-.34c.43-.23.85-.42,1.28-.57-.6-.08-1.24-.13-1.92-.17m1.76-2.27c-.64-.04-1.24-.08-1.81-.11,0,.49.02,1.02.05,1.59l1.76.11v-1.59Zm-.05-2.89h-2.03c.07.61.14,1.27.21,1.99.57.04,1.17.08,1.81.11v-2.1Zm0-.79c.04-.26.05-.51.05-.74-.57.15-1.14.34-1.71.57-.14.04-.29.09-.43.17h2.08Zm-.75,38.23v-.91c-.5.04-.96.06-1.39.06v.91h.05c.43,0,.87-.02,1.33-.06m-.05-4.31h-1.55c.11.79.16,1.68.16,2.67.46,0,.92-.02,1.39-.06v-2.61Zm0-.79v-.28c-.43-.23-.82-.47-1.17-.74l-.69-.51c.11.45.19.96.27,1.53h1.6Zm-1.65-27.17h-1.54c.07.76.16,1.44.27,2.04h.53c.25-.19.5-.36.75-.51v-1.53Zm-.32-5.16h-.75l-.37.23c-.07.45-.12.96-.16,1.53.5.04.99.09,1.49.17-.07-.68-.14-1.32-.21-1.93m.27,2.72c-.53-.08-1.05-.13-1.55-.17-.04.57-.04,1.17,0,1.81h1.6c-.03-.6-.05-1.15-.05-1.65m-.37,33.86c-.61,0-1.17-.02-1.71-.06v.62c.53.23,1.1.44,1.71.62v-1.19Zm-.21-3.4c-.46,0-1.03.02-1.71.06.11,1.1.16,1.93.16,2.5.57.04,1.14.06,1.71.06,0-.98-.05-1.85-.16-2.61m-.48-2.95c-.43-.07-.91-.11-1.44-.11.04.57.09,1.29.16,2.15v.17c.64-.04,1.21-.06,1.71-.06-.11-.79-.25-1.51-.43-2.16m-1.44-.91c.28,0,.57.02.85.06-.32-.3-.6-.62-.85-.96v.91Zm.21-27.68c.04-.26.05-.51.05-.74l-.69.62.64.11Zm-1.12,6.47c.03.72.05,1.32.05,1.81.5-.68,1.05-1.32,1.65-1.93-.18.04-.47.06-.88.06s-.68.02-.83.06m1.17-2.95c-.32.04-.75.06-1.28.06,0,.53.02,1.23.05,2.1.14-.04.39-.06.75-.06h.75c-.11-.64-.2-1.34-.27-2.1m-.05-2.72c-.36-.04-.71-.09-1.07-.17-.07.64-.12,1.36-.16,2.16.5,0,.91-.02,1.23-.06-.03-.68-.03-1.32,0-1.93m-.53,34.08c-.29-.04-.55-.06-.8-.06.25.11.51.25.8.4v-.34Zm-.43-6.41c-.5,0-1.12.04-1.87.11.04.83.09,1.63.16,2.38.32,0,.8-.02,1.44-.06l.43-.06v-.17c-.07-.87-.12-1.61-.16-2.21m-1.87-4.31l.85-.23c-.28-.6-.53-1.21-.75-1.81-.04.76-.07,1.29-.11,1.59v.45Zm1.87,3.52c0-.68.02-1.31.05-1.87-.25-.38-.48-.76-.69-1.14-.39.11-.8.21-1.23.28-.04,1.06-.05,2-.05,2.83.75-.08,1.39-.11,1.92-.11m-1.01-24.84c0-.64.03-1.23.11-1.76l-.91.91-.21.23v.11c-.07.19-.12.36-.16.51h1.17Zm-1.28,6.75c.07.45.16,1.17.27,2.16h.11c.28-.72.6-1.42.96-2.1-.29,0-.73-.02-1.33-.06m1.39-3.12h-1.54c0,.57.03,1.21.11,1.93v.4c.71.04,1.23.06,1.55.06-.04-.04-.05-.09-.05-.17,0-.53-.02-1.27-.05-2.21m-.11-2.84c-.53,0-.96.02-1.28.06-.11.61-.16,1.27-.16,1.99h1.49c-.04-.83-.05-1.51-.05-2.04m-1.49,17.58c.04-.45.05-.85.05-1.19-.39-.04-.82-.08-1.28-.11v1.3h1.23Zm-1.23-2.04c.43,0,.83.02,1.23.06-.14-1.02-.21-2.04-.21-3.06h-1.01v3.01Zm1.23,2.84h-1.23c0,.64-.02,1.44-.05,2.38.43-.04.82-.08,1.17-.11v-.62c.04-.3.07-.85.11-1.64m-.11,6.64l-1.23.11v2.33c.43,0,.89-.02,1.39-.06-.07-.75-.12-1.55-.16-2.38m0-3.57l-1.17.11c0,1.29-.02,2.21-.05,2.78l1.17-.11c0-.83.02-1.76.05-2.78m-.11-12.53h-1.28c.14.79.21,1.49.21,2.1v.74h1.12l.11-1.02c-.04-.46-.09-1.06-.16-1.81m2.93,19.11h-.43c-.61.08-1.07.11-1.39.11l.11.79c.04.26-.07.42-.32.45-.25.04-.39-.07-.43-.34-.04-.27-.07-.55-.11-.85-.68.04-1.28.06-1.81.06h-.11c.57.6,1.21,1.17,1.92,1.7.18.15.35.28.53.4.07-.04.14-.06.21-.06.64.08,1.3.13,1.97.17,0-.57-.05-1.38-.16-2.44m-3.25-22.12c-.32-.04-.61-.06-.85-.06h-.53l.05.51.27,1.76h1.33c-.11-.98-.19-1.72-.27-2.21m-.16-3.06c-.53-.04-1.01-.09-1.44-.17-.04.68,0,1.47.11,2.38h.69c.21,0,.46.02.75.06v-.28c-.07-.72-.11-1.38-.11-1.98m.11-2.78h-.37c-.46.49-.89.98-1.28,1.48.14.08.21.19.21.34.39.08.84.13,1.33.17,0-.72.04-1.38.11-1.99m-1.39,18.32h-1.33v2.44h1.28c.04-.98.05-1.79.05-2.44m-.11,6.86c-.43.04-.82.06-1.17.06.04.15.05.31.05.48s-.05.29-.16.37c.28.45.6.89.96,1.31h.32v-2.21Zm.05-3.63h-1.33c0,1.13.02,2.1.05,2.89.39,0,.8-.02,1.23-.06.04-.6.05-1.55.05-2.84m.05-4.03v-1.3c-.39.04-.85.08-1.39.11v1.19h1.39Zm0-2.04v-2.95c-.64,0-1.19-.02-1.65-.06l.21,3.06c.57-.04,1.05-.06,1.44-.06m-.27-6.63h-1.6c.03.83.09,1.78.16,2.83.46.04,1.01.06,1.65.06v-.79c0-.57-.07-1.27-.21-2.1m-.43-3.06c-.5.04-.93.11-1.28.23,0,.64.02,1.32.05,2.04h1.55l-.27-1.64c-.04-.23-.05-.44-.05-.62m-.21-3.29l-.11-.06-1.01,1.53v1.19c.35-.08.76-.11,1.23-.11-.11-.98-.14-1.83-.11-2.55m-1.23,19.06h-1.01c-.11,0-.2-.04-.27-.11.32,1.17.73,2.27,1.23,3.29.03-.08.07-.13.11-.17-.03-.83-.05-1.83-.05-3.01m-.59-15.37c-.11-.04-.2-.09-.27-.17-.18.61-.34,1.29-.48,2.04h.8c-.04-.64-.05-1.27-.05-1.87m.64,12.19c-.71.08-1.33.17-1.86.28.11.83.25,1.63.43,2.38.07-.19.2-.28.37-.28h1.07v-2.38Zm-.53-9.53h-1.01c-.11.64-.21,1.44-.32,2.38h.11c.39.19.85.32,1.39.4-.07-1.02-.12-1.95-.16-2.78m.48,8.73v-1.25c-.82.08-1.48.11-1.97.11,0,.49.04.96.11,1.42.53-.11,1.15-.21,1.87-.28m-.05-2.04l-.21-3.12c-.61-.07-1.14-.21-1.6-.4-.11,1.29-.16,2.5-.16,3.63.46,0,1.12-.04,1.97-.11m14.82,11.23h.69c.11-.04.18-.06.21-.06h.32s.07.02.11.06c.11.08.18.19.21.34,0,.11-.04.21-.11.28.89.11,1.76.11,2.61,0,0-.23.09-.36.27-.4.21-.04.36.04.43.23.39-.11.76-.25,1.12-.4-.07-.08-.11-.17-.11-.29,0-.26.12-.4.37-.4h.85c0-.08-.02-.15-.05-.23-.07-.23,0-.39.24-.48.23-.09.4,0,.51.25v.06l.16-.11s.43-.59,1.28-1.64c.32-.42.6-.72.85-.91.35-.34.66-.51.91-.51.18,0,.35.09.53.28.03.04.05.1.05.17h.05c1.78,1.36,3,2.21,3.68,2.55h.16c.14,0,.25.08.32.23l.11.06c.14.04.27.1.37.17.18.11.29.25.32.4.07.27,0,.55-.21.85-.11.27-.3.55-.59.85-.46.49-1.1,1.08-1.92,1.76-1.35,1.1-2.51,1.95-3.46,2.55-2.7,1.66-6.29,2.25-10.77,1.76-.61-.04-1.21-.11-1.81-.23-.04.11-.12.19-.27.23-.25.04-.39-.08-.43-.34v-.06c-3.27-.64-5.92-1.72-7.94-3.23-3.55-2.68-5.67-6.58-6.34-11.68l-.11.06c-.21.08-.37,0-.45-.26-.09-.25,0-.42.24-.54.07,0,.14-.02.21-.06-.21-2.04-.2-4.27.05-6.69.36-3.52,1-6.07,1.92-7.66v-.51c0-.26.12-.4.37-.4.07,0,.12.02.16.06l.64-.91v-.11c.03-.15.12-.25.27-.29.46-.64.98-1.26,1.55-1.87v-.11c0-.27.12-.4.37-.4h.11l1.44-1.48,1.33-1.3v-.06c.03-.19.14-.3.32-.34.04-.15.14-.23.32-.23.57-.57,1.1-1.02,1.6-1.36v-.17c.07-.23.23-.32.48-.28l.05.06c.67-.45,1.39-.83,2.13-1.13.64-.23,1.32-.42,2.03-.57v-.17c.04-.26.18-.38.43-.34.18.04.28.15.32.34.5-.07.99-.13,1.49-.17v-.4c0-.26.12-.4.37-.4s.37.13.37.4v.34c.75-.04,1.47-.02,2.19.06.03-.19.12-.3.27-.34.25-.04.41.06.48.28v.17c.53.08,1.05.17,1.55.28.07-.19.19-.28.37-.28.25,0,.37.13.37.4v.06c.6.19,1.17.42,1.71.68.04-.23.16-.34.37-.34.25,0,.37.13.37.4v.28c.64.34,1.23.72,1.76,1.13l1.17.96,1.28,1.02c.28.27.66.56,1.12.88.46.32.91.58,1.33.77.14.04.21.15.21.34.14.15.16.32.05.51-.29.42-.93,1.17-1.92,2.27-.46.49-.85.89-1.17,1.19-.21.19-.37.34-.48.45l-.21.11c-.07.08-.14.11-.21.11-.21.04-.46-.02-.75-.17-.18-.11-.41-.28-.69-.51-.67-.49-1.03-.75-1.06-.79-.29-.15-.59-.29-.91-.4-.04,0-.07-.02-.11-.06-3.94-1.78-7.6-1.83-10.98-.17l-.96.57v.06c0,.26-.12.4-.37.4-.07,0-.14-.04-.21-.11-2.91,2-4.66,4.86-5.23,8.56v.23c.11,1.36.12,3.01.05,4.93.75,4.01,2.72,7.15,5.92,9.41l.85.57c.07-.04.14-.06.21-.06.21,0,.34.13.37.4.5.26,1.01.47,1.55.62h.32c.04-.15.14-.23.32-.23.14,0,.25.06.32.17" style="fill:#db0a17;"/><path d="m168.33,7.66c.25-.04.51-.06.8-.06-.04-.34-.05-.55-.05-.62,0-.15.02-.43.05-.85.04-.42.05-.74.05-.96-.32-.04-.66-.08-1.01-.12v.51h.05c.28-.08.46.04.53.34.07.3-.04.49-.32.57l-.21.06.11,1.14Zm-.27-3.52c.39,0,.76.04,1.12.11v-.11c-.04-.15-.07-.26-.11-.34h-.11c-.18-.04-.45-.06-.8-.06h-.11v.4Zm-.48,4.42c-.43.04-.85.06-1.28.06l.11.85h1.01c.57.04,1.01.04,1.33,0h.32c.04-.08.05-.15.05-.23.04-.19.05-.44.05-.74-.25,0-.5.02-.75.06v.06c.04.3-.09.47-.37.51-.29.04-.45-.09-.48-.4v-.17Zm-.11-.91c-.03-.3-.05-.62-.05-.97l-1.33.23.11.79c.43,0,.85-.02,1.28-.06m-.16-1.87l-.05-.74c-.32,0-.71.02-1.17.06h-.16c0,.3.02.6.05.91l1.33-.23Zm-.11-1.65v-.4c-.39.04-.85.06-1.38.06,0,.15.02.28.05.4h.16c.46-.04.85-.06,1.17-.06m-1.86,3.63l-.11-.74-.37.06.05.45v.23h.43Zm.11.91h-.43c0,.08.02.17.05.28.04.23-.05.38-.27.46.25.04.48.06.69.06l-.05-.79Zm-.32-2.55c-.04-.34-.05-.66-.05-.96l-.37.06c.04.27.07.55.11.85v.11l.32-.06Zm-.11-1.87c-.04-.15-.05-.28-.05-.4h-.59l.11.45c.14,0,.32-.02.53-.06m-1.01,2.95c-.32,0-.64.02-.96.06l.05.51h.96v-.11l-.05-.45Zm-.21-1.93h-.96c.07.34.12.7.16,1.08.32-.04.64-.06.96-.06v-.11c-.04-.34-.09-.64-.16-.91m-.16-.91c-.04-.15-.09-.3-.16-.45h-.85l.11.45h.91Zm.53,4.31h-1.01v.11c.04.3-.09.47-.37.51-.28.04-.45-.09-.48-.4v-.23h-1.12c0,.08.02.17.05.28.03.12,0,.23-.11.34l2.4.11h.96c-.14-.04-.23-.15-.27-.34,0-.12-.02-.25-.05-.4m-1.92-.91l-.05-.45h-1.17c0,.19.02.34.05.45h1.17Zm-.11-1.36c-.04-.42-.09-.79-.16-1.13l-1.12-.06c0,.19.02.47.05.85l.05.34h1.17Zm-.32-2.04c0-.15-.02-.28-.05-.4h-1.07c.03.11.05.23.05.34l1.07.06Zm-1.49,4.31h-1.07c.04.19.05.38.05.57h.37l.8.06c-.07-.07-.11-.15-.11-.23-.04-.12-.05-.25-.05-.4m-.11-.91c-.03-.11-.05-.25-.05-.4-.32,0-.66-.02-1.01-.06.03.15.05.3.05.45h1.01Zm-.21-2.55l-1.07-.06c.04.15.09.57.16,1.25.32.04.66.06,1.01.06l-.05-.34c-.04-.38-.05-.68-.05-.91m-.11-.91c0-.11-.02-.23-.05-.34-.32-.04-.64-.06-.96-.06v.34l1.01.06Zm-2.56,5.16c.04.57.07,1.02.11,1.36v-1.19c0-.08.02-.13.05-.17h-.16Zm1.01-1.7c0-.15-.02-.3-.05-.45-.36,0-.73-.02-1.12-.06v.45c.39.04.78.06,1.17.06m-.32-3.52c0-.15-.02-.28-.05-.4h-.75c-.03.11-.05.23-.05.34l.85.06Zm.21,2.16c-.07-.6-.12-1.02-.16-1.25l-.96-.06v1.25c.39.04.76.06,1.12.06m-1.17,21.32s.07.02.11.06v-1.53l-.11.11v1.36Zm-.05,1.25l.11-.06h.11v-.23c-.07,0-.14-.02-.21-.06v.34Zm.11,11.4h.27c.07,0,.16.04.27.11,0-.53-.02-1.06-.05-1.59l-.64.11c.04.49.09.94.16,1.36m-.16-5.5h.21c.11,0,.19.02.27.06l-.05-1.31c-.14.04-.29.06-.43.06v1.19Zm0-2.1c.14,0,.28-.02.43-.06l-.05-.74h-.05c-.11-.04-.21-.06-.32-.06v.85Zm0-1.76c.11,0,.21.02.32.06v-1.14l-.05-.11-.21.06c0,.38-.02.76-.05,1.13m-.05,7.09l.53-.11h.16l-.05-.51h-.64v.62Zm0-1.53h.64l-.05-.91c-.07.08-.16.11-.27.11h-.32v.79Zm-.21-22.97c-.25,0-.51.02-.8.06.03.42.03.81,0,1.19.28-.04.55-.09.8-.17v-1.08Zm-.11,3.18l.05-1.14c-.25.04-.5.1-.75.17,0,.34-.02.68-.05,1.02.25-.04.5-.06.75-.06m-.05,1.59l.05-.68c-.28,0-.55.02-.8.06v.57c.25,0,.5.02.75.06m.16-5.67c-.04-.45-.07-.95-.11-1.48-.25,0-.51.02-.8.06.03.53.07,1.02.11,1.47.28-.04.55-.06.8-.06m-.21,7.37v-.79c-.25-.04-.5-.06-.75-.06l-.05,1.02c.25-.04.51-.09.8-.17m.05-9.76l-.05-.74c-.29.04-.55.06-.8.06l.05.74c.28-.04.55-.06.8-.06m-.16-1.64v-.06h-.75v.11c.25,0,.5-.02.75-.06m0,13.1l.05-.79-.85.23v.62c.25-.04.51-.06.8-.06m-.05-14.57h-.8v.51h.8v-.51Zm0,16.45l.05-.96c-.32,0-.62.02-.91.06l-.05,1.02c.36-.04.66-.08.91-.11m-.05-18.54h-.91c.03.34.07.74.11,1.19h.8v-1.19Zm.05-.91c0-.15.02-.28.05-.4l-1.07-.06v.45h1.01Zm-.05,36.3c-.07-.42-.12-.85-.16-1.31l-.85.11c.03.45.05.89.05,1.3.39-.08.71-.11.96-.11m0-14.86l.05-1.08c-.25.04-.57.08-.96.11l-.11.96c.36-.04.69-.04,1.01,0m-.21,12.65v-.79c-.32,0-.62-.02-.91-.06.04.38.05.7.05.96l.85-.11Zm0-1.7v-.74l-.96.11v.57c.32,0,.64.02.96.06m.16-8.85v-1.19c-.28-.04-.62-.04-1.01,0l-.11,1.19h1.12Zm-.11,7.2v-1.14c-.18,0-.46.04-.85.12l-.27.06c0,.3.02.66.05,1.08l1.07-.11Zm.05-5.79v-.51h-1.12l-.05.62v.11c.35-.07.75-.15,1.17-.23m-.05,1.81c0-.3.02-.6.05-.91-.43.11-.84.19-1.23.23v.68h1.17Zm0,1.93v-1.02h-1.23c.04.38.05.77.05,1.19l.21-.06c.43-.07.75-.11.96-.11m-1.33-24.05v-.28h-.8v.34c.25-.04.51-.06.8-.06m-.11-1.19v-.51l-.43-.06h-.32c.04.19.05.38.05.57h.69Zm.21,2.83l-.05-.74c-.32,0-.62.02-.91.06-.04.27-.05.53-.05.79.39-.04.73-.08,1.01-.11m1.55,30.85c-.28.04-.68.1-1.17.17-.07.19-.2.28-.37.28-.14,0-.27-.06-.37-.17-.28.04-.53.06-.75.06l.05.68c0,.08-.02.15-.05.23h1.07c.92-.04,1.65-.11,2.19-.23.25-.04.44-.1.59-.17h.05v-1.02c-.07.08-.16.11-.27.11h-.05v.06c.07.3-.04.49-.32.57-.29.08-.46-.04-.53-.34l-.05-.23Zm-1.87-35.16c0-.38-.02-.76-.05-1.14h-.75c.07.34.11.7.11,1.08l.43.06h.27Zm.48,6.69c-.04-.46-.07-.96-.11-1.53-.32.08-.69.15-1.12.23-.04.42-.09.91-.16,1.47.21-.04.55-.07,1.01-.11l.37-.06Zm-.59,27.84c0-.42-.02-.85-.05-1.3-.29,0-.57.02-.85.06l.11,1.3c.25,0,.51-.02.8-.06m.59-26.94h-.27l-1.23.17c-.04.57-.07.96-.11,1.19.14,0,.32,0,.53-.03.21-.02.41-.04.59-.06.18-.02.34-.03.48-.03.03-.42.03-.83,0-1.25m-.69,24.73c0-.34-.02-.72-.05-1.13-.29-.04-.59-.08-.91-.11l.11,1.31c.28-.04.57-.06.85-.06m.11-34.37v-.45l-1.07-.11c.07.19.12.38.16.57h.91Zm-.21,32.33v-.4c-.28.08-.59.13-.91.17v.11c.32.04.62.08.91.11m.75-19.56c.03-.34.05-.66.05-.96-.18,0-.36,0-.53.03-.18.02-.38.04-.61.06-.23.02-.4.05-.51.08-.04.3-.05.62-.05.96.5-.04,1.05-.09,1.65-.17m-.8,18.26c-.04-.38-.05-.74-.05-1.08-.32.04-.62.06-.91.06.04.42.05.81.05,1.19.32-.04.62-.09.91-.17m.75-16.79v-.57c-.6.08-1.16.15-1.65.23l-.05.4.91-.06h.8Zm-.85,14.8c0-.42-.02-.83-.05-1.25-.29.04-.57.09-.85.17v1.13c.28,0,.59-.02.91-.06m.69-12.76l.11-1.13h-.75l-.91.06c-.04.38-.05.78-.05,1.19.57-.04,1.1-.07,1.6-.11m-.69,10.6v-.57c-.36.04-.68.06-.96.06v.62l.96-.11Zm.59-9.13l.05-.57c-.5.04-1.03.08-1.6.11v.68c.5-.11,1.01-.19,1.55-.23m-.48,6.86c-.5.04-.87.06-1.12.06v.79c.36,0,.71-.04,1.07-.11v-.34l.05-.4Zm.05-.91l.11-1.25c-.71.04-1.14.06-1.28.06v1.25c.18,0,.57-.02,1.17-.06m.16-2.16l.05-.91c-.53.04-1,.09-1.39.17v.79s.48-.02,1.33-.06m.16-1.87l.05-1.02c-.53.08-1.05.17-1.55.29v.91c.39-.04.89-.09,1.49-.17m-2.35,4.14v-1.25h-.27v1.25h.27Zm0-2.15v-.74c-.11,0-.2-.02-.27-.06v.79h.27Zm0-1.64v-.91l-.11.06h-.16v.91s.09-.06.16-.06h.11Zm.05-1.81v-.91h-.05c-.11,0-.2-.04-.27-.11v1.08l.32-.06Zm.05-1.82v-1.13h-.37v1.25c.07-.08.16-.11.27-.11h.11Zm-.32,15.71s-.05-.08-.05-.12c-.04-.3.07-.49.32-.57h.16c0-.45-.02-.91-.05-1.36h-.05c-.25,0-.39-.13-.43-.4v2.55l.11-.11Zm.32-2.95v-1.08l-.43.06v1.42c.04-.26.18-.4.43-.4m-.05-1.99v-.74h-.37v.79l.37-.06Zm-.05-1.64v-.79h-.27l-.05.79h.32Zm.16-11.17l.05-.34-.53.11v.23h.48Zm.11-1.25c0-.38.02-.74.05-1.08-.11.04-.19.06-.26.06-.14.04-.27-.02-.37-.17v1.25c.18-.04.37-.06.59-.06m.43,24.5c-.32.04-.62.06-.91.06h-.16c0,.3.02.53.05.68.18.04.41.06.69.06.14.04.27.06.37.06v-.11l-.05-.74Zm-.27-3.18l-.11-1.42c-.14,0-.26-.02-.37-.06-.11-.04-.2-.09-.27-.17-.04.76-.05,1.44-.05,2.04v1.93h.96l-.11-1.42h-.32c-.29,0-.43-.15-.43-.45s.14-.45.43-.45h.27Zm-.05-23.31c.04-.26.07-.68.11-1.25-.28.04-.57.06-.85.06v.11c.03.42.05.85.05,1.3.07-.07.16-.13.27-.17.14-.04.28-.06.43-.06m.21-2.15c.03-.53.07-1,.11-1.42-.5.08-.87.15-1.12.23.03.34.05.76.05,1.25.28,0,.6-.02.96-.06m.21-2.33c0-.34.02-.64.05-.91-.46,0-.91.02-1.33.06v1.08l1.28-.23Zm.05-1.82c.04-.15.05-.28.05-.4l-1.44-.06v.51c.46-.04.92-.06,1.38-.06m.05-1.3c0-.23-.02-.45-.05-.68l-1.38-.11v.74l1.44.06Zm-.11-1.59c-.04-.38-.07-.72-.11-1.02-.43,0-.85-.02-1.28-.06v.96l1.39.11Zm-.37-1.93c-.07-.23-.14-.43-.21-.62h-.8v.57l1.01.06Zm-1.81,4.88v-.57h-.91v.85h.11c.07-.19.21-.28.43-.28h.37Zm0-1.48v-.74l-1.01-.11c.03.27.05.55.05.85h.96Zm-.05-1.65v-.91h-1.07c0,.26.02.53.05.79l1.01.11Zm0-1.81v-.62c-.46-.04-.89-.06-1.28-.06l.11.68h1.17Zm-1.76,3.4c0-.3-.02-.59-.05-.85l-1.23-.11v.96h1.28Zm.05.91h-1.33v.62c0,.11-.04.21-.11.28.57-.04,1.05-.04,1.44,0v-.91Zm-.16-2.72c-.03-.23-.05-.45-.05-.68h-1.23c0,.19.02.38.05.57l1.22.11Zm-.21-1.59c0-.26-.04-.51-.11-.74h-1.23c.07.23.12.47.16.74h1.17Zm-1.81,3.35c0-.38-.02-.72-.05-1.02l-.96-.06c.04.34.05.7.05,1.08h.96Zm-.05-1.93c-.04-.19-.05-.38-.05-.57h-.96v.51l1.01.06Zm-.16-1.47c-.07-.23-.12-.47-.16-.74h-.85c0,.26.02.51.05.74h.96Zm-1.6,3.4c0-.42-.02-.79-.05-1.13l-.59-.06c.04.42.09.81.16,1.19h.48Zm-.11-2.04v-.45h-.75l.05.4c.21,0,.44.02.69.06m-.11-1.36c-.04-.23-.05-.45-.05-.68h-.85l.11.68h.8Zm2.02,4.31h-.96v.23c0,.3-.14.45-.43.45s-.43-.15-.43-.45v-.23h-.43c-.04.19-.16.3-.37.34-.29.04-.44-.09-.48-.4h-1.07v1.36c.43-.04,1.53-.11,3.31-.23.39-.04.71-.06.96-.06-.07-.11-.11-.23-.11-.34v-.68Zm-3.2-.96c-.04-.38-.09-.77-.16-1.19-.32-.04-.62-.06-.91-.06,0,.42.02.83.05,1.25h1.01Zm-.27-2.1l-.05-.34h-.85v.28c.28,0,.59.02.91.06m-.21-1.25l-.11-.62c-.25.04-.48.06-.69.06l.05.57h.75Zm-1.33,4.25h-.85v.45c.04.34.05.6.05.79.07.04.18.06.32.06s.3.02.48.06v-1.36Zm-.05-.91l-.11-1.3h-.69v1.3h.8Zm-.21-3.12l-.05-.68c-.21,0-.41.02-.59.06v1.53h.69v-.4c-.07-.08-.11-.17-.11-.28,0-.08.02-.15.05-.23m9.27,6.98v-.23c-.04-.3-.05-.49-.05-.57-.07-.04-.16-.08-.27-.11-.21-.04-.5-.07-.85-.11-.07.04-.14.06-.21.06-.11,0-.2-.02-.27-.06-.68-.04-1.73,0-3.15.11-1.85.11-3,.19-3.46.23-.57,0-1.01-.02-1.33-.06-.46-.08-.78-.19-.96-.34l-.11-.23v-.4c0-.15-.02-.4-.05-.74v-2.72h-.16c-.28,0-.43-.15-.43-.45s.14-.45.43-.45h.11v-1.42l-.37.06c-.28.04-.44-.09-.48-.4-.04-.3.09-.47.37-.51l.43-.06v-.34c-.04-.3.09-.47.37-.51.28-.04.44.1.48.4v.34c.18-.04.35-.06.53-.06v-.06c-.04-.3.09-.47.37-.51s.45.09.48.4v.06c.28,0,.59-.02.91-.06.04-.04.09-.06.16-.06s.14.02.21.06c.39-.04.78-.06,1.17-.06.04-.15.14-.25.32-.28.21-.04.36.06.43.28.28-.04.55-.06.8-.06,0-.19.11-.32.32-.4.25-.07.43.04.53.34v.11h1.28l-.05-.23c-.07-.3.03-.49.32-.57.29-.08.46.04.53.34.03.15.07.32.11.51.46,0,.94.02,1.44.06,0-.3.14-.45.43-.45s.43.15.43.45v.06h.85c.11-.04.21-.02.32.06l1.65.11v-.06c0-.3.14-.45.43-.45s.43.15.43.45v.11l1.17.06c.07-.27.25-.38.53-.34.18.04.28.17.32.4h1.07c.07,0,.12.02.16.06h1.17c.07-.15.18-.25.32-.28.28-.04.46.08.53.34h.96c0-.23.11-.38.32-.45.25-.07.43.04.53.34v.11c.21-.04.6-.06,1.17-.06.11-.07.21-.09.32-.06h1.07c.03-.27.18-.4.43-.4.21,0,.36.11.43.34.53,0,.99-.02,1.38-.06.07-.15.18-.23.32-.23.21,0,.35.08.43.23h.21c.35,0,.64.02.85.06h.27c.18.04.3.11.37.23.18.19.28.49.32.91.07.3.09.68.05,1.14,0,.23-.02.59-.05,1.08-.04.38-.05.62-.05.74,0,.08.02.27.05.57,0,.38.02.68.05.91,0,.38-.02.7-.05.96-.07.38-.2.64-.37.79-.07.08-.14.11-.21.11-.07.04-.12.06-.16.06h-.48c-.32.04-.76.04-1.33,0-.89,0-2.18-.02-3.89-.06-.46-.04-1.14-.07-2.03-.08-.89-.02-1.51-.05-1.87-.08h-.43c-.07.11-.18.17-.32.17s-.25-.06-.32-.17h-.27v5.96c-.04.87-.05,1.38-.05,1.53-.28,3.18-.32,7.26-.11,12.25,0,.72.04,1.66.11,2.84.18.08.27.23.27.45,0,.19-.09.32-.27.4.18,3.78.27,6.67.27,8.68,0,.3-.18.55-.53.74-.18.11-.45.21-.8.28-.61.11-1.39.19-2.35.23-.75,0-1.51-.02-2.29-.06-.32,0-.59-.02-.8-.06-.11,0-.2-.02-.27-.06h-.11l-.21-.11-.11-.23v-.45c-.04-.23-.05-.53-.05-.91v-2.72c0-.53,0-1.15.03-1.87.02-.72.03-1.31.03-1.76v-3.35c0-1.36,0-2.99.03-4.88.02-1.89.03-3.65.03-5.27v-1.59c-.07-.07-.11-.17-.11-.28v-.57c-.14-.07-.21-.21-.21-.4s.07-.32.21-.4c0-1.59-.04-3.82-.11-6.69-.07-.08-.11-.17-.11-.28,0-.15.04-.26.11-.34" style="fill:#db0a17;"/><path d="m179.82,36.35v1.48h.8v-.85c.03-.23.05-.45.05-.68h-.16c-.21,0-.44.02-.69.06m-.05-3.06c.04.72.05,1.4.05,2.04.25-.04.48-.06.69-.06.07,0,.12.02.16.06.04-.64.05-1.32.05-2.04h-.96Zm0-2.33v1.3h.96c0-.42.02-.85.05-1.3h-1.01Zm0-3.29v2.27h1.01v-2.27h-1.01Zm-.05-2.44l.05,1.42h1.01v-1.53l-1.07.11Zm0-3.01v1.98l1.07-.11v-1.93c-.32.04-.67.06-1.07.06m-.05-2.78c.04.57.05,1.15.05,1.76.39,0,.75-.02,1.07-.06v-1.98c-.11.19-.25.28-.43.28h-.69Zm0-2.44v1.42h.69c.18,0,.32.08.43.23v-1.76l-1.12.11Zm0-2.38v1.36c.39-.04.75-.08,1.07-.12v-1.3c-.28,0-.64.02-1.07.06m0-1.02c.43-.04.78-.06,1.07-.06v-1.93l-.11.11c-.32.08-.64.13-.96.17v1.7Zm-.16-4.37l.11,1.64c.25-.04.48-.09.69-.17.18-.04.32,0,.43.11v-1.76c-.36.08-.76.13-1.23.17m-.05-1.02c.46-.04.89-.09,1.28-.17.04-.3.05-.59.05-.85v-.68h-1.44v.23c.03.42.07.91.11,1.47m.75-2.72h.53v-1.48c-.36,0-.82.02-1.39.06v1.42h.85Zm-1.49,11.51h-1.07v1.36h1.07v-1.36Zm0-2.38h-1.07v1.36h1.07v-1.36Zm0,4.76h-1.07c-.04.68-.05,1.32-.05,1.93h.59l.59-.06c0-.64-.02-1.27-.05-1.87m0-7.37h-1.12v1.08c0,.19.02.36.05.51h1.07v-1.59Zm-.16-2.72h-.64l-.38.06.05,1.65h1.07c0-.08-.04-.64-.11-1.7m-.16-2.78h-.91c0,.49.02,1.1.05,1.81l.32-.06h.64c-.04-.57-.07-1.08-.11-1.53v-.23Zm.37,15.77h-.53l-.69.06-.11,1.99v.06c.39-.04.84-.07,1.33-.11v-1.98Zm-.37-18.15c-.35.04-.68.06-.96.06,0,.42.02.85.05,1.31h.91v-1.36Zm.05-1.02v-.06h-1.01v.11c.28,0,.62-.02,1.01-.06m.32,22.17c-.5.04-.96.09-1.39.17l-.11,1.19h1.55l-.05-1.36Zm.05,2.38h-1.6l-.11,2.38c.5-.08,1.07-.11,1.71-.11v-2.27Zm0,3.29c-.64,0-1.23.04-1.76.11,0,.49-.02,1-.05,1.53.64-.11,1.24-.19,1.81-.23v-1.42Zm.05,2.44c-.6.04-1.24.11-1.92.23,0,.76-.02,1.5-.05,2.21l.53-.11c.14,0,.37-.04.69-.11.32-.07.57-.13.75-.17v-2.04Zm0,5.56c-.57.04-1.24.13-2.03.28v2.1c.32.04.66.06,1.01.06.71.08,1.33.1,1.87.06.25,0,.44-.02.59-.06,0-.08.02-.15.05-.23.04-.23.07-.57.11-1.02.04-.45.07-.89.11-1.3h-.75v1.87c0,.34-.16.51-.48.51s-.48-.17-.48-.51v-1.76Zm0-2.44l-1.23.23c-.29.08-.53.11-.75.11,0,.45-.02.91-.05,1.36.78-.15,1.46-.25,2.03-.28v-1.42Zm-2.24-24.5c-.43,0-.8.02-1.12.06,0,.38-.02.89-.05,1.53h1.23c-.04-.15-.05-.32-.05-.51v-1.08Zm.05,2.61h-1.23l-.05,1.53c.39-.08.82-.11,1.28-.11v-1.42Zm-.11-5.22c-.43,0-.82.02-1.17.06.04.72.07,1.25.11,1.59.32-.04.69-.06,1.12-.06l-.05-1.59Zm-.11-6.24v-.11c-.21.04-.57.06-1.07.06.32.04.67.06,1.07.06m.21,13.9c-.46,0-.89.04-1.28.11l-.05,1.42c.43-.08.87-.13,1.33-.17v-1.36Zm0,2.38c-.5.04-.94.11-1.33.23l-.05,1.76c.39-.04.83-.06,1.33-.06,0-.64.02-1.28.05-1.93m-.11,2.95c-.46,0-.89.02-1.28.06l-.05,2.27c.35-.08.76-.15,1.23-.23v-.28l.11-1.81Zm-.21,3.18c-.39.04-.78.09-1.17.17v1.08l1.12-.11.05-1.13Zm.16-19.11h-.21c-.46-.04-.82-.07-1.07-.11h-.05c.03.19.05.4.05.62.04.42.07.91.11,1.47.36-.04.76-.06,1.23-.06-.04-.76-.05-1.4-.05-1.93m-.05-2.27c-.46,0-.89-.02-1.28-.06v1.19h.16c.25.04.59.08,1.01.11h.16c-.04-.42-.05-.83-.05-1.25m-.59,35.22l-.69.11h-.05v.23c.04.42.07.74.11.96,0,.12.02.21.05.29h.05c.14.08.32.13.53.17v-1.76Zm.37-11.68c-.39.04-.75.1-1.07.17-.04.83-.05,1.64-.05,2.44.32-.07.66-.15,1.01-.23l.11-2.38Zm-.32,9.24c-.32,0-.61-.02-.85-.06,0,.6.02,1.13.05,1.59l.75-.17c.03-.45.05-.91.05-1.36m.05-3.18l-.91.12v1.98c.25.04.53.06.85.06.03-.72.05-1.44.05-2.16m.11-2.61c-.36.04-.68.1-.96.17-.04.53-.05,1.04-.05,1.53l.96-.17c0-.49.02-1,.05-1.53m-1.71-27.96c0-.15.02-.26.05-.34-.03-.08-.05-.17-.05-.28,0-.34.16-.51.48-.51h.91c.25,0,.48-.02.69-.06v-.11c0-.34.16-.51.48-.51s.48.17.48.51v.11h1.17c.07-.3.18-.55.32-.74.18-.26.39-.3.64-.11.25.19.28.42.11.68l-.11.23c.21.04.39.06.53.06.32.04.59.1.8.17.28.08.48.19.59.34l.11.23c0,.08,0,.13.03.17.02.04.03.11.03.23.04.08.05.15.05.23v.85c.04.72.05,1.67.05,2.84,0,.83,0,1.81-.03,2.95-.02,1.13-.03,1.72-.03,1.76v1.76c.11.11.16.25.16.4s-.05.27-.16.34c.04,2.83.05,5.08.05,6.75.18.08.27.21.27.4.04.23-.05.4-.27.51v4.65c.18.08.27.23.27.45s-.09.38-.27.45v2.32h.05c.32,0,.48.17.48.51s-.16.51-.48.51h-.05c-.04,2.42-.09,4.44-.16,6.07-.04,1.36-.09,2.44-.16,3.23-.03.45-.07.81-.11,1.08-.07.34-.14.59-.21.74-.07.11-.2.21-.37.28-.07,0-.16.02-.27.06-.18.04-.43.06-.75.06-.57.04-1.21.02-1.92-.06-.78-.04-1.46-.11-2.02-.23-.29-.07-.53-.15-.75-.23-.29-.11-.48-.26-.59-.45-.07-.11-.12-.34-.16-.68-.04-.27-.05-.6-.05-1.02-.07-.76-.11-1.81-.11-3.18v-.4c0-2.08.04-4.84.11-8.28-.14-.08-.23-.19-.27-.34-.04-.26.05-.45.27-.57.04-2.08.11-5.42.21-10.04-.03-.04-.05-.07-.05-.11-.04-.11-.02-.23.05-.34l.05-2.15c-.07-.11-.11-.25-.11-.4,0-.11.04-.21.11-.28.04-.68.05-1.21.05-1.59-.14-.08-.23-.19-.26-.34-.04-.26.05-.45.26-.57,0-.34-.04-1-.11-1.98l-.16-2.21c-.04-.49-.05-.91-.05-1.25v-1.3c0-.27.02-.49.05-.68-.04-.11-.05-.22-.03-.31.02-.09.06-.18.13-.25" style="fill:#db0a17;"/><path d="m219.3,7.66c.07.04.11.13.11.28l.16-.17-.27-.11Zm-1.71-.17c.68.04,1.15.06,1.44.06h.16c-.5-.26-1.05-.62-1.65-1.08.04.3.05.64.05,1.02m.91,27.73c-.32.04-.66.06-1.01.06v.68c.5-.08.94-.15,1.33-.23-.21-.04-.32-.17-.32-.4v-.11Zm.59.45c.32-.07.61-.17.85-.28.21-.08.36,0,.45.25.09.25,0,.42-.24.54-.64.23-1.53.42-2.67.57v1.36h.11c.14.04.25.13.32.28l.43-.34c.78-.68,1.39-1.25,1.81-1.7.25-.27.41-.49.48-.68.07-.07.11-.13.11-.17-.07-.04-.16-.09-.27-.17-.07-.04-.18-.08-.32-.11l-.11-.06h-.8v.17c0,.15-.05.27-.16.34m-.37-1.25l-1.39-.96c.07.34.11.68.11,1.02.46-.04.89-.06,1.28-.06m-1.97,3.57v-1.13c-.29.04-.61.08-.96.11,0,.11,0,.27.03.48.02.21.03.37.03.48.32,0,.62.02.91.06m0-1.93v-.74l-.96.12v.74c.35-.04.67-.08.96-.11m-.05-1.53c0-.38-.04-.76-.11-1.13-.04-.19.04-.32.21-.4l-.69-.51c-.07-.04-.12-.09-.16-.17-.11.68-.16,1.46-.16,2.32l.91-.11Zm.16-25.75v-.57l-.32-.06-.96-.06v.74c.46,0,.89-.02,1.28-.06m0,.79c-.39.04-.82.06-1.28.06v1.13c0,.08-.02.13-.05.17.18.11.32.21.43.28.14.08.23.11.27.11.03,0,.07-.02.11-.06.11-.11.25-.25.43-.4.32-.3.71-.7,1.17-1.19l1.17-1.36h-.05c-.29,0-.76-.02-1.44-.06v.4h.05c.25-.04.39.08.43.34.04.27-.07.42-.32.45h-.16c0,.26-.12.4-.37.4-.21,0-.34-.1-.37-.29m0-2.15c0-.42-.02-.79-.05-1.13h-1.28v1.02l1.07.06.27.06Zm-1.33-1.93h.85l-.85-.68v.68Zm-.69,4.14h-1.28l.64.34c.14.04.36.17.64.4v-.74Zm.21,25.07c0-.72.03-1.36.11-1.93-.14.15-.29.32-.43.51-.11.11-.25.28-.43.51l-.48.62c-.14.19-.25.32-.32.4.43,0,.94-.04,1.55-.11m-.21-25.86v-.79c-.5-.04-.96-.08-1.39-.11v.91h1.39Zm-.05-1.59v-.96c-.39,0-.84.02-1.33.06v.79l1.33.11Zm0-1.76v-1.3c-.43-.34-.87-.64-1.33-.91v2.27c.5-.04.94-.06,1.33-.06m-1.6,35.33v.57c.39-.15.75-.3,1.07-.45-.32-.04-.68-.08-1.07-.11m0-.79l1.28.11c.25.04.36.19.32.45v.06l.21-.11c.5-.34,1.24-.89,2.24-1.64h-.11c-.11,0-.2-.04-.27-.11-.32-.04-.66-.06-1.01-.06v.85c0,.27-.12.4-.37.4s-.37-.13-.37-.4v-.85c-.57,0-1.21.04-1.92.11v1.19Zm0-1.98c.67-.08,1.32-.11,1.92-.11,0-.04,0-.17-.03-.4-.02-.23-.03-.4-.03-.51-.36,0-.73.02-1.12.06-.25,0-.52.02-.8.06.04.27.05.57.05.91m-.11-1.7c.28-.04.55-.06.8-.06.39-.04.78-.06,1.17-.06v-.74c-.82.08-1.51.13-2.08.17l.11.68Zm-.37-28.41c-.5-.04-.94-.06-1.33-.06v.91c.43.11.87.27,1.33.46v-1.31Zm0-.79v-.79h-1.44c.04.27.05.51.05.74.43,0,.89.02,1.39.06m-.37,29.21l-.11-.57c-.36.23-.71.44-1.07.62.39-.04.78-.06,1.17-.06m.37-33.06h-1.65c.04.42.07,1.04.11,1.87l.05.4h1.49v-2.27Zm-1.71-.79h.8c-.25-.11-.52-.21-.8-.28v.28Zm-.96,37.6c.85-.08,1.65-.1,2.4-.06v-1.08c-.36.04-1.17.15-2.45.34v.11c0,.3.02.53.05.68m-.05-1.59l2.45-.4c0-.34-.02-.66-.05-.96-.75.04-1.57.06-2.45.06v.28c0,.26.02.6.05,1.02m.32-35.22c-.43,0-.87.02-1.33.06.04.57.04,1.32,0,2.27h1.49v-.4c-.07-.83-.12-1.47-.16-1.93m.27,3.86c0-.23-.02-.47-.05-.74h-1.6v.91c.25-.07.53-.11.85-.11.25-.04.52-.06.8-.06m-.32-4.65v-.51c-.46-.11-.93-.21-1.39-.28.03.26.05.55.05.85.5-.04.94-.06,1.33-.06m.37,5.44c-.29,0-.53.02-.75.06-.43.04-.78.09-1.07.17.6.08,1.21.21,1.81.4v-.62Zm-2.77,33.18v1.25c1.71-.08,3.23-.32,4.58-.74v-.79c-.68-.04-1.42-.02-2.24.06v.06c-.04.11-.05.21-.05.28-.04.04-.05.08-.05.11-.11.15-.23.23-.37.23s-.25-.08-.32-.23c-.04-.04-.05-.08-.05-.14s-.02-.14-.05-.25c-.43.04-.91.09-1.44.17m0-.79c.53-.08,1.01-.13,1.44-.17-.04-.19-.05-.42-.05-.68v-.06c-.53.08-.99.13-1.39.17v.74Zm-.05-1.53c.39-.04.87-.09,1.44-.17-.04-.46-.05-.81-.05-1.08v-.34h-1.6c.11.49.18,1.02.21,1.59m.37-31.25v-1.13c-.78.04-1.53.04-2.24,0,.04.57.09,1.12.16,1.64.46-.04.92-.04,1.39,0,0-.04.02-.08.05-.11.14-.15.35-.28.64-.4m.05-4.2c-.5,0-1.3.02-2.4.06,0,.76.02,1.49.05,2.21.71.04,1.49.04,2.35,0,.04-.98.04-1.74,0-2.27m-.05-.79c0-.34-.04-.66-.11-.96-.75-.07-1.51-.09-2.29-.06v1.08c1.1-.04,1.9-.06,2.4-.06m-2.51,38.79v.62c0,.15-.05.26-.16.34.53.04,1.07.06,1.6.06v-1.19l-1.44.17Zm-.05-.79l1.49-.17v-.74c-.53.08-1.07.13-1.6.17.04.27.07.51.11.74m-.21-1.53c.53-.04,1.08-.09,1.65-.17-.04-.64-.12-1.25-.27-1.81-.5-.04-.99-.12-1.49-.23l-.16.06c.04.45.11,1.1.21,1.93l.05.23Zm-.21-32.61c-.61,0-1.19-.02-1.76-.06v1.7c.25.04.48.08.69.11.11.04.19.1.27.17.32-.07.64-.13.96-.17-.07-.57-.12-1.15-.16-1.76m-.11-3.01h-1.71v2.15c.57.04,1.15.06,1.76.06-.04-.72-.05-1.46-.05-2.21m-.05-.79v-1.02c-.53.04-1.07.1-1.6.17,0,.3-.02.59-.05.85h1.65Zm-.11,38.85c-.85.08-1.6.15-2.24.23,0,.08.02.17.05.28.6.11,1.23.19,1.86.23.14.04.29.06.43.06-.07-.07-.11-.17-.11-.28v-.51Zm-.05-.79c-.04-.23-.07-.49-.11-.79-.75.04-1.46.08-2.13.11v.91c.64-.08,1.39-.15,2.24-.23m-.48-3.74s-.05-.07-.05-.11c-.04-.08-.05-.17-.05-.28l-.32-.06c-.68.04-1.14.06-1.39.06v2.67l2.08-.11v-.11c-.14-.91-.23-1.59-.27-2.04m-2.45,4.77c-.11,0-.21.02-.32.06l.32.06v-.11Zm-1.01-33.06v1.08l.64-.34c.43-.23.85-.42,1.28-.57-.61-.08-1.25-.13-1.92-.17m1.76-2.27c-.64-.04-1.24-.08-1.81-.11,0,.49.02,1.02.05,1.59l1.76.11v-1.59Zm-.05-2.89h-2.03c.07.61.14,1.27.21,1.99.57.04,1.17.08,1.81.11v-2.1Zm0-.79c.03-.26.05-.51.05-.74-.57.15-1.14.34-1.71.57-.14.04-.29.09-.43.17h2.08Zm-.75,38.23v-.91c-.5.04-.96.06-1.39.06v.91h.05c.43,0,.87-.02,1.33-.06m-.05-4.31h-1.55c.11.79.16,1.68.16,2.67.46,0,.92-.02,1.39-.06v-2.61Zm0-.79v-.28c-.43-.23-.82-.47-1.17-.74l-.69-.51c.11.45.19.96.27,1.53h1.6Zm-1.65-27.17h-1.55c.07.76.16,1.44.27,2.04h.53c.25-.19.5-.36.75-.51v-1.53Zm-.32-5.16h-.75l-.37.23c-.07.45-.12.96-.16,1.53.5.04.99.09,1.49.17-.07-.68-.14-1.32-.21-1.93m.27,2.72c-.53-.08-1.05-.13-1.55-.17-.04.57-.04,1.17,0,1.81h1.6c-.04-.6-.05-1.15-.05-1.65m-.37,33.86c-.61,0-1.17-.02-1.71-.06v.62c.53.23,1.1.44,1.71.62v-1.19Zm-.21-3.4c-.46,0-1.03.02-1.71.06.11,1.1.16,1.93.16,2.5.57.04,1.14.06,1.71.06,0-.98-.05-1.85-.16-2.61m-.48-2.95c-.43-.07-.91-.11-1.44-.11.04.57.09,1.29.16,2.15v.17c.64-.04,1.21-.06,1.71-.06-.11-.79-.25-1.51-.43-2.16m-1.44-.91c.28,0,.57.02.85.06-.32-.3-.6-.62-.85-.96v.91Zm.21-27.68c.04-.26.05-.51.05-.74l-.69.62.64.11Zm-1.12,6.47c.03.72.05,1.32.05,1.81.5-.68,1.05-1.32,1.65-1.93-.18.04-.47.06-.88.06s-.69.02-.83.06m1.17-2.95c-.32.04-.75.06-1.28.06,0,.53.02,1.23.05,2.1.14-.04.39-.06.75-.06h.75c-.11-.64-.2-1.34-.27-2.1m-.05-2.72c-.36-.04-.71-.09-1.07-.17-.07.64-.12,1.36-.16,2.16.5,0,.91-.02,1.23-.06-.04-.68-.04-1.32,0-1.93m-.53,34.08c-.29-.04-.55-.06-.8-.06.25.11.51.25.8.4v-.34Zm-.43-6.41c-.5,0-1.12.04-1.87.11.04.83.09,1.63.16,2.38.32,0,.8-.02,1.44-.06l.43-.06v-.17c-.07-.87-.12-1.61-.16-2.21m-1.87-4.31l.85-.23c-.28-.6-.53-1.21-.75-1.81-.04.76-.07,1.29-.11,1.59v.45Zm1.87,3.52c0-.68.02-1.31.05-1.87-.25-.38-.48-.76-.69-1.14-.39.11-.8.21-1.23.28-.04,1.06-.05,2-.05,2.83.75-.08,1.39-.11,1.92-.11m-1.01-24.84c0-.64.03-1.23.11-1.76l-.91.91-.21.23v.11c-.07.19-.12.36-.16.51h1.17Zm-1.28,6.75c.07.45.16,1.17.27,2.16h.11c.28-.72.6-1.42.96-2.1-.29,0-.73-.02-1.33-.06m1.39-3.12h-1.54c0,.57.03,1.21.11,1.93v.4c.71.04,1.23.06,1.55.06-.04-.04-.05-.09-.05-.17,0-.53-.02-1.27-.05-2.21m-.11-2.84c-.53,0-.96.02-1.28.06-.11.61-.16,1.27-.16,1.99h1.49c-.04-.83-.05-1.51-.05-2.04m-1.49,17.58c.04-.45.05-.85.05-1.19-.39-.04-.82-.08-1.28-.11v1.3h1.23Zm-1.23-2.04c.43,0,.84.02,1.23.06-.14-1.02-.21-2.04-.21-3.06h-1.01v3.01Zm1.23,2.84h-1.23c0,.64-.02,1.44-.05,2.38.43-.04.82-.08,1.17-.11v-.62c.04-.3.07-.85.11-1.64m-.11,6.64l-1.23.11v2.33c.43,0,.89-.02,1.39-.06-.07-.75-.12-1.55-.16-2.38m0-3.57l-1.17.11c0,1.29-.02,2.21-.05,2.78l1.17-.11c0-.83.02-1.76.05-2.78m-.11-12.53h-1.28c.14.79.21,1.49.21,2.1v.74h1.12l.11-1.02c-.04-.46-.09-1.06-.16-1.81m2.93,19.11h-.43c-.61.08-1.07.11-1.39.11l.11.79c.04.26-.07.42-.32.45-.25.04-.39-.07-.43-.34-.04-.27-.07-.55-.11-.85-.68.04-1.28.06-1.81.06h-.11c.57.6,1.21,1.17,1.92,1.7.18.15.35.28.53.4.07-.04.14-.06.21-.06.64.08,1.3.13,1.97.17,0-.57-.05-1.38-.16-2.44m-3.25-22.12c-.32-.04-.6-.06-.85-.06h-.53l.05.51.27,1.76h1.33c-.11-.98-.19-1.72-.27-2.21m-.16-3.06c-.53-.04-1.01-.09-1.44-.17-.04.68,0,1.47.11,2.38h.69c.21,0,.46.02.75.06v-.28c-.07-.72-.11-1.38-.11-1.98m.11-2.78h-.37c-.46.49-.89.98-1.28,1.48.14.08.21.19.21.34.39.08.84.13,1.33.17,0-.72.03-1.38.11-1.99m-1.39,18.32h-1.33v2.44h1.28c.04-.98.05-1.79.05-2.44m-.11,6.86c-.43.04-.82.06-1.17.06.04.15.05.31.05.48s-.05.29-.16.37c.29.45.6.89.96,1.31h.32v-2.21Zm.05-3.63h-1.33c0,1.13.02,2.1.05,2.89.39,0,.8-.02,1.23-.06.04-.6.05-1.55.05-2.84m.05-4.03v-1.3c-.39.04-.85.08-1.39.11v1.19h1.39Zm0-2.04v-2.95c-.64,0-1.19-.02-1.65-.06l.21,3.06c.57-.04,1.05-.06,1.44-.06m-.27-6.63h-1.6c.03.83.09,1.78.16,2.83.46.04,1.01.06,1.65.06v-.79c0-.57-.07-1.27-.21-2.1m-.43-3.06c-.5.04-.93.11-1.28.23,0,.64.02,1.32.05,2.04h1.55l-.27-1.64c-.04-.23-.05-.44-.05-.62m-.21-3.29l-.11-.06-1.01,1.53v1.19c.35-.08.76-.11,1.23-.11-.11-.98-.14-1.83-.11-2.55m-1.23,19.06h-1.01c-.11,0-.2-.04-.27-.11.32,1.17.73,2.27,1.23,3.29.04-.08.07-.13.11-.17-.03-.83-.05-1.83-.05-3.01m-.59-15.37c-.11-.04-.2-.09-.27-.17-.18.61-.34,1.29-.48,2.04h.8c-.04-.64-.05-1.27-.05-1.87m.64,12.19c-.71.08-1.33.17-1.86.28.11.83.25,1.63.43,2.38.07-.19.19-.28.37-.28h1.07v-2.38Zm-.53-9.53h-1.01c-.11.64-.21,1.44-.32,2.38h.11c.39.19.85.32,1.39.4-.07-1.02-.12-1.95-.16-2.78m.48,8.73v-1.25c-.82.08-1.48.11-1.97.11,0,.49.04.96.11,1.42.53-.11,1.15-.21,1.87-.28m-.05-2.04l-.21-3.12c-.61-.07-1.14-.21-1.6-.4-.11,1.29-.16,2.5-.16,3.63.46,0,1.12-.04,1.97-.11m14.82,11.23h.69c.11-.04.18-.06.21-.06h.32s.07.02.11.06c.11.08.18.19.21.34,0,.11-.04.21-.11.28.89.11,1.76.11,2.61,0,0-.23.09-.36.27-.4.21-.04.36.04.43.23.39-.11.76-.25,1.12-.4-.07-.08-.11-.17-.11-.29,0-.26.12-.4.37-.4h.85c0-.08-.02-.15-.05-.23-.07-.23,0-.39.24-.48.23-.09.4,0,.51.25v.06l.16-.11s.43-.59,1.28-1.64c.32-.42.6-.72.85-.91.35-.34.66-.51.91-.51.18,0,.35.09.53.28.04.04.05.1.05.17h.05c1.78,1.36,3,2.21,3.68,2.55h.16c.14,0,.25.08.32.23l.11.06c.14.04.27.1.37.17.18.11.29.25.32.4.07.27,0,.55-.21.85-.11.27-.3.55-.59.85-.46.49-1.1,1.08-1.92,1.76-1.35,1.1-2.51,1.95-3.46,2.55-2.7,1.66-6.29,2.25-10.77,1.76-.61-.04-1.21-.11-1.81-.23-.04.11-.12.19-.27.23-.25.04-.39-.08-.43-.34v-.06c-3.27-.64-5.92-1.72-7.94-3.23-3.55-2.68-5.67-6.58-6.34-11.68l-.11.06c-.21.08-.37,0-.45-.26-.09-.25,0-.42.24-.54.07,0,.14-.02.21-.06-.21-2.04-.2-4.27.05-6.69.35-3.52,1-6.07,1.92-7.66v-.51c0-.26.12-.4.37-.4.07,0,.12.02.16.06l.64-.91v-.11c.03-.15.12-.25.27-.29.46-.64.98-1.26,1.55-1.87v-.11c0-.27.12-.4.37-.4h.11l1.44-1.48,1.33-1.3v-.06c.03-.19.14-.3.32-.34.04-.15.14-.23.32-.23.57-.57,1.1-1.02,1.6-1.36v-.17c.07-.23.23-.32.48-.28l.05.06c.67-.45,1.39-.83,2.13-1.13.64-.23,1.32-.42,2.03-.57v-.17c.04-.26.18-.38.43-.34.18.04.28.15.32.34.5-.07,1-.13,1.49-.17v-.4c0-.26.12-.4.37-.4s.37.13.37.4v.34c.75-.04,1.48-.02,2.19.06.04-.19.12-.3.27-.34.25-.04.41.06.48.28v.17c.53.08,1.05.17,1.55.28.07-.19.19-.28.37-.28.25,0,.37.13.37.4v.06c.6.19,1.17.42,1.71.68.04-.23.16-.34.37-.34.25,0,.37.13.37.4v.28c.64.34,1.23.72,1.76,1.13l1.17.96,1.28,1.02c.28.27.66.56,1.12.88.46.32.91.58,1.33.77.14.04.21.15.21.34.14.15.16.32.05.51-.29.42-.93,1.17-1.92,2.27-.46.49-.85.89-1.17,1.19-.21.19-.37.34-.48.45l-.21.11c-.07.08-.14.11-.21.11-.21.04-.46-.02-.75-.17-.18-.11-.41-.28-.69-.51-.68-.49-1.03-.75-1.07-.79-.29-.15-.59-.29-.91-.4-.04,0-.07-.02-.11-.06-3.94-1.78-7.61-1.83-10.98-.17l-.96.57v.06c0,.26-.12.4-.37.4-.07,0-.14-.04-.21-.11-2.91,2-4.66,4.86-5.22,8.56v.23c.11,1.36.12,3.01.05,4.93.75,4.01,2.72,7.15,5.92,9.41l.85.57c.07-.04.14-.06.21-.06.21,0,.34.13.37.4.5.26,1.01.47,1.55.62h.32c.04-.15.14-.23.32-.23.14,0,.25.06.32.17" style="fill:#db0a17;"/><path d="m251.52,39.81c.14.53.27,1.04.37,1.53h.05c.04-.15.04-.36,0-.62,0-.26-.02-.57-.05-.91h-.37Zm-.16-1.02h.32c-.14-.53-.29-1-.43-1.42-.11-.26-.2-.47-.27-.62.11.72.23,1.4.37,2.04m-.91-33.35v.51c.03.76.07,1.3.11,1.65.25-.42.44-.89.59-1.42.07-.3.11-.59.11-.85-.29.04-.55.08-.8.11m-.11-1.02c.25-.04.48-.08.69-.11h.16c-.04-.26-.12-.47-.27-.62-.14-.19-.37-.3-.69-.34.04.34.07.7.11,1.08m-.69,16.79c.04.64.05,1.23.05,1.76.18-.15.32-.32.43-.51.43-.76.6-1.38.53-1.87v.11c-.07.26-.21.43-.43.51-.11.04-.23.04-.37,0h-.21Zm.91,18.66h-1.07c.07.3.12.55.16.74.14.11.21.27.21.45v.28s-.02.08-.05.11h.37c.28,0,.53-.02.75-.06-.14-.49-.27-1-.37-1.53m-.8-20.08h.11l.21.06c.14.08.26.14.35.2.09.06.15.14.19.25-.11-.26-.3-.49-.59-.68-.14-.11-.32-.21-.53-.28l.05.4c.07,0,.14.02.21.06m.21,16.96l-.96.23.32,1.93c.36-.04.69-.06,1.01-.06-.11-.68-.23-1.38-.37-2.1m-.48-31.13c-.32.04-.66.08-1.01.11.04.6.05,1.44.05,2.5,0,.08-.02.15-.05.23.21,0,.36.02.43.06.36.04.62.02.8-.06-.07-.53-.14-1.34-.21-2.44v-.4Zm-.05-1.02c-.07-.49-.14-.95-.21-1.36-.25-.04-.44-.06-.59-.06-.21-.04-.41-.06-.59-.06.14.45.25,1,.32,1.65.35-.08.71-.13,1.07-.17m-.91,35.33h-.69c.07.57.16,1.06.27,1.48v.11h.8s-.05-.08-.05-.11c-.04-.08-.05-.15-.05-.23-.07-.26-.16-.68-.27-1.25m-.91-18.43c.11.91.16,1.65.16,2.21v.06c.39-.08.73-.17,1.01-.28-.04-.07-.05-.17-.05-.28,0-.57-.02-1.17-.05-1.82l-1.07.11Zm.43,15.71c-.21.08-.43.13-.64.17.07.3.14.66.21,1.08l.05.45h.64l-.27-1.7Zm-.53-16.73l1.07-.11c0-.38-.04-.81-.11-1.3-.32-.08-.69-.13-1.12-.17.04.42.09.95.16,1.59m-.27,15.88l.48-.11h-.53l.05.11Zm.27-30.51c-.57.08-1.17.13-1.81.17.04.94.09,1.68.16,2.21v.17c.82-.04,1.35-.06,1.6-.06h.11v-.11c0-1.02-.02-1.81-.05-2.38m-.64,34.08h-1.49c.07.64.16,1.19.27,1.65h1.49l-.27-1.65Zm.53-35.1c-.07-.72-.21-1.32-.43-1.81h-1.6c.11.57.18,1.23.21,1.98.64-.04,1.24-.09,1.81-.17m-2.13,16.84c.03.68.09,1.33.16,1.93,0,.11-.03.23-.11.34.57,0,1.07-.02,1.49-.06v-.17c0-.53-.05-1.23-.16-2.1-.43.04-.89.06-1.39.06m1.23,15.88c-.43.04-.85.1-1.28.17.04.23.07.59.11,1.08v.11h1.39l-.05-.28c-.07-.42-.12-.77-.16-1.08m-1.28-16.9c.46,0,.91-.02,1.33-.06-.07-.72-.12-1.3-.16-1.76h-1.23c0,.64.02,1.25.05,1.82m1.07,15.88l-.05-.23h-1.17c.04.11.05.25.05.4.39-.04.78-.09,1.17-.17m-2.61-14.8c.07.76.11,1.42.11,1.98,0,.08-.02.15-.05.23h.85c-.07-.07-.11-.15-.11-.23-.07-.64-.12-1.3-.16-1.98h-.64Zm1.07-15.65c-.36.04-.71.06-1.07.06.07.76.12,1.44.16,2.04v.23h1.07v-.06c-.07-.53-.12-1.29-.16-2.27m-.32,33.86c-.29,0-.59-.02-.91-.06.07.68.14,1.27.21,1.76l.96-.06c-.11-.45-.19-1-.27-1.65m-.85-19.22h.69c-.04-.57-.05-1.19-.05-1.87-.25.04-.52.06-.8.06,0,.42.05,1.02.16,1.82m1.12-15.65c-.07-.79-.16-1.46-.27-1.98-.32,0-.68.02-1.07.06l.21,1.98c.39,0,.76-.02,1.12-.06m-.43,32.78c-.32.04-.64.06-.96.06l.05.85.05.11c.35.04.68.06.96.06-.04-.49-.07-.85-.11-1.08m-.11-1.02c0-.15-.02-.3-.05-.45h-1.01c0,.19.02.38.05.57.36-.04.69-.07,1.01-.11m-1.97-15.08c.07.6.11,1.17.11,1.7,0,.19-.09.34-.27.45h.37c.14,0,.3.02.48.06-.04-.07-.05-.15-.05-.23,0-.53-.03-1.19-.11-1.98h-.53Zm-.16-1.02h.59c-.11-.72-.16-1.29-.16-1.7-.25,0-.52.02-.8.06.14.53.27,1.08.37,1.65m.69-14.52c-.35,0-.75.02-1.17.06.14.83.21,1.55.21,2.15h1.17s-.05-.07-.05-.11c-.04-.64-.09-1.34-.16-2.1m-.11-1.02l-.21-1.98c-.29.04-.73.08-1.33.11.04.3.14.95.32,1.93.46,0,.87-.02,1.23-.06m-.05,34.71l-1.65-.06c.07.79.11,1.42.11,1.87.61-.04,1.19-.06,1.76-.06-.07-.45-.14-1.04-.21-1.76m-.21-1.87c-.5,0-1.01.02-1.55.06.04.23.05.47.05.74l1.6.06-.11-.85Zm-.16-1.02c-.04-.23-.07-.44-.11-.62h-1.23c-.04.23-.05.45-.05.68.46,0,.92-.02,1.39-.06m-.64-13.16c-.14-.08-.21-.21-.21-.4,0-.53-.04-1.1-.11-1.7-.29.04-.59.06-.91.06.07.57.14,1.02.21,1.36.07.34-.05.55-.37.62h-.05c.39,0,.87.02,1.44.06m-1.33-3.01c.28-.04.57-.06.85-.06-.11-.57-.23-1.1-.37-1.59l-.53.06h-.21l.27,1.59Zm-.27,19h-.75c.04.64.05,1.25.05,1.81v.06h.8c0-.45-.04-1.08-.11-1.87m.64-33.52h-1.39c.04.34.07.66.11.96.18.08.3.19.37.34.07.3-.02.51-.27.62v.28c.42-.04.89-.06,1.39-.06,0-.6-.07-1.32-.21-2.16m-1.49,15.6l.27,1.42c.04.15,0,.3-.11.45h.64c-.18-.04-.29-.17-.32-.4-.07-.42-.14-.91-.21-1.48h-.27Zm.75,16.16c-.25.04-.51.06-.8.06.03.23.05.45.05.68h.8c0-.26-.02-.51-.05-.74m0-1.02c0-.23.02-.46.05-.68-.36-.04-.69-.06-1.01-.06l.05.79c.32,0,.62-.02.91-.06m-.91-16.16h.32c-.07-.6-.14-1.11-.21-1.53l-.32.06.21,1.47Zm1.49-15.59c-.14-.87-.25-1.49-.32-1.87-.53.04-1.01.08-1.44.11.04.04.1.28.19.74.09.45.15.79.19,1.02h1.39Zm-1.92,12.99v.06l.27-.06h-.27Zm-.05-9.75l-.16.06h.16v-.06Zm-.21,31.3h-1.07c.07.6.12,1.15.16,1.64,0,.08-.02.15-.05.23h1.01v-.06c0-.57-.02-1.17-.05-1.81m-.16-1.7c-.36,0-.73-.02-1.12-.06l.11.74h1.07c0-.23-.02-.45-.05-.68m-.53-19.74l-.64.06c.07.04.3.04.69,0l-.05-.06Zm-.8,3.8c.07.61.11,1.13.11,1.59h.48c.32-.04.71-.06,1.17-.06-.04-.04-.07-.09-.11-.17l-.27-1.53-1.39.17Zm1.23,14.92l-.11-.91h-.11c-.39-.08-.75-.15-1.06-.23l.16,1.08c.39.04.76.06,1.12.06m-1.39-15.94l1.39-.17-.21-1.48c-.53.08-.89.09-1.06.06-.14-.04-.25-.06-.32-.06l.16,1.36.05.28Zm1.65-14.8c-.68.04-1.3.06-1.87.06.04.94.05,1.44.05,1.47.68-.08,1.33-.21,1.97-.4-.04-.34-.09-.72-.16-1.14m-.16-1.02l-.37-1.76c-.43,0-.87.02-1.33.06v1.76c.5,0,1.07-.02,1.71-.06m-2.08,32.72c-.57,0-1.23-.02-1.97-.06v.79h2.08l-.11-.74Zm-.11-1.02c-.07-.53-.14-.98-.21-1.36-.68-.3-1.17-.68-1.49-1.14-.04-.07-.07-.13-.11-.17h-.11c.03.94.05,1.81.05,2.61.71.04,1.33.06,1.87.06m-1.92-25.63v.68l.11-.68h-.11Zm1.49-2.33c-.46.04-.96.06-1.49.06v1.25c.18,0,.36.02.53.06.25-.49.6-.89,1.07-1.19-.03-.08-.07-.13-.11-.17m-1.55,15.42v.4l.32-.34c-.11-.04-.21-.06-.32-.06m1.87-2.21h-.21c-.53.04-1.1.08-1.71.12v1.08c.5.04.96.1,1.39.17.14.04.25.13.32.28.11,0,.21-.02.32-.06v-.06c0-.45-.04-.96-.11-1.53m-.16-1.02v-.28c-.14-.76-.23-1.34-.27-1.76-.39-.11-.71-.27-.96-.45l-.53.06v2.55c.57-.04,1.1-.08,1.6-.11h.16Zm-.21-14.8c-.18.04-.34.06-.48.06-.32.04-.68.06-1.07.06.04.49.05,1,.05,1.53.53,0,1.05-.02,1.55-.06,0-.15-.02-.68-.05-1.59m0-1.02v-1.81c-.57,0-1.19-.02-1.87-.06.11.64.18,1.3.21,1.98.39,0,.75-.02,1.07-.06.21,0,.41-.02.59-.06m-2.45,8.28c-.28.08-.6.13-.96.17v1.47c.35-.08.67-.13.96-.17v-1.48Zm-.05,2.5c-.25.08-.55.15-.91.23-.04.49-.05,1.04-.05,1.64l.96-.17v-1.7Zm.11-4.82c-.32.04-.68.06-1.07.06.04.45.05.93.05,1.42.35-.08.67-.13.96-.17.04-.49.05-.92.05-1.3m0-2.21h-1.17c.04.42.05.85.05,1.3.43-.04.8-.08,1.12-.11v-1.19Zm.05,28.81l-1.28-.06v.96c.43-.04.85-.06,1.28-.06v-.85Zm-.16-19.05l-1.01.17c0,.6-.04,1.34-.11,2.21.43,0,.8.02,1.12.06v-2.44Zm.11,15.65c-.43.08-.87.13-1.33.17.04,1.02.07,1.74.11,2.15l1.28.06c0-.76-.02-1.55-.05-2.38m-.11-12.19c-.32-.04-.71-.06-1.17-.06l-.05,1.25c.43-.08.84-.11,1.23-.11v-1.08Zm3.3,17.41h-2.18v.85c0,.34-.16.51-.48.51s-.48-.17-.48-.51v-.79c-.43,0-.84.02-1.23.06v1.59c0,.19-.07.32-.21.4,1.78-.08,3.38-.13,4.8-.17-.04-.08-.05-.13-.05-.17-.04-.53-.09-1.12-.16-1.76m-3.2-8.28c-.46.19-.92.34-1.39.45,0,.42.02.87.05,1.36v.4c.43-.04.87-.11,1.33-.23v-1.98Zm-.05-6.18v-.85c-.43,0-.87.04-1.33.12v.79c.5-.04.94-.06,1.33-.06m0,3.63c-.43.08-.89.15-1.39.23v1.7c.5-.11.96-.25,1.39-.4,0-.04.02-.06.05-.06l-.05-1.47Zm0-2.61c-.43,0-.89.02-1.39.06v1.76c.5-.07.96-.15,1.39-.23v-1.59Zm-.05-19.79h-1.44l.27,1.59h1.23c0-.57-.02-1.09-.05-1.59m-.11-1.02c-.04-.72-.11-1.4-.21-2.04h-.37c-.32,0-.69-.02-1.12-.06.04.57.12,1.27.27,2.1h1.44Zm-2.13,26.6l-.27.06c.04.53.04,1.1,0,1.7h.32v-.51c-.04-.45-.05-.87-.05-1.25m-.05-2.89h-.21v1.87h.21v-1.87Zm.21,8.68h-.48v1.08c.18,0,.34-.02.48-.06v-1.02Zm-.11-3.01h-.32c0,.49-.02,1.15-.05,1.98h.48c-.04-.41-.07-1.08-.11-1.98m.16,5.05c-.18.04-.37.06-.59.06v1.98l.85-.06c-.18-.11-.27-.26-.27-.45v-1.53Zm-.27-13.44h-.32l-.05.06.11,1.65h.27v-1.7Zm.05-1.81l-.53.11.05.74.48-.06v-.79Zm.11-2.44h-.91l.16,1.53c.25-.04.48-.08.69-.11l.05-1.42Zm.16-3.06l-1.33.11.05.62.11,1.3h1.07c.04-.83.07-1.51.11-2.04m.11-2.61l-.64.17c-.36.08-.68.15-.96.23l.11,1.31c.43-.04.91-.08,1.44-.12,0-.57.02-1.09.05-1.59m-.21-7.49c-.36,0-.84-.02-1.44-.06v1.7c.64-.08,1.15-.15,1.55-.23,0-.49-.04-.97-.11-1.42m.21,4.88s-.61.06-1.71.17c0,.57.02,1.15.05,1.76.21-.04.48-.09.8-.17l.85-.17v-1.59Zm-.53-7.43h-1.17c.04.46.05.95.05,1.48.57.04,1.01.06,1.33.06-.04-.38-.11-.89-.21-1.53m.48,4.99c-.32.04-.87.11-1.65.23,0,.45-.02.91-.05,1.36.04,0,.28-.02.75-.06.46-.04.8-.07,1.01-.11,0-.49-.02-.97-.05-1.42m-.64-6.01c-.11-.83-.18-1.55-.21-2.15-.43,0-.78-.02-1.07-.06-.07.04-.16.08-.27.11,0,.04.02.11.05.23,0,.15.04.36.11.62l.32,1.25h1.07Zm-1.07,21.1c-.29.04-.55.06-.8.06v1.65c.21-.04.52-.06.91-.06l-.11-1.64Zm-.05-1.02l-.05-.62c-.25.08-.48.13-.69.17v.51c.21,0,.46-.02.75-.06m.21,3.69c-.46,0-.78.02-.96.06,0,.68-.02,1.34-.05,1.99.36,0,.69-.02,1.01-.06v-1.98Zm.05,3c-.36.04-.71.06-1.07.06l-.11,1.59v.11c.36-.04.73-.06,1.12-.06.03-.6.05-1.17.05-1.7m-.59-10.04h-.59l.11,1.87.64-.17-.16-1.7Zm-.27-2.89c-.14.04-.3.06-.48.06l.11,1.81h.53l-.11-1.19-.05-.68Zm.8,15.65c-.43,0-.84.02-1.23.06l-.16,1.76h1.33c.04-.76.05-1.36.05-1.81m-.96-17.92c-.18.04-.34.06-.48.06l.11,1.25c.14,0,.3-.02.48-.06l-.11-1.25Zm.91,20.76h-1.39l-.11.68-.05.74c.5-.08,1.01-.13,1.55-.17v-1.25Zm-1.01-23.59c-.21.04-.41.06-.59.06l.16,1.81c.14,0,.3-.02.48-.06-.04-.6-.05-1.21-.05-1.82m.96,25.86c-.53.04-1.05.09-1.55.17-.04.42-.05.77-.05,1.08-.04.42-.05.74-.05.96v.06c.14.08.35.08.64,0,.07-.04.22-.1.45-.17.23-.07.42-.11.56-.11v-1.98Zm-.96-28.24c-.29.04-.53.08-.75.11l.11,1.3c.18,0,.37-.02.59-.06,0-.45.02-.91.05-1.36m.05-2.89h-1.01l.16,1.98c.21-.04.5-.07.85-.11v-1.87Zm-.05-2.38c-.39.04-.77.1-1.12.17l.11,1.19h1.07c0-.45-.02-.91-.05-1.36m-2.19-3.91c0-.38.18-.57.53-.57s2.19.08,5.49.23l.21.06-.05-.17c-.07-.34.05-.55.37-.62.32-.07.51.06.59.4l.05.4c.82.04,1.56.06,2.24.06.11-.07.23-.11.37-.11.07,0,.16.04.27.11.43,0,.85-.02,1.28-.06.04-.23.16-.36.37-.4.28-.04.48.08.59.34.39-.04.89-.08,1.49-.11v-.06c-.04-.34.11-.53.43-.57.32-.04.5.11.53.45v.06c.57-.04,1.01-.08,1.33-.12v-.06c-.04-.34.11-.53.42-.57.32-.04.5.11.53.45v.11c2.2-.15,4.03-.13,5.49.06.14.04.37.06.69.06.36.04.62.08.8.11.68.08,1.19.34,1.55.79.6.76.73,1.91.37,3.46-.29,1.13-.73,2-1.33,2.61.07.34-.05.55-.37.62-.18.04-.34-.02-.48-.17-.28.11-.67.13-1.17.06-.85-.07-1.3-.11-1.33-.11-.21,0-1.01,0-2.4.03-1.39.02-2.54.03-3.46.03-1.39.04-2.51.09-3.36.17-.5.04-.91.08-1.23.11-.29.08-.46.13-.53.17-.5.26-.87.62-1.12,1.08,0,.11-.02.23-.05.34-.04.04-.09.08-.16.11-.11.38-.21,1.46-.32,3.23-.04.23-.07.51-.11.85-.11.45-.16.72-.16.79-.07.49-.05.85.05,1.08l.21.23.75-.11c.07-.04.14-.06.21-.06h.48c3.95-.49,6.89-.49,8.85,0,.11.04.19.09.27.17h.32c1.03,0,1.92.06,2.67.17,0-.3.14-.47.43-.51.32-.04.5.11.53.45l.05.28c.46.15.87.34,1.23.57.67.45,1.06,1.05,1.15,1.79.09.74-.13,1.6-.67,2.58-.57.98-1.76,1.61-3.57,1.87-1.1.19-2.83.23-5.17.11-2.67-.11-4.34-.17-5.01-.17-.71.04-1.3.11-1.76.23-.36.11-.6.25-.75.4,0,.04-.02.09-.05.17v.68c0,.45.02,1.1.05,1.93,0,.23.05,1.25.16,3.06,0,.04-.04.57-.11,1.59-.04.45.02.77.16.97.14.23.39.43.75.62.07-.07.16-.11.27-.11.28-.04.46.09.53.4.36.11.78.21,1.28.28h.05c.11-.11.21-.17.32-.17.21-.04.37.06.48.28.89.08,2.03.11,3.41.11.07-.08.14-.13.21-.17.18-.04.32,0,.43.11h.21c.43,0,1.02,0,1.79-.03.76-.02,1.31-.03,1.63-.03v-.06c.11,0,.21.02.32.06.53-.04,1-.06,1.39-.06.82.04,1.49.1,2.03.17.64.08,1.1.23,1.39.45.25.19.48.6.69,1.25.21.53.39,1.13.53,1.81l.05.06c.11.08.16.19.16.34,0,.11-.02.21-.05.28.07.45.11.85.11,1.19.04.72-.09,1.25-.37,1.59-.04.04-.11.08-.21.12-.04.04-.07.06-.11.06s-.09.02-.16.06h-.43c-.36.04-.85.08-1.49.11-1.07.04-2.52.08-4.37.11l-7.3.11c-2.35.04-5.22.15-8.64.34-.14,0-.27.02-.37.06l-.48.17c-.18.04-.36.07-.53.11-.75.19-1.32.08-1.71-.34-.07-.08-.12-.17-.16-.29v-.17c-.04-.11-.05-.23-.05-.34,0-.27.02-.6.05-1.02.04-.53.11-1.49.21-2.89l.27-3.4c-.18-.08-.27-.23-.27-.45,0-.26.12-.43.37-.51v-.23c.11-1.4.18-2.87.21-4.42h-.11c-.32.04-.5-.11-.53-.45-.04-.34.11-.53.42-.57h.21v-1.64h-.43c-.32,0-.48-.17-.48-.51s.16-.51.48-.51h.37v-.28l-.53.17c-.28.08-.47-.05-.56-.37-.09-.32.03-.54.35-.65l.69-.17c0-.68-.02-1.4-.05-2.16-.14.04-.27.06-.37.06-.32.04-.5-.11-.53-.45-.04-.34.11-.53.43-.57.14,0,.28-.02.42-.06-.04-.6-.09-1.23-.16-1.87-.14-.11-.21-.26-.21-.45,0-.15.05-.28.16-.4l-.11-1.36c-.14-.11-.21-.26-.21-.45,0-.15.05-.28.16-.4l-.32-4.25c-.21-.07-.32-.25-.32-.51,0-.23.09-.38.27-.45-.07-.79-.12-1.51-.16-2.16h-.8c-.32,0-.48-.17-.48-.51s.16-.51.48-.51h.75l-.05-.85-.11.06c-.32.08-.52-.05-.61-.37-.09-.32,0-.54.29-.65.11-.04.23-.07.37-.11l-.11-2.04c0-.34.17-.52.51-.54.34-.02.53.16.56.54.03.57.05,1.17.05,1.81.35-.08.73-.13,1.12-.17-.04-.08-.08-.24-.13-.48-.05-.25-.1-.43-.13-.54-.07-.34-.12-.6-.16-.79-.03-.19-.05-.36-.05-.51h-1.12c-.36,0-.53-.19-.53-.57" style="fill:#db0a17;"/></g></svg>