<?xml version="1.0" encoding="UTF-8"?><svg id="_レイヤー_2" xmlns="http://www.w3.org/2000/svg" viewBox="0 0 253.24 25.99"><g id="_レイヤー_1-2"><path d="m114.54,9.14v1.07c0,.31.15.39.46.39h5.05c.29,0,.44-.08.44-.39v-1.07h-5.95Zm5.95-2.02c0-.31-.15-.39-.44-.39h-5.05c-.31,0-.46.08-.46.39v1.02h5.95v-1.02Zm-.24-1.43c.97,0,1.43.36,1.43,1.29v3.38c0,.9-.46,1.26-1.43,1.26h-5.47c-.97,0-1.43-.36-1.43-1.26v-3.38c0-.94.46-1.29,1.43-1.29h5.47Zm-3.4,8.19h-3.76c-.31,0-.49-.25-.49-.6,0-.32.19-.58.49-.58h9.18c.31,0,.46.26.46.58,0,.34-.15.6-.46.6h-4.22v1.77h3.45c.29,0,.44.27.44.58,0,.32-.15.6-.44.6h-3.45v2.28c.41.07.83.1,1.27.12.38.02.73.02,1.09.02.66,0,1.29-.02,1.9-.05h.05c.36,0,.55.2.56.6,0,.44-.24.65-.59.66-.38.02-.78.02-1.21.02s-.85,0-1.31-.02c-2.77-.1-4.59-.71-5.81-2.48-.46,1.02-.99,1.92-1.56,2.62-.13.17-.32.25-.51.25-.15,0-.3-.05-.42-.15-.15-.12-.22-.29-.22-.48,0-.14.05-.29.15-.41,1.02-1.16,1.85-2.89,2.28-4.71.07-.29.26-.43.53-.43.05,0,.08,0,.14.02.29.05.54.22.54.49,0,.03,0,.07-.02.1-.12.53-.27,1.04-.44,1.55.58.88,1.36,1.61,2.38,1.99v-4.93Zm-4.71-5.47c.34,0,.51.24.51.58s-.17.59-.51.59h-1.45v2.96c.27-.14.51-.25.73-.37.15-.08.29-.12.41-.12.19,0,.34.1.48.32.07.12.1.24.1.34,0,.19-.12.36-.29.46-.44.24-.92.49-1.43.73v5.35c0,1.09-.54,1.51-1.68,1.51-.51,0-1-.03-1.34-.14-.24-.07-.41-.26-.41-.54,0-.05.02-.14.03-.2.07-.34.26-.46.48-.46.03,0,.07,0,.12.02.26.05.58.1.88.1.54,0,.66-.08.66-.56v-4.54c-.49.19-1.02.39-1.55.56-.09.02-.15.03-.22.03-.22,0-.41-.13-.49-.44-.03-.1-.05-.19-.05-.27,0-.24.12-.41.34-.48.7-.24,1.38-.49,1.97-.75v-3.52h-1.79c-.32,0-.48-.24-.48-.59s.15-.58.48-.58h1.79v-2.81c0-.32.26-.49.65-.49s.61.17.61.49v2.81h1.45Z" style="fill:#db0a17;"/><path d="m136.15,10.39c-.26.27-.51.53-.75.75-.09.07-.12.12-.12.17,0,.05.07.08.2.1.97.15,2.12.36,3.16.6.78-.39,1.48-.94,2.04-1.62h-4.54Zm7.72-4.08c.99,0,1.45.39,1.45,1.38v.71c0,.34-.27.51-.65.51s-.68-.17-.68-.51v-.56c0-.36-.17-.46-.53-.46h-10.88c-.36,0-.53.1-.53.46v.56c0,.34-.29.51-.68.51s-.65-.17-.65-.51v-.71c0-.99.48-1.38,1.44-1.38h5.12v-.82c0-.32.24-.51.66-.51s.63.19.63.51v.82h5.29Zm-1.77,4.08c-.53.78-1.21,1.43-1.99,1.96,1.38.34,2.74.75,4.06,1.22.22.07.36.29.36.54,0,.08-.01.17-.05.25-.1.26-.34.37-.58.37-.1,0-.19-.02-.29-.05-1.49-.61-3.13-1.14-4.84-1.58-.48.22-1,.42-1.55.59-1.65.51-3.66.83-5.83.94-.32,0-.6-.22-.61-.59v-.03c0-.36.24-.54.54-.56,2.06-.05,3.93-.27,5.39-.7.08-.03.19-.05.27-.08-.9-.19-1.82-.36-2.68-.49-.44-.08-.65-.27-.65-.53,0-.2.12-.43.36-.65.21-.19.41-.39.63-.61h-3.62c-.29,0-.46-.25-.46-.58s.17-.53.46-.53h4.62c.34-.41.64-.83.88-1.21.16-.27.31-.37.55-.37.08,0,.19.02.3.05.27.07.44.22.44.41,0,.07-.03.15-.09.24-.2.29-.42.58-.65.88h7.99c.29,0,.44.22.44.53,0,.32-.15.58-.44.58h-2.97Zm-11.27,6.22c-.29,0-.48-.22-.48-.56s.19-.56.48-.56h6.41v-.9c0-.29.25-.46.61-.46.39,0,.65.17.65.46v.9h6.75c.29,0,.48.22.48.56s-.19.56-.48.56h-5.76c1.72,1.26,3.91,2.21,5.91,2.74.27.07.43.29.43.54,0,.09-.02.19-.05.27-.09.3-.34.46-.61.46-.08,0-.15-.02-.24-.03-2.6-.7-4.86-2.11-6.53-3.64.07.31.1.68.1,1.05v2.58c0,.29-.26.48-.65.48-.36,0-.61-.19-.61-.48v-2.55c0-.36.03-.73.12-1.09-1.6,1.63-4,2.89-6.25,3.62-.1.04-.19.05-.27.05-.26,0-.46-.14-.56-.44-.03-.08-.05-.19-.05-.25,0-.27.17-.48.44-.56,2.02-.51,3.99-1.53,5.54-2.75h-5.37Z" style="fill:#db0a17;"/><path d="m.38,25.62h252.49V7.48m0-7.11H.38v18.14" style="fill:none; stroke:#db0a17; stroke-linecap:round; stroke-linejoin:round; stroke-width:.75px;"/></g></svg>